<?xml version="1.0" encoding="UTF-8" standalone="no"?>
<svg
   xmlns:dc="http://purl.org/dc/elements/1.1/"
   xmlns:cc="http://creativecommons.org/ns#"
   xmlns:rdf="http://www.w3.org/1999/02/22-rdf-syntax-ns#"
   xmlns:svg="http://www.w3.org/2000/svg"
   xmlns="http://www.w3.org/2000/svg"
   id="newdad_head_neutral"
   viewBox="0 0 570 1560"
   version="1.1">
  <metadata
     id="metadata1089">
    <rdf:RDF>
      <cc:Work
         rdf:about="">
        <dc:format>image/svg+xml</dc:format>
        <dc:type
           rdf:resource="http://purl.org/dc/dcmitype/StillImage" />
        <dc:title></dc:title>
      </cc:Work>
    </rdf:RDF>
  </metadata>
  <defs
     id="defs1053">
    <style
       id="style1051">.cls-1{fill:#e0aca0;}.cls-2{fill:#d89687;}.cls-3{fill:#f0d9d4;}.cls-4{fill:#f2dfdb;}.cls-5{fill:#bd4e36;}.cls-6{fill:#edd0c9;}.cls-7{fill:#dca295;}.cls-8{fill:#e9c3a7;}.cls-9{fill:#faf3ee;}.cls-10{fill:#f3e0d2;}</style>
  </defs>
  <g
     id="_Group_Image"
     data-name="&lt;Group&gt; Image">
    <path
       class="cls-1"
       d="M330.28,62.52h2.52a.34.34,0,0,0,0,.1h-2.54A.34.34,0,0,0,330.28,62.52Z"
       id="path1055" />
    <path
       class="cls-2"
       d="M223.32,157a.14.14,0,0,0,.11,0v1.32h-.12Z"
       id="path1057" />
    <path
       class="cls-3"
       d="M332.81,62.62a.34.34,0,0,1,0-.1h.6a.34.34,0,0,0,0,.1Z"
       id="path1059" />
    <path
       class="cls-4"
       d="M330.28,62.52a.34.34,0,0,1,0,.1h-.47v-.1Z"
       id="path1061" />
    <path
       class="cls-5"
       d="M329.8,62.62h3.61a21.91,21.91,0,0,1,3.41.59,3.77,3.77,0,0,1,2,1.21,7.62,7.62,0,0,0,5.94,2.76,27.24,27.24,0,0,0,7.21-.43,4,4,0,0,1,.78,0c.54,0,.79.25.81.79a40.38,40.38,0,0,1-.19,4.79l-.3,3.4a2.8,2.8,0,0,0,.56,1.85,15.42,15.42,0,0,0,4.07,4.18,5.87,5.87,0,0,0,3,.82,21.47,21.47,0,0,0,5.71-.4,5.12,5.12,0,0,1,.78-.06.65.65,0,0,1,.71.69,3.43,3.43,0,0,1-.3,1.51c-.52,1.21-1,2.42-1.53,3.64a9.2,9.2,0,0,0-.52,1.77A2.41,2.41,0,0,0,367,92.51a9.89,9.89,0,0,0,3.93.93c.48,0,1,0,1.44,0a.68.68,0,0,1,.76.78,8.77,8.77,0,0,1-.79,2.61,6.72,6.72,0,0,0-.4,2.17c0,.53.15.81.76.77s1.39,0,2.09,0,.85.23.84.87a5.59,5.59,0,0,1-.39,2.1c-.26.61-.52,1.21-.77,1.82s-.23.91.42,1.32a3.36,3.36,0,0,0,1.82.51h2.52a.68.68,0,0,1,.77.77,10.38,10.38,0,0,1-.57,2.86,2.19,2.19,0,0,0,.26,1.82c.42.7.82,1.42,1.25,2.11s.56,1.25,1.32,1.52c.39.14.62.59.85,1a53.69,53.69,0,0,1,4.77,11.2c.4,1.25.75,2.52,1.15,3.78a5.86,5.86,0,0,1-.24,4.2,30.91,30.91,0,0,0-1.86,4.85,15,15,0,0,0,2.26,12,6.47,6.47,0,0,1,1.08,3.79,5.8,5.8,0,0,1-.82,2.78,1,1,0,0,1-1.4.53c-3.06-1.41-6.14-1-9.23-.11-.48.14-.95.31-1.43.44s-.85.2-1.13-.24a1.11,1.11,0,0,1,0-1.19c.6-1.07,1.24-2.13,1.78-3.25l.14-.25c.07,0,.11-.12,0-.15s-.13.08-.2.13l-.11.13a8,8,0,0,0-2.05,2.48c-.9,1.63-1.92,3.18-2.93,4.73a17.12,17.12,0,0,0-2.54,7.4c-.45,3.93-.51,7.89-.75,11.84-.09,1.39-.15,2.79-.25,4.18a2.07,2.07,0,0,1-2,1.95,20.49,20.49,0,0,1-4.42-.34,1.09,1.09,0,0,1-.92-1.15c.06-4.17-.26-8.34-.33-12.51a46.25,46.25,0,0,0-5.43-20.53l-2.85-5.53a6.86,6.86,0,0,0-1.52-1.91,65.53,65.53,0,0,0-16.71-11.4,51.78,51.78,0,0,0-14.23-4,64.75,64.75,0,0,1-12.69-2.63,19,19,0,0,1-8.82-5.94,12.17,12.17,0,0,1-2.62-7.25,50,50,0,0,1,.54-7.82,26.69,26.69,0,0,0,.3-6.74,12.66,12.66,0,0,0-1-3.56c-.07-.16-.09-.44-.39-.31s-.21.31-.17.51a31.66,31.66,0,0,1,.08,10.55c-.14,1.17-.77,1.46-1.77.81a24.51,24.51,0,0,0-13.61-4.17c-9.41,0-16.86,3.9-21.87,12a89.77,89.77,0,0,0-4.93,10c-1.36,3-2.72,6-4.26,8.9a51.21,51.21,0,0,1-11.12,13.85,17.59,17.59,0,0,0-2,2.2,16.23,16.23,0,0,1-5,4.36c-1.88,1-3.77,2-5.65,3a4,4,0,0,1-1.66.47.83.83,0,0,1-.82-.37V157a40.39,40.39,0,0,0,3-17.14,55.35,55.35,0,0,0-1.83-11.44,13.23,13.23,0,0,1,1.2-10q1.45-2.61,2.71-5.33a9,9,0,0,0,.6-6.4c-.43-1.52-.83-3-1.28-4.55a9.77,9.77,0,0,1,.74-7.7,29.41,29.41,0,0,1,6.46-8,38.51,38.51,0,0,1,16.14-9,43.7,43.7,0,0,1,8.52-1.26,42.42,42.42,0,0,0,8.55-.95A20.35,20.35,0,0,0,274,72.61a41.48,41.48,0,0,1,6.25-3.39,7.82,7.82,0,0,1,8.86,1.3c3.66,3.24,7,6.75,10.53,10.15s6.68,6.55,10,9.83c.16.15.32.3.49.44a.67.67,0,0,0,1,0,.65.65,0,0,0,0-1c-.16-.2-.33-.4-.51-.59q-8-8.11-16-16.22a1.16,1.16,0,0,1-.33-1.13.89.89,0,0,1,.77-.58c8.68-1.89,17.15-4.54,25.69-7A44.64,44.64,0,0,1,329.8,62.62Z"
       id="path1063" />
    <path
       class="cls-6"
       d="M378.16,155.07l-.14.25-.14-.14.11-.13Z"
       id="path1065" />
    <path
       class="cls-7"
       d="M378.16,155.07l-.17,0c.07-.05.15-.15.2-.13S378.23,155,378.16,155.07Z"
       id="path1067" />
  </g>
  <g
     id="_Group_Image-2"
     data-name="&lt;Group&gt; Image">
    <path
       class="cls-8"
       d="M283.39,105.36c.8.12,1.6.22,2.39.36a21.69,21.69,0,0,1,8.87,3.67,2.74,2.74,0,0,1,1.07,2.8,14.52,14.52,0,0,0,1.84,9.32c2.06,3.5,5.23,5.67,8.8,7.36a40.57,40.57,0,0,0,10.14,2.78c3.65.66,7.33,1.13,10.91,2.14a46.3,46.3,0,0,1,10.22,4.29,63.19,63.19,0,0,1,9.1,6.37q2.43,2,4.69,4.17c1.48,1.41,2.93,2.83,4.33,4.31a4.85,4.85,0,0,1,1.26,2.26c.93,3.74,2,7.45,2.71,11.23.3,1.58.51,3.17.67,4.77.26,2.54.3,5.08.39,7.63.05,1.64,0,3.28.08,4.91a8.42,8.42,0,0,0,.36,2.17,1.72,1.72,0,0,0,1.37,1.27,9.43,9.43,0,0,0,2.12.23c.75,0,1,.21.93,1-.2,2.24-.19,4.49-.44,6.73-.2,1.71-.24,3.45-.39,5.17s-.38,3.59-.58,5.38-.38,3.59-.63,5.38c-.28,2-.59,4-1,5.93a80.92,80.92,0,0,1-3.15,12.15,49.34,49.34,0,0,1-7.32,13.78,45.31,45.31,0,0,1-9.94,9.51,47.48,47.48,0,0,1-12.18,6.16,45.76,45.76,0,0,1-8.81,2c-1.79.23-3.59.37-5.39.49-1.44.1-2.88.08-4.31.09a67.53,67.53,0,0,1-7.38-.46,82.6,82.6,0,0,1-12.27-2.29,108.77,108.77,0,0,1-16.37-5.55,61.19,61.19,0,0,1-11-6,56.46,56.46,0,0,1-5.19-4.21,50.38,50.38,0,0,1-7.84-9.16,57.05,57.05,0,0,1-6-11.81,93.51,93.51,0,0,1-4.41-16,33.65,33.65,0,0,1-.64-5c0-1.25-.25-2.49-.4-3.83a19.88,19.88,0,0,0-.3,2.66c-.4,3.51-.9,7-2.6,10.17a16.88,16.88,0,0,1-3.34,4.27,2.83,2.83,0,0,1-2.86.76c-1-.28-2-.2-3-.45a11.6,11.6,0,0,1-6.82-5,20.1,20.1,0,0,1-3-7.77c-.6-3.29-1.07-6.59-1.46-9.91-.27-2.37-.53-4.74-.71-7.12-.22-2.78-.46-5.55-.48-8.35v-2.64a13.36,13.36,0,0,1,1.19-5.92,13.71,13.71,0,0,1,10.24-7.89c.6-.12,1.29,0,1.78-.42a3.59,3.59,0,0,1,2.09-.72,8,8,0,0,0,.84-.08,4.48,4.48,0,0,1,5.16,3.43c.06.27.08.54.12.82l.66,5.14.17,1.34a2.38,2.38,0,0,0-.06-1.34c0-2.39-.15-4.78-.2-7.17-.05-1.89-.18-3.79-.15-5.68a1.6,1.6,0,0,0-.28-1,1.11,1.11,0,0,1,.24-1.81c1.53-1.18,3-2.43,4.42-3.76a48.31,48.31,0,0,0,5.14-5.74,60,60,0,0,0,7.52-12.94c1.61-3.76,3.14-7.55,5-11.18a24.62,24.62,0,0,1,6.6-8.09,22.88,22.88,0,0,1,10.56-4.61c.75-.13,1.51-.24,2.27-.36Z"
       id="path1070" />
    <path
       class="cls-9"
       d="M215.4,173.36h.11V176h-.11Z"
       id="path1072" />
    <path
       class="cls-8"
       d="M306.52,321.22a39.9,39.9,0,0,1-4.81-.12,53.39,53.39,0,0,1-5.63-.56,3.53,3.53,0,0,0-.65,0,43.75,43.75,0,0,1-5.83-.45c-1.28-.13-2.58-.16-3.85-.4-1.48-.28-3-.32-4.45-.74a26.41,26.41,0,0,1-5.76-2.41,1,1,0,0,1-.47-1.33,62.38,62.38,0,0,0,2-7.79c.43-2.19.74-4.39,1-6.6.34-2.54.55-5.1.8-7.65.19-1.84.25-3.69.39-5.54q.29-3.72.39-7.46c0-.79.08-1.59.08-2.39,0-3.65.23-7.31.1-11-.11-2.92,0-5.83-.11-8.75,0-1.18.74-1.27,1.48-1a105.24,105.24,0,0,0,11.31,3.42,104.08,104.08,0,0,0,10.65,2c2,.27,4.1.47,6.17.61,2.22.15,4.43.12,6.64.07a35.24,35.24,0,0,0,4.81-.44c1-.16,1.33.19,1.42,1.18.14,1.66.36,3.31.54,5,.14,1.25.27,2.49.41,3.74.18,1.68.37,3.35.56,5s.34,3.08.52,4.62.39,3.36.62,5,.55,3.61.8,5.42c.35,2.44.78,4.87,1.23,7.29.59,3.08,1.22,6.16,2,9.19.39,1.48.86,2.94,1.3,4.41,0,.13,0,.32.23.25s.22-.14.19-.35c-.12-1.07-.39-2.11-.59-3.16a4.42,4.42,0,0,1-.05-1,.6.6,0,0,1,.55-.61,21.16,21.16,0,0,1,3.73-.38,3,3,0,0,1,2.28,1.14,1.62,1.62,0,0,1,.12,1.66,9.6,9.6,0,0,1-1.64,2.41c-2.12,2.65-5.08,3.84-8.2,4.73-1.84.52-3.63,1.19-5.5,1.6a29.54,29.54,0,0,1-4.77.72c-2.2.12-4.39.4-6.59.55C309,321.28,307.87,321.22,306.52,321.22Z"
       id="path1074" />
    <path
       class="cls-8"
       d="M390.59,174.43c0,1.74.06,3.48,0,5.22a52.15,52.15,0,0,1-2.6,15.41,28.34,28.34,0,0,1-5.6,9.53,21.79,21.79,0,0,1-10.42,6.7c-1.41.4-1.74.27-2.61-.9a14.38,14.38,0,0,1-2.15-5.71,24.35,24.35,0,0,1-.32-6.2c.07-2.12.29-4.25.44-6.37.1-1.47.18-2.94.25-4.41,0-.67.24-.92.9-.9a1,1,0,0,0,1.15-.89,54.68,54.68,0,0,0,1.46-7.84c.28-1.76.15-3.54.33-5.3a33.71,33.71,0,0,1,1.49-6.8c.16-.5.31-1,.43-1.49a2.33,2.33,0,0,1,1.64-1.82,49.88,49.88,0,0,1,5.32-1.58,11.38,11.38,0,0,1,6.76.31,5.22,5.22,0,0,1,3.29,4.25A67.88,67.88,0,0,1,390.59,174.43Z"
       id="path1076" />
    <path
       class="cls-10"
       d="M237.59,167.72h.11a2.38,2.38,0,0,1,.06,1.34Z"
       id="path1078" />
  </g>
  <g
     id="_Group_Image-3"
     data-name="&lt;Group&gt; Image">
    <path
       d="M331.48,59.76c1.56.24,3.11.46,4.66.72a19.13,19.13,0,0,1,2.27.51,3.73,3.73,0,0,1,1.21.61,4.82,4.82,0,0,1,.93.93c2.94,3.58,6.68,4.29,11,3a25.21,25.21,0,0,1,2.76-.77,2.44,2.44,0,0,1,3.07,2.79c-.13,2.17-.27,4.35-.5,6.51a4.65,4.65,0,0,0,1.52,4.32c.7.62,1.33,1.32,2,2a3.11,3.11,0,0,0,2.74.88c2.34-.3,4.68-.55,7-.82a1.44,1.44,0,0,1,1.51,1.89c-.44,1.41-1,2.77-1.49,4.17a37,37,0,0,0-1,3.6,1.33,1.33,0,0,0,.87,1.54,6.26,6.26,0,0,0,4.32.45c1.47-.41,2.44.48,2.08,2-.25,1-.65,2-1,3.08-.1.35-.14.72-.23,1.15.58-.17,1-.34,1.49-.43a1.47,1.47,0,0,1,1.78,1,4.44,4.44,0,0,1,0,3.72c-.29.59-.55,1.2-.79,1.81s0,1,.64,1a5.61,5.61,0,0,0,1.46-.27c.61-.18,1.18-.48,1.8-.65a1.37,1.37,0,0,1,1.9,1.63c-.16,1.15-.35,2.29-.6,3.42a3.19,3.19,0,0,0,.45,2.44c.67,1.12,1.19,2.33,1.77,3.5.09.19.19.39.3.58,2.93,5,4.65,10.41,6.25,15.89a6.33,6.33,0,0,1-.59,4.48,36.32,36.32,0,0,0-2.11,5,10.24,10.24,0,0,0,.88,8c.79,1.39,1.5,2.82,2.26,4.23a4,4,0,0,1,0,4.26,12.13,12.13,0,0,0-1,2.15,1.37,1.37,0,0,0,.05,1.11,10.74,10.74,0,0,1,2.23,6.77c.14,7.91.27,15.84-1.53,23.61A31.73,31.73,0,0,1,381.64,209,19.2,19.2,0,0,1,369.87,214a22.59,22.59,0,0,1-3.28-.22c-.44,0-.63,0-.71.52a81.57,81.57,0,0,1-4.31,17.16c-6.83,17-19,27.76-37.17,31.47-.25.05-.5.12-.79.19.24,1.86.46,3.7.71,5.54.86,6.29,1.62,12.6,2.62,18.87,1.23,7.66,2.66,15.29,4,22.94.19,1.06.35,2.13.55,3.19s-.67.94-1.2,1.06c-.19,0-.63-.41-.72-.71a95.44,95.44,0,0,1-3.82-16.42c-1.25-8.58-2.29-17.18-3.39-25.78-.35-2.67-.61-5.36-.91-8a3.22,3.22,0,0,0-.07-.32c-14.08,1.63-27.53-1.19-40.8-5.78,0,1.48,0,2.93,0,4.38.08,9,.12,17.95-.57,26.9-.52,6.79-1,13.59-2.5,20.26-.45,2-1.06,4-1.59,6-.1.38-.24.65-.73.51s-1.05,0-1.18-.24,0-.84.1-1.26a214.81,214.81,0,0,0,3.05-22.74c.77-9.27.78-18.56,1-27.85,0-2,.11-3.92.21-5.88a1.13,1.13,0,0,0-.82-1.3,65.47,65.47,0,0,1-16.86-9.59,52.35,52.35,0,0,1-16.31-23.26c-1.41-3.85-2.44-7.84-3.64-11.77-.07-.24-.13-.49-.17-.64-1.34,1.29-2.71,2.54-4,3.86-2.14,2.2-4.76,2.59-7.62,2.16a13.92,13.92,0,0,1-9.57-6.21,24.67,24.67,0,0,1-3.84-10.6c-1.15-7.36-2-14.77-2.48-22.2,0-.66-.1-1.31-.15-2v-2.52c0-.26.09-.51.11-.76.49-6.28,3.24-11.11,9-14a1.09,1.09,0,0,0,.63-1.09,25.4,25.4,0,0,1,.35-4.1,59.29,59.29,0,0,0,1.43-11.1,45.65,45.65,0,0,0-1.86-13.24,15.28,15.28,0,0,1,1.37-12.15c.67-1.18,1.2-2.44,1.85-3.62a10,10,0,0,0,.55-8.5,25.66,25.66,0,0,1-1.36-5.56c-.36-3.08,1-5.72,2.65-8.21a40.44,40.44,0,0,1,12.2-11.78c6.67-4.34,14.07-6.21,22-6.49a23.19,23.19,0,0,0,12.53-3.86,37.71,37.71,0,0,1,4.68-2.55,10.48,10.48,0,0,1,5.57-1.08,11.47,11.47,0,0,1,6.71,3.15c.79.7,1.56,1.42,2.19,2a13.54,13.54,0,0,1,1.76-1,281.6,281.6,0,0,1,30.58-9.23,49.35,49.35,0,0,1,5-.74Zm-93.93,93.16a5.37,5.37,0,0,1,.51,1.38c.23,6.13.39,12.26.63,18.39.13,3.48.31,6.95.58,10.42.16,1.94.62,3.86.82,5.8.47,4.41.75,8.84,1.31,13.24a84.71,84.71,0,0,0,4.83,19c4.68,12.51,12.62,22.22,24.53,28.47A100.41,100.41,0,0,0,296,258.52c8.64,1.91,17.37,2.62,26.12,1.06,16.77-3,28.75-12.2,35.45-28,3.43-8.08,4.78-16.67,5.76-25.31.48-4.19.82-8.4,1.18-12.6.15-1.84.21-3.69.32-5.6-.5,0-.92,0-1.33,0-2,0-3.07-.8-3.26-2.81s-.13-4.27-.26-6.4a85.93,85.93,0,0,0-.74-9.79c-.82-4.69-2-9.31-3.16-13.95a3.6,3.6,0,0,0-1-1.67c-3.16-3-6.26-6.07-9.58-8.88a46.84,46.84,0,0,0-18.95-10.15c-4.2-1-8.49-1.69-12.75-2.48a28.89,28.89,0,0,1-12.22-4.91c-5-3.66-7.36-8.51-6.73-14.71a2.41,2.41,0,0,0-1.35-2.72c-.25-.13-.47-.3-.71-.44-10-6-26.13-3.73-32.8,9.87-1.52,3.08-2.91,6.22-4.23,9.39-3.52,8.5-8.38,16.05-15.41,22.1C239.43,151.39,238.44,152.19,237.55,152.92ZM295,72.29c.18.2.3.35.44.49l10.18,10.34c2,2,4,4,6,6.08a1.5,1.5,0,0,1-.2,2.53c-.64.41-1.31.27-2-.43-3.34-3.28-6.66-6.57-10-9.83-3.56-3.46-7.11-6.91-10.72-10.3A6.78,6.78,0,0,0,280.45,70c-2.08,1-4.11,2.14-6.09,3.34A19.14,19.14,0,0,1,267,76.17c-2.73.36-5.48.53-8.23.72a37.18,37.18,0,0,0-21.45,8.54,30.47,30.47,0,0,0-8.05,9.41,8.76,8.76,0,0,0-.69,7.06c.49,1.5.86,3,1.28,4.55a9.54,9.54,0,0,1-.64,7c-.95,2-1.95,3.89-2.95,5.82a11.19,11.19,0,0,0-1.26,7c.22,1.42.58,2.81.9,4.21,2,9.09,1.85,18-1.7,26.77a4.41,4.41,0,0,0-.12.8,10,10,0,0,0,1.37-.49c2.07-1.08,4.14-2.17,6.18-3.31a14.47,14.47,0,0,0,4-3.44,34.4,34.4,0,0,1,2.85-3.06,50,50,0,0,0,11.69-15.58c2.09-4.42,4.12-8.87,6.2-13.29a28.59,28.59,0,0,1,6.83-9.46,26.43,26.43,0,0,1,31.23-2.34l.9.53a29.76,29.76,0,0,0,0-10.77c-.2-.88.05-1.33.83-1.57s1,.37,1.23.9a15.12,15.12,0,0,1,1,7.58c-.25,2.71-.59,5.4-.84,8.11a12.9,12.9,0,0,0,2.82,9.92,17,17,0,0,0,6.12,4.42c4.18,1.89,8.66,2.61,13.15,3.23a58.5,58.5,0,0,1,13.3,3.19,62.28,62.28,0,0,1,20,13.22,5.52,5.52,0,0,1,1.08,1.49c1.19,2.26,2.36,4.53,3.49,6.83a43.31,43.31,0,0,1,4.72,17.5c.19,4.76.3,9.51.43,14.27,0,.42.08.77.57.82,1.21.13,2.42.29,3.64.33s1.64-.57,1.7-1.67c.25-4.4.53-8.81.73-13.22a20.69,20.69,0,0,1,3.76-11.61,30.69,30.69,0,0,0,1.83-3,11.69,11.69,0,0,1,4.64-4.5c-.34,2.45-1.86,4.22-2.84,6.35,4-1.36,7.84-2.17,11.77-.34a5.15,5.15,0,0,0-.06-6,15.54,15.54,0,0,1-2.39-12.3,44.16,44.16,0,0,1,2-5.67,4.5,4.5,0,0,0,.17-3.15c-.3-.91-.54-1.84-.83-2.75a55.9,55.9,0,0,0-5.12-12.3c-.16-.27-.35-.65-.59-.71-.74-.18-1-.77-1.3-1.31-.46-.78-.88-1.57-1.37-2.33a3.21,3.21,0,0,1-.42-2.79c.24-.82.4-1.65.62-2.58h-.74c-.88,0-1.76,0-2.64,0-2-.15-2.8-1.45-2-3.26.22-.54.48-1.06.66-1.61s.26-1.1.4-1.73c-1,0-1.87,0-2.74,0-.65,0-1-.3-1-.93a30.09,30.09,0,0,1,.46-3.28,17,17,0,0,1,.72-2.07c-.21,0-.34,0-.47,0a34,34,0,0,1-4.76-.79,3,3,0,0,1-2.25-4.12c.5-1.84,1.31-3.59,2-5.38.13-.36.24-.73.3-.93-2.26.08-4.48.21-6.71.23a4.62,4.62,0,0,1-3.33-1c-1.42-1.33-2.77-2.74-4.09-4.18a3.15,3.15,0,0,1-.73-2.52c.12-1.21.23-2.43.31-3.64.1-1.49.18-3,.27-4.51a4.67,4.67,0,0,0-.55,0,31,31,0,0,1-7.75.44,7.35,7.35,0,0,1-5.8-2.41,6,6,0,0,0-3.8-1.9,24.23,24.23,0,0,0-10.9.8c-6.79,1.87-13.55,3.84-20.34,5.71C300.89,70.91,298,71.55,295,72.29Zm-78.72,104c0,.07,0,.31,0,.55a193.54,193.54,0,0,0,2.29,22.28,25.65,25.65,0,0,0,2.73,8.75,11,11,0,0,0,6.74,5.49c.91.25,1.9.23,2.83.46a2.5,2.5,0,0,0,2.57-.67,15.18,15.18,0,0,0,3.93-6,42,42,0,0,0,1.4-19c-.38-2.92-.55-5.88-.79-8.82-.11-1.39-.06-2.8-.22-4.18-.5-4.23-1.07-8.44-1.61-12.66-.45-3.47-3.75-4-6.28-3.07a20.06,20.06,0,0,1-2.62.86c-5,1.06-8.55,3.78-10.26,8.7A20,20,0,0,0,216.25,176.27ZM390,174.18c-.1-2.65-.14-5.31-.32-8a4.71,4.71,0,0,0-3.8-4.39,12.67,12.67,0,0,0-3.2-.28c-2.65.1-5.08,1.15-7.56,2a1.48,1.48,0,0,0-.83.85,71.93,71.93,0,0,0-1.83,7.18c-.4,2.39-.33,4.86-.66,7.26s-.93,5-1.43,7.52a1.25,1.25,0,0,1-1.35,1.17c-.56,0-.66.2-.68.7-.12,2.33-.3,4.66-.42,7-.16,3-.6,6,.06,9,.47,2.16.93,4.29,2.35,6.08a.89.89,0,0,0,1.06.34,20.76,20.76,0,0,0,8.59-4.7c4.72-4.29,7.28-9.76,8.63-15.89A73.26,73.26,0,0,0,390,174.18Z"
       id="path1081" />
    <path
       d="M319.9,204.8a12.65,12.65,0,0,1,.35,1.71,14.82,14.82,0,0,1,.13,4.14,6,6,0,0,1-4.31,4.83,2.61,2.61,0,0,1-2.62-.57,2.9,2.9,0,0,0-3.66-.12,6.72,6.72,0,0,1-4.89,1.71c-1.37-.1-2.77,0-4.11-.26a4.43,4.43,0,0,1-1.91-1.17,3.14,3.14,0,0,0-4.34.05,1.9,1.9,0,0,1-1.33.51,5.2,5.2,0,0,1-3.87-2,8.11,8.11,0,0,1-1.35-7.37c.13-.48.24-1,.35-1.47h.28a5.11,5.11,0,0,1,.13,1.76c-.74,2.29.75,3.57,2.09,4.93a4.81,4.81,0,0,0,.57.44,3,3,0,0,0,3.16.49,10.74,10.74,0,0,1,3.16-.46,3.88,3.88,0,0,1,2.92,1.18c.56.52,1.12,1,1.7,1.52a2.27,2.27,0,0,0,2.57.39,5.61,5.61,0,0,0,2-1.22c1.71-2,3.88-2.16,6.23-1.71.56.11,1.08.39,1.63.55a1.18,1.18,0,0,0,.67,0,8.78,8.78,0,0,0,4.18-3.89c.25-.4,0-1.12,0-1.69,0-.76,0-1.52,0-2.28Z"
       id="path1083" />
  </g>
</svg>
