<?xml version="1.0" encoding="UTF-8" standalone="no"?>
<svg
   xmlns:dc="http://purl.org/dc/elements/1.1/"
   xmlns:cc="http://creativecommons.org/ns#"
   xmlns:rdf="http://www.w3.org/1999/02/22-rdf-syntax-ns#"
   xmlns:svg="http://www.w3.org/2000/svg"
   xmlns="http://www.w3.org/2000/svg"
   id="newdad_mouth_neutral"
   viewBox="0 0 570 1560"
   version="1.1">
  <metadata
     id="metadata1153">
    <rdf:RDF>
      <cc:Work
         rdf:about="">
        <dc:format>image/svg+xml</dc:format>
        <dc:type
           rdf:resource="http://purl.org/dc/dcmitype/StillImage" />
        <dc:title></dc:title>
      </cc:Work>
    </rdf:RDF>
  </metadata>
  <defs
     id="defs1151" />
  <g
     id="_Group_Image"
     data-name="&lt;Group&gt; Image">
    <path
       d="M327,234.26a24.45,24.45,0,0,1-7.93,1c-3.92,0-7.84.1-11.76.3a61.38,61.38,0,0,1-8.36-.17c-2.65-.22-5.33-.11-8-.14-2.45,0-4.9,0-7.35-.08a3.84,3.84,0,0,1-1.32-.34c-.2-.09-.46-.37-.45-.55a.8.8,0,0,1,.46-.6,7.8,7.8,0,0,1,1.92-.21c2.39.06,4.77.21,7.15.27a3.34,3.34,0,0,0,2.46-1.07,8.29,8.29,0,0,1,7-2.56,39.92,39.92,0,0,0,6.74-.08,8.1,8.1,0,0,1,6.36,2.18,6.9,6.9,0,0,0,5.43,1.62c2.19-.17,4.38-.32,6.56-.52C326.61,233.2,327,233.45,327,234.26Zm-31.78-.84a36.13,36.13,0,0,0,17.92,0,10.21,10.21,0,0,0-5.64-1.37c-2.65,0-5.31.05-8,.05A9.21,9.21,0,0,0,295.18,233.42Z"
       id="path1143" />
    <path
       d="M291,240.4c.06-1.07.12-1.15,1.36-.9,1.95.4,3.88.89,5.82,1.29a13,13,0,0,0,2.54.31c2.65,0,5.31,0,7.95-.1a13.18,13.18,0,0,0,2.39-.43l5.36-1.13a1.31,1.31,0,0,1,.59,0,.71.71,0,0,1,.37.33c0,.07-.13.27-.25.35-2,1.27-3.9,2.62-5.95,3.75a7.85,7.85,0,0,1-3.44,1,69.5,69.5,0,0,1-8.29-.22,8.62,8.62,0,0,1-3.14-1.22C294.48,242.55,292.77,241.47,291,240.4Z"
       id="path1145" />
  </g>
</svg>
