<?xml version="1.0" encoding="UTF-8" standalone="no"?>
<svg
   xmlns:dc="http://purl.org/dc/elements/1.1/"
   xmlns:cc="http://creativecommons.org/ns#"
   xmlns:rdf="http://www.w3.org/1999/02/22-rdf-syntax-ns#"
   xmlns:svg="http://www.w3.org/2000/svg"
   xmlns="http://www.w3.org/2000/svg"
   viewBox="0 0 569.88 1559.88"
   version="1.1"
   id="svg3596">
  <metadata
     id="metadata3600">
    <rdf:RDF>
      <cc:Work
         rdf:about="">
        <dc:format>image/svg+xml</dc:format>
        <dc:type
           rdf:resource="http://purl.org/dc/dcmitype/StillImage" />
        <dc:title></dc:title>
      </cc:Work>
    </rdf:RDF>
  </metadata>
  <defs
     id="defs3314">
    <style
       id="style3312">.cls-1{isolation:isolate;}.cls-2{fill:#f1f1f1;}.cls-3{fill:#221f20;}.cls-4{fill-rule:evenodd;}</style>
  </defs>
  <g
     id="newdad_eyes_neutral"
     class="cls-1">
    <g
       id="Layer_30"
       data-name="Layer 30">
      <path
         class="cls-2"
         d="M259.87,185.1a12.9,12.9,0,0,1-2.6-7.46c-.11-1.31-.12-2.61-.11-3.9a5.72,5.72,0,0,1,.33-2.08,3,3,0,0,1,.62-1,1.44,1.44,0,0,1,1.36-.42c.35.09-.22,1-.26,1s-.22,0-.38.17a2.22,2.22,0,0,0-.37.65,4.46,4.46,0,0,0-.2.82,8.28,8.28,0,0,0,0,.9c0,1.27,0,2.54.11,3.8a11.74,11.74,0,0,0,2.38,6.84C260.84,184.61,260,185.27,259.87,185.1Z"
         id="path3316" />
      <path
         class="cls-2"
         d="M279.78,184.7a10.59,10.59,0,0,0,1.66-8.53,10.2,10.2,0,0,0-5.39-6.75c-.23-.12.28-1,.52-.93a11.26,11.26,0,0,1,5.92,7.51,11.65,11.65,0,0,1-1.89,9.38C280.44,185.61,279.65,184.88,279.78,184.7Z"
         id="path3318" />
      <path
         class="cls-2"
         d="M261.31,184.5a11.7,11.7,0,0,0-1.62-2.47,12.82,12.82,0,0,1-1.74-2.66,2.27,2.27,0,0,1,.95-.46,11.9,11.9,0,0,0,1.62,2.46,12.82,12.82,0,0,1,1.74,2.66C262.31,184.11,261.34,184.56,261.31,184.5Z"
         id="path3320" />
      <path
         class="cls-2"
         d="M261.72,183.18l-3.66-7.77c-.06-.11.92-.53,1-.43l3.67,7.77C262.75,182.86,261.77,183.28,261.72,183.18Z"
         id="path3322" />
      <path
         class="cls-2"
         d="M258.72,172.28,261,176a3,3,0,0,1-.91.55l-2.32-3.75A3.22,3.22,0,0,1,258.72,172.28Z"
         id="path3324" />
      <path
         class="cls-2"
         d="M259.51,171.86l1.85,3a4.24,4.24,0,0,1-.91.55l-1.85-3A3.87,3.87,0,0,1,259.51,171.86Z"
         id="path3326" />
      <path
         class="cls-2"
         d="M260.64,172.22a7.92,7.92,0,0,1,1.66,3.12,4.6,4.6,0,0,1-1,.27,6.8,6.8,0,0,0-1.44-2.7A4.48,4.48,0,0,1,260.64,172.22Z"
         id="path3328" />
      <path
         class="cls-2"
         d="M262.47,182.06l2.77,4a2.89,2.89,0,0,1-.88.59l-2.77-4A2.89,2.89,0,0,1,262.47,182.06Z"
         id="path3330" />
      <path
         class="cls-2"
         d="M264.37,182.19c.83,1,1.81,2,2.72,3.17a3.53,3.53,0,0,1-.86.63c-.83-1-1.81-2-2.72-3.18A3.77,3.77,0,0,1,264.37,182.19Z"
         id="path3332" />
      <path
         class="cls-2"
         d="M266.62,183.21l1.17.86a10.49,10.49,0,0,1-.64.85l-1.16-.86A8.48,8.48,0,0,1,266.62,183.21Z"
         id="path3334" />
      <path
         class="cls-2"
         d="M267.58,183l1.52,2.11a5.38,5.38,0,0,1-.86.62l-1.52-2.11A5.38,5.38,0,0,1,267.58,183Z"
         id="path3336" />
      <path
         class="cls-2"
         d="M270,184l.81,1.22a9,9,0,0,1-.88.59l-.81-1.22A9,9,0,0,1,270,184Z"
         id="path3338" />
      <path
         class="cls-2"
         d="M270.7,184l1.18,1.25a8.86,8.86,0,0,1-.77.73l-1.18-1.25A8.86,8.86,0,0,1,270.7,184Z"
         id="path3340" />
      <path
         class="cls-2"
         d="M271.93,183.55l1.59,1.65a6.65,6.65,0,0,1-.77.73l-1.59-1.65A6.65,6.65,0,0,1,271.93,183.55Z"
         id="path3342" />
      <path
         class="cls-2"
         d="M273.22,182.78l2.34,3.33a3.55,3.55,0,0,1-.87.6l-2.34-3.33A3.55,3.55,0,0,1,273.22,182.78Z"
         id="path3344" />
      <path
         class="cls-2"
         d="M275.24,183.18l1.52,2.1a4.82,4.82,0,0,1-.86.62l-1.52-2.11A4.77,4.77,0,0,1,275.24,183.18Z"
         id="path3346" />
      <path
         class="cls-2"
         d="M275.65,181.61l2,3.7a3.37,3.37,0,0,1-.94.49l-2-3.71A3.34,3.34,0,0,1,275.65,181.61Z"
         id="path3348" />
      <path
         class="cls-2"
         d="M277.37,182.15a2.3,2.3,0,0,0,.86,1.45,6.78,6.78,0,0,1-.66.84,3.43,3.43,0,0,1-1.25-2.12,2.39,2.39,0,0,1,.52-.11C277.1,182.18,277.37,182.14,277.37,182.15Z"
         id="path3350" />
      <path
         class="cls-2"
         d="M277.76,181a1.9,1.9,0,0,0,.87,1.65,5.29,5.29,0,0,1-.56.91A3,3,0,0,1,276.7,181a2.71,2.71,0,0,1,.53,0Z"
         id="path3352" />
      <path
         class="cls-2"
         d="M278.53,178.62l1.56,2.9a4.21,4.21,0,0,1-.94.49l-1.56-2.89A4.7,4.7,0,0,1,278.53,178.62Z"
         id="path3354" />
      <path
         class="cls-2"
         d="M278.15,174.87l2.66,5a2.38,2.38,0,0,1-.95.48l-2.66-5A2.38,2.38,0,0,1,278.15,174.87Z"
         id="path3356" />
      <path
         class="cls-2"
         d="M276.55,169.76a45.22,45.22,0,0,1,4.45,7.49c.05.11-.93.53-1,.43a43.92,43.92,0,0,0-4.36-7.32C275.6,170.26,276.48,169.66,276.55,169.76Z"
         id="path3358" />
      <path
         class="cls-2"
         d="M275.24,168.55a24.13,24.13,0,0,1,3.91,4c1.14,1.51,2.06,3.11,3.08,4.62.09.13-.82.68-.9.56-1-1.54-2-3.14-3.05-4.57a24.13,24.13,0,0,0-3.76-3.87C274.41,169.23,275.13,168.45,275.24,168.55Z"
         id="path3360" />
      <path
         class="cls-2"
         d="M261.31,184.49l-2.65-5.31a2.51,2.51,0,0,1,1-.46l2.65,5.32A2.42,2.42,0,0,1,261.31,184.49Z"
         id="path3362" />
      <path
         class="cls-2"
         d="M261.92,185.75c-.55-1.05-1.38-2.11-1.94-3.33a14,14,0,0,1-1.15-3.81c0-.11,1-.23,1.06-.14A12.48,12.48,0,0,0,261,182c.51,1.11,1.29,2.08,1.93,3.31C262.93,185.4,262,185.83,261.92,185.75Z"
         id="path3364" />
      <path
         class="cls-2"
         d="M258.91,176.17a16.51,16.51,0,0,0,2.26,3.82,3.32,3.32,0,0,1-.84.65,17.76,17.76,0,0,1-2.41-4.07A3.17,3.17,0,0,1,258.91,176.17Z"
         id="path3366" />
      <path
         class="cls-2"
         d="M259.26,174.64l1.61,2.87a4.21,4.21,0,0,1-.93.51l-1.61-2.87A4.67,4.67,0,0,1,259.26,174.64Z"
         id="path3368" />
      <path
         class="cls-2"
         d="M259.48,173.61a15,15,0,0,0,1.68,2.62,3.78,3.78,0,0,1-.84.65,16.42,16.42,0,0,1-1.79-2.8A4.43,4.43,0,0,1,259.48,173.61Z"
         id="path3370" />
      <path
         class="cls-2"
         d="M260.38,173l1.88.77a6,6,0,0,1-.41,1L260,174A6.53,6.53,0,0,1,260.38,173Z"
         id="path3372" />
      <path
         class="cls-2"
         d="M278.14,185.44A5.69,5.69,0,0,0,277,183a4.44,4.44,0,0,1,.82-.67,6.74,6.74,0,0,1,1.38,2.86A4.59,4.59,0,0,1,278.14,185.44Z"
         id="path3374" />
      <path
         class="cls-2"
         d="M278.74,184.8A4.18,4.18,0,0,0,278,183a6.54,6.54,0,0,1,.86-.63,5.41,5.41,0,0,1,1,2.24A6.41,6.41,0,0,1,278.74,184.8Z"
         id="path3376" />
      <path
         class="cls-2"
         d="M279.38,184.66l-1.09-2.84a5,5,0,0,1,1-.37l1.09,2.84A4.45,4.45,0,0,1,279.38,184.66Z"
         id="path3378" />
      <path
         class="cls-2"
         d="M280,183.62l-1.37-3.51a3.54,3.54,0,0,1,1-.37l1.37,3.5A3.9,3.9,0,0,1,280,183.62Z"
         id="path3380" />
      <path
         class="cls-2"
         d="M280.74,182.67a14.73,14.73,0,0,0-1.69-4.15l.86-.63,2,2.22-.92.46a12.67,12.67,0,0,0-1.18-3.27l1-.46a5,5,0,0,0,1.67,2.06l-.84.49a24.71,24.71,0,0,0-2.94-9.39c-.16-.3.82-.72,1-.44a26.24,26.24,0,0,1,3,9.72l.12,1.17-.95-.68a5.92,5.92,0,0,1-2-2.51l.95-.46a13.32,13.32,0,0,1,1.29,3.56l.41,1.95-1.33-1.49-2-2.22L280,178a15.83,15.83,0,0,1,1.82,4.54C281.87,182.86,280.8,183,280.74,182.67Z"
         id="path3382" />
      <path
         class="cls-2"
         d="M262.45,171.82l2.34,2.72a3.81,3.81,0,0,1-.82.68l-2.33-2.71A3.84,3.84,0,0,1,262.45,171.82Z"
         id="path3384" />
      <path
         class="cls-2"
         d="M262.24,171.17a32.52,32.52,0,0,1,4.41,5c.05.08-.84.67-.89.6a30.43,30.43,0,0,0-4.26-4.88C261.43,171.87,262.18,171.11,262.24,171.17Z"
         id="path3386" />
      <path
         class="cls-2"
         d="M262.86,171a50.39,50.39,0,0,1,4.76,5c.06.07-.78.72-.84.65a50.39,50.39,0,0,0-4.66-4.92C262.05,171.65,262.79,170.89,262.86,171Z"
         id="path3388" />
      <path
         class="cls-2"
         d="M264.05,171.2l4.55,4.8c.06.07-.76.74-.82.68l-4.48-4.74C263.23,171.88,264,171.13,264.05,171.2Z"
         id="path3390" />
      <path
         class="cls-2"
         d="M265,171.14a19.93,19.93,0,0,1,3.48,3.57,2.77,2.77,0,0,1-.85.63,18.92,18.92,0,0,0-3.31-3.38A3,3,0,0,1,265,171.14Z"
         id="path3392" />
      <path
         class="cls-2"
         d="M265.27,170.27a24.51,24.51,0,0,1,4.54,4.73c.06.07-.82.68-.86.61a24.3,24.3,0,0,0-4.36-4.53C264.52,171,265.2,170.21,265.27,170.27Z"
         id="path3394" />
      <path
         class="cls-2"
         d="M266,169.48a19.56,19.56,0,0,1,3.51,3.76,2.65,2.65,0,0,1-.87.6,18.68,18.68,0,0,0-3.33-3.55A2.7,2.7,0,0,1,266,169.48Z"
         id="path3396" />
      <path
         class="cls-2"
         d="M268.28,170.75l2.79,2.65a3.34,3.34,0,0,1-.74.76l-2.8-2.65A3.6,3.6,0,0,1,268.28,170.75Z"
         id="path3398" />
      <path
         class="cls-2"
         d="M342.32,183.61a11.8,11.8,0,0,0,2.36-6.86c.1-1.25.11-2.52.1-3.8a4.49,4.49,0,0,0-.26-1.71,2,2,0,0,0-.37-.63c-.16-.14-.24-.17-.38-.14s-.51-1-.16-1.05a1.5,1.5,0,0,1,1.34.49,3.06,3.06,0,0,1,.58,1,4.8,4.8,0,0,1,.26,1,7.6,7.6,0,0,1,0,1c0,1.29,0,2.59-.11,3.9a12.75,12.75,0,0,1-2.64,7.45C343,184.52,342.21,183.75,342.32,183.61Z"
         id="path3400" />
      <path
         class="cls-2"
         d="M322.36,184.52a11.71,11.71,0,0,1-1.83-9.4,11.29,11.29,0,0,1,6-7.47c.26-.12.6.89.4,1a10.21,10.21,0,0,0-5.35,6.79,10.62,10.62,0,0,0,1.71,8.52C323.4,184.15,322.51,184.73,322.36,184.52Z"
         id="path3402" />
      <path
         class="cls-2"
         d="M340.75,183.21a12,12,0,0,1,1.75-2.66,11.92,11.92,0,0,0,1.61-2.47,2.34,2.34,0,0,1,.93.5,12.32,12.32,0,0,1-1.74,2.66,12,12,0,0,0-1.62,2.47A2.34,2.34,0,0,1,340.75,183.21Z"
         id="path3404" />
      <path
         class="cls-2"
         d="M340.32,181.92l3.67-7.77c.05-.11,1,.38.94.48l-3.66,7.77C341.21,182.51,340.27,182,340.32,181.92Z"
         id="path3406" />
      <path
         class="cls-2"
         d="M345.18,172l-2.31,3.75a3.35,3.35,0,0,1-.9-.57l2.32-3.75A3.22,3.22,0,0,1,345.18,172Z"
         id="path3408" />
      <path
         class="cls-2"
         d="M344.39,171.61l-1.84,3a4.42,4.42,0,0,1-.9-.57l1.85-3A4,4,0,0,1,344.39,171.61Z"
         id="path3410" />
      <path
         class="cls-2"
         d="M343.16,172.12a6.74,6.74,0,0,0-1.43,2.69,4,4,0,0,1-1-.29,7.88,7.88,0,0,1,1.66-3.11A3.82,3.82,0,0,1,343.16,172.12Z"
         id="path3412" />
      <path
         class="cls-2"
         d="M341.37,181.9l-2.76,4a2.78,2.78,0,0,1-.86-.62l2.76-4A2.78,2.78,0,0,1,341.37,181.9Z"
         id="path3414" />
      <path
         class="cls-2"
         d="M339.48,182c-.91,1.14-1.88,2.14-2.71,3.17a3.12,3.12,0,0,1-.84-.64c.91-1.14,1.88-2.14,2.71-3.17A3.28,3.28,0,0,1,339.48,182Z"
         id="path3416" />
      <path
         class="cls-2"
         d="M337,183.26l-1.16.86a10.52,10.52,0,0,1-.63-.86l1.17-.86A10.41,10.41,0,0,1,337,183.26Z"
         id="path3418" />
      <path
         class="cls-2"
         d="M336.28,182.81l-1.52,2.11a5.27,5.27,0,0,1-.86-.63l1.53-2.11A5.19,5.19,0,0,1,336.28,182.81Z"
         id="path3420" />
      <path
         class="cls-2"
         d="M333.87,183.79l-.81,1.22s-.89-.58-.88-.59l.81-1.23A10.49,10.49,0,0,1,333.87,183.79Z"
         id="path3422" />
      <path
         class="cls-2"
         d="M333.07,183.91l-1.18,1.25a8.85,8.85,0,0,1-.76-.74l1.17-1.24A6.65,6.65,0,0,1,333.07,183.91Z"
         id="path3424" />
      <path
         class="cls-2"
         d="M331.84,183.49l-1.59,1.64a6.64,6.64,0,0,1-.76-.74l1.59-1.65A6,6,0,0,1,331.84,183.49Z"
         id="path3426" />
      <path
         class="cls-2"
         d="M330.65,182.59l-2.34,3.32a3.31,3.31,0,0,1-.86-.62l2.34-3.32A3.49,3.49,0,0,1,330.65,182.59Z"
         id="path3428" />
      <path
         class="cls-2"
         d="M328.62,183l-1.52,2.11a5.27,5.27,0,0,1-.86-.63l1.53-2.1A5.78,5.78,0,0,1,328.62,183Z"
         id="path3430" />
      <path
         class="cls-2"
         d="M328.29,181.3l-2,3.71a3.27,3.27,0,0,1-.93-.52l2-3.7A3.13,3.13,0,0,1,328.29,181.3Z"
         id="path3432" />
      <path
         class="cls-2"
         d="M326.68,181.52a3.4,3.4,0,0,1-1.25,2.12,2.52,2.52,0,0,1-.34-.41c-.16-.21-.31-.44-.31-.44a2.29,2.29,0,0,0,.85-1.45A7.19,7.19,0,0,1,326.68,181.52Z"
         id="path3434" />
      <path
         class="cls-2"
         d="M326.3,180.17a3,3,0,0,1-1.38,2.6,2,2,0,0,1-.29-.44,5.19,5.19,0,0,1-.25-.47,1.94,1.94,0,0,0,.86-1.66A6.26,6.26,0,0,1,326.3,180.17Z"
         id="path3436" />
      <path
         class="cls-2"
         d="M325.41,178.32l-1.56,2.9a4.67,4.67,0,0,1-.93-.51l1.56-2.9A4.67,4.67,0,0,1,325.41,178.32Z"
         id="path3438" />
      <path
         class="cls-2"
         d="M325.79,174.56l-2.66,5a2.41,2.41,0,0,1-.92-.52l2.65-5A2.36,2.36,0,0,1,325.79,174.56Z"
         id="path3440" />
      <path
         class="cls-2"
         d="M327.31,169.58A44.28,44.28,0,0,0,323,176.9c0,.11-1-.38-.94-.48a45.22,45.22,0,0,1,4.45-7.49C326.55,168.82,327.38,169.49,327.31,169.58Z"
         id="path3442" />
      <path
         class="cls-2"
         d="M328.45,168.55a23.72,23.72,0,0,0-3.75,3.88c-1.08,1.43-2,3-3,4.57-.09.13-.94-.51-.87-.63,1-1.51,1.95-3.11,3.09-4.61a25,25,0,0,1,3.91-4C327.92,167.61,328.55,168.46,328.45,168.55Z"
         id="path3444" />
      <path
         class="cls-2"
         d="M340.74,183.21l2.65-5.31a2.3,2.3,0,0,1,.94.49l-2.64,5.32A2.48,2.48,0,0,1,340.74,183.21Z"
         id="path3446" />
      <path
         class="cls-2"
         d="M340.14,184.46c.64-1.21,1.41-2.18,1.92-3.3a12.81,12.81,0,0,0,1.06-3.52c0-.1,1.06.09,1,.2a13.45,13.45,0,0,1-1.15,3.8c-.56,1.22-1.39,2.27-1.94,3.33C341,185.05,340.09,184.56,340.14,184.46Z"
         id="path3448" />
      <path
         class="cls-2"
         d="M345.07,175.78a17.1,17.1,0,0,1-2.4,4.06,2.82,2.82,0,0,1-.83-.67,16.51,16.51,0,0,0,2.26-3.82A3.26,3.26,0,0,1,345.07,175.78Z"
         id="path3450" />
      <path
         class="cls-2"
         d="M344.67,174.36l-1.61,2.87a4.68,4.68,0,0,1-.92-.53l1.61-2.87A4.23,4.23,0,0,1,344.67,174.36Z"
         id="path3452" />
      <path
         class="cls-2"
         d="M344.47,173.29a16.42,16.42,0,0,1-1.79,2.8,4.43,4.43,0,0,1-.83-.67,15.75,15.75,0,0,0,1.68-2.62A4.21,4.21,0,0,1,344.47,173.29Z"
         id="path3454" />
      <path
         class="cls-2"
         d="M343,173.19l-1.89.78a7,7,0,0,1-.39-1l1.88-.77A7,7,0,0,1,343,173.19Z"
         id="path3456" />
      <path
         class="cls-2"
         d="M323.82,184.41a6.65,6.65,0,0,1,1.39-2.86,4.79,4.79,0,0,1,.81.68,5.69,5.69,0,0,0-1.16,2.41A4.6,4.6,0,0,1,323.82,184.41Z"
         id="path3458" />
      <path
         class="cls-2"
         d="M323.22,183.81a5.38,5.38,0,0,1,1-2.25,7.64,7.64,0,0,1,.85.65,4.23,4.23,0,0,0-.78,1.79A6.14,6.14,0,0,1,323.22,183.81Z"
         id="path3460" />
      <path
         class="cls-2"
         d="M322.63,183.48l1.09-2.84a4.43,4.43,0,0,1,1,.39l-1.09,2.84A4.74,4.74,0,0,1,322.63,183.48Z"
         id="path3462" />
      <path
         class="cls-2"
         d="M322.05,182.43l1.37-3.51a3.49,3.49,0,0,1,1,.4l-1.36,3.5A3.85,3.85,0,0,1,322.05,182.43Z"
         id="path3464" />
      <path
         class="cls-2"
         d="M321.23,181.62a15.55,15.55,0,0,1,1.81-4.45l.85.62-2,2.22-1.33,1.5.41-2a13.13,13.13,0,0,1,1.29-3.55l.95.46a6,6,0,0,1-2,2.51l-1,.67.12-1.16a26,26,0,0,1,3.07-9.8c.17-.31,1,.32.89.59a24.85,24.85,0,0,0-2.9,9.32l-.84-.49a4.87,4.87,0,0,0,1.67-2.06l1,.46a12.21,12.21,0,0,0-1.19,3.27l-.92-.46,2-2.22.86.62a14.78,14.78,0,0,0-1.7,4.23C322.17,182.27,321.16,181.94,321.23,181.62Z"
         id="path3466" />
      <path
         class="cls-2"
         d="M341.36,171.71,339,174.43a3.79,3.79,0,0,1-.79-.71l2.33-2.71A4.1,4.1,0,0,1,341.36,171.71Z"
         id="path3468" />
      <path
         class="cls-2"
         d="M341.48,171.14a31.45,31.45,0,0,0-4.26,4.88c-.05.08-.9-.56-.85-.63a32.06,32.06,0,0,1,4.41-5C340.85,170.28,341.55,171.08,341.48,171.14Z"
         id="path3470" />
      <path
         class="cls-2"
         d="M340.87,170.93a48.36,48.36,0,0,0-4.67,4.93c-.06.07-.86-.63-.8-.7a50.33,50.33,0,0,1,4.77-5C340.24,170.06,340.93,170.87,340.87,170.93Z"
         id="path3472" />
      <path
         class="cls-2"
         d="M339.69,171.16l-4.48,4.73c-.07.07-.85-.64-.79-.71l4.55-4.81C339,170.31,339.75,171.09,339.69,171.16Z"
         id="path3474" />
      <path
         class="cls-2"
         d="M338.65,171.17a18.53,18.53,0,0,0-3.3,3.38,2.7,2.7,0,0,1-.84-.66,20.33,20.33,0,0,1,3.49-3.57A3.2,3.2,0,0,1,338.65,171.17Z"
         id="path3476" />
      <path
         class="cls-2"
         d="M338.39,170.29a24.25,24.25,0,0,0-4.35,4.53c-.05.08-.89-.58-.84-.64a24.57,24.57,0,0,1,4.55-4.73C337.82,169.39,338.46,170.24,338.39,170.29Z"
         id="path3478" />
      <path
         class="cls-2"
         d="M337.65,169.49a19,19,0,0,0-3.33,3.56,2.77,2.77,0,0,1-.85-.63,19.31,19.31,0,0,1,3.52-3.76A3,3,0,0,1,337.65,169.49Z"
         id="path3480" />
      <path
         class="cls-2"
         d="M335.46,170.72l-2.8,2.65a3.79,3.79,0,0,1-.72-.78l2.8-2.65A3.57,3.57,0,0,1,335.46,170.72Z"
         id="path3482" />
    </g>
    <g
       id="Layer_28"
       data-name="Layer 28">
      <path
         class="cls-3"
         d="M264.75,182.42l-3.5-4.7s.2-.08.21-.07l3.49,4.7S264.76,182.44,264.75,182.42Z"
         id="path3485" />
      <path
         class="cls-3"
         d="M265.8,182.24l.11.17-.16.12a67.36,67.36,0,0,1-4.63-6.35s.21-.05.23,0a66.57,66.57,0,0,0,4.56,6.25l-.17.13-.17-.25S265.78,182.22,265.8,182.24Z"
         id="path3487" />
      <path
         class="cls-3"
         d="M266.54,182.81l-5.07-7.21s.21,0,.23,0l5.07,7.21S266.56,182.84,266.54,182.81Z"
         id="path3489" />
      <path
         class="cls-3"
         d="M267.41,182.69l.17.11-.14.14-6-8.37s.21,0,.24,0l5.91,8.27.31.43-.45-.29-.28-.18S267.38,182.67,267.41,182.69Z"
         id="path3491" />
      <path
         class="cls-3"
         d="M268.38,183l-6.27-8.66s.22,0,.24,0l6.27,8.65S268.41,183,268.38,183Z"
         id="path3493" />
      <path
         class="cls-3"
         d="M269.43,183.82l-4.94-7.18s.21,0,.23,0l4.94,7.18S269.45,183.85,269.43,183.82Z"
         id="path3495" />
      <path
         class="cls-3"
         d="M270,183.83l-4.55-6.58s.21-.06.23,0l4.54,6.58S270.06,183.85,270,183.83Z"
         id="path3497" />
      <path
         class="cls-3"
         d="M269.9,182.34l-3.55-4.8s.19-.07.21-.06l3.55,4.79S269.92,182.36,269.9,182.34Z"
         id="path3499" />
      <path
         class="cls-3"
         d="M271,182.93l-3.75-5.77s.2-.07.22,0l3.74,5.79S271,183,271,182.93Z"
         id="path3501" />
      <path
         class="cls-3"
         d="M270.93,181.51l-2.58-3.87s.19-.08.2-.06l2.58,3.87S270.94,181.53,270.93,181.51Z"
         id="path3503" />
      <path
         class="cls-3"
         d="M271.8,181.6l-3.1-4.51s.2-.08.21-.06l3.1,4.51S271.81,181.62,271.8,181.6Z"
         id="path3505" />
      <path
         class="cls-3"
         d="M272.45,181.56l-3.18-5.06s.19-.07.21-.05l3.18,5.07S272.46,181.58,272.45,181.56Z"
         id="path3507" />
      <path
         class="cls-3"
         d="M273.49,180.58l.2.47.35.83-.53-.73-3.91-5.41s.2-.07.22-.05l3.85,5.34-.17.1-.24-.55S273.47,180.55,273.49,180.58Z"
         id="path3509" />
      <path
         class="cls-3"
         d="M274.45,180.52l-4.61-5.88s.21-.07.23,0l4.59,5.87S274.47,180.54,274.45,180.52Z"
         id="path3511" />
      <path
         class="cls-3"
         d="M275,180.32s0,0,0,0-.05,0,0,0a.16.16,0,0,0,0-.1,1.45,1.45,0,0,0-.18-.31l-.43-.65-.86-1.3-1.72-2.59-3.43-5.19s.22,0,.25,0l3.44,5.18,1.71,2.6.86,1.29.43.65a.53.53,0,0,1,.13.45.2.2,0,0,1-.1.13.18.18,0,0,1-.21,0,.23.23,0,0,1-.07-.14.13.13,0,0,1,0-.14.12.12,0,0,1,.14,0s-.14.07-.08.12S275,180.31,275,180.32Z"
         id="path3513" />
      <path
         class="cls-3"
         d="M275.65,179l-6.24-8.89s.22,0,.24,0l6.24,8.89S275.67,179,275.65,179Z"
         id="path3515" />
      <path
         class="cls-3"
         d="M276.24,178.6l-6.16-8.75s.22,0,.24,0l6.16,8.75S276.26,178.63,276.24,178.6Z"
         id="path3517" />
      <path
         class="cls-3"
         d="M277.06,179.19a65.65,65.65,0,0,0-6.28-10.09s.23,0,.25,0a65.73,65.73,0,0,1,6.28,10.13S277.09,179.23,277.06,179.19Z"
         id="path3519" />
      <path
         class="cls-3"
         d="M338.09,181.49l3.49-4.7s.14.16.13.18l-3.5,4.7S338.08,181.51,338.09,181.49Z"
         id="path3521" />
      <path
         class="cls-3"
         d="M337.37,181.56l-.11.16-.16-.12a71.52,71.52,0,0,0,4.61-6.33s.13.16.12.19a68.39,68.39,0,0,1-4.58,6.27l-.16-.13.17-.24S337.39,181.53,337.37,181.56Z"
         id="path3523" />
      <path
         class="cls-3"
         d="M336.3,181.89l5.07-7.21s.12.18.1.21l-5.07,7.21S336.28,181.92,336.3,181.89Z"
         id="path3525" />
      <path
         class="cls-3"
         d="M335.7,182.05l-.17.12-.45.29.31-.44,6-8.37s.12.19.09.22l-5.91,8.27-.14-.15.28-.18S335.74,182,335.7,182.05Z"
         id="path3527" />
      <path
         class="cls-3"
         d="M334.46,182.05l6.27-8.65s.11.19.09.22l-6.28,8.66S334.43,182.09,334.46,182.05Z"
         id="path3529" />
      <path
         class="cls-3"
         d="M333.41,182.9l4.94-7.18s.12.18.11.21l-4.95,7.17S333.39,182.93,333.41,182.9Z"
         id="path3531" />
      <path
         class="cls-3"
         d="M332.79,182.91l4.55-6.58s.13.17.11.2l-4.54,6.57S332.78,182.93,332.79,182.91Z"
         id="path3533" />
      <path
         class="cls-3"
         d="M332.94,181.41l3.55-4.79s.14.16.12.18l-3.55,4.79S332.93,181.43,332.94,181.41Z"
         id="path3535" />
      <path
         class="cls-3"
         d="M331.87,182l3.75-5.78s.14.16.12.18L332,182.2S331.86,182,331.87,182Z"
         id="path3537" />
      <path
         class="cls-3"
         d="M331.9,180.59l2.58-3.87s.15.15.14.17L332,180.75S331.89,180.61,331.9,180.59Z"
         id="path3539" />
      <path
         class="cls-3"
         d="M331,180.68l3.1-4.51s.14.15.13.17l-3.1,4.51S331,180.7,331,180.68Z"
         id="path3541" />
      <path
         class="cls-3"
         d="M330.38,180.65l3.19-5.07s.14.16.13.18l-3.19,5.06S330.36,180.67,330.38,180.65Z"
         id="path3543" />
      <path
         class="cls-3"
         d="M329.71,179.85l-.2.48-.18-.11,3.91-5.4s.13.16.12.18l-3.87,5.35-.53.73.36-.83.23-.56S329.72,179.83,329.71,179.85Z"
         id="path3545" />
      <path
         class="cls-3"
         d="M328.4,179.58l4.59-5.86s.13.17.11.19l-4.6,5.88S328.38,179.61,328.4,179.58Z"
         id="path3547" />
      <path
         class="cls-3"
         d="M328.13,179.62a.21.21,0,0,1-.13.11.2.2,0,0,1-.19-.09.35.35,0,0,1,0-.28,2,2,0,0,1,.2-.36l.43-.65.86-1.29,1.72-2.6,3.44-5.18s.11.2.08.24l-3.43,5.18-1.72,2.6-.86,1.29-.43.65c-.07.1-.12.22-.1.27s-.09-.14.06.05c0,0,0-.1,0-.07A.1.1,0,0,1,328.13,179.62Z"
         id="path3549" />
      <path
         class="cls-3"
         d="M327.19,178.08l6.23-8.89s.12.19.1.22l-6.24,8.9S327.16,178.12,327.19,178.08Z"
         id="path3551" />
      <path
         class="cls-3"
         d="M326.6,177.68l6.16-8.75s.11.19.09.23l-6.16,8.74S326.58,177.71,326.6,177.68Z"
         id="path3553" />
      <path
         class="cls-3"
         d="M325.76,178.29a66.53,66.53,0,0,1,6.3-10.12s.1.21.07.24a66.9,66.9,0,0,0-6.26,10.1S325.73,178.33,325.76,178.29Z"
         id="path3555" />
    </g>
    <g
       id="Layer_31"
       data-name="Layer 31">
      <path
         class="cls-3"
         d="M248.92,177.17a9,9,0,0,1,3.47-4.74,18.71,18.71,0,0,1,5.28-2.61,57.19,57.19,0,0,1,11.21-2,37.92,37.92,0,0,1,11.4.46,24.76,24.76,0,0,1,10.3,4.62c-.08-.07-.45,0-.61-.08a25.57,25.57,0,0,0-10.42-3.4,40.69,40.69,0,0,0-11,.42c-1.81.29-3.61.73-5.4,1.18l-5.33,1.32c-3.43.94-6.84,2.23-8.84,5.46C249.11,177.73,248.91,177.36,248.92,177.17Z"
         id="path3558" />
      <path
         class="cls-3"
         d="M271.54,169a7,7,0,0,1,4.9,2.28,9.52,9.52,0,0,1,2.6,5,7.37,7.37,0,0,1-.07,3,6.4,6.4,0,0,1-1.43,2.74,8.69,8.69,0,0,1-5.15,2.53,14.91,14.91,0,0,1-5.41-.13,8.8,8.8,0,0,1-4.74-2.67,5.69,5.69,0,0,1-1.31-5.18,9.29,9.29,0,0,1,2.77-4.38c-.07.07,0,.43-.12.56a7.75,7.75,0,0,0-1.94,4.42,4.81,4.81,0,0,0,1.81,4.05,8.24,8.24,0,0,0,4.3,1.65,12.65,12.65,0,0,0,4.71-.35,5.64,5.64,0,0,0,3.45-2.35,5.85,5.85,0,0,0,.62-3.95,9.42,9.42,0,0,0-1.75-4.13,7.44,7.44,0,0,0-3.78-2.8C271.09,169.29,271.36,169,271.54,169Z"
         id="path3560" />
      <path
         class="cls-3"
         d="M258,185c2.21-.07,4.3,0,6.38.16s4.12.56,6.22.64a58.26,58.26,0,0,0,12.61-.81c-.07,0-.14.3-.24.34a44.19,44.19,0,0,1-12.68,2.44,25.05,25.05,0,0,1-6.53-.2,18.6,18.6,0,0,1-6.14-2.31C257.68,185.31,257.91,185,258,185Z"
         id="path3562" />
      <path
         class="cls-3"
         d="M254.16,175.2a13.31,13.31,0,0,1,.07,2.63c0,.77-.43,1.5-.49,2.31a11.26,11.26,0,0,0,0,2.46,9.49,9.49,0,0,0,.64,2.5s-.26.07-.29,0a8.27,8.27,0,0,1-1.57-2.31,9.62,9.62,0,0,1-.79-2.76,5.25,5.25,0,0,1,.1-2.94,4.74,4.74,0,0,1,.8-1.28c.19-.19.37-.37.56-.53s.48-.28.71-.4C253.89,174.92,254.13,175.13,254.16,175.2Z"
         id="path3564" />
      <path
         class="cls-3"
         d="M285.42,173.34a3.76,3.76,0,0,1,2.66,1.74,5.44,5.44,0,0,1,.66,3,7.92,7.92,0,0,1-.48,3,6.64,6.64,0,0,1-1.58,2.44s-.16-.22-.16-.26a6.94,6.94,0,0,0,.55-2.57,8.45,8.45,0,0,0-.29-2.47c-.23-.8-.76-1.42-.94-2.17-.11-.38-.24-.74-.33-1.18s-.25-.87-.4-1.41C285.1,173.55,285.35,173.35,285.42,173.34Z"
         id="path3566" />
      <path
         class="cls-3"
         d="M270,187.76a3.22,3.22,0,0,1,.41,1.32,5.46,5.46,0,0,1-.13,1.33,13.47,13.47,0,0,1-.61,2.6s-.08-.06-.08-.08c0-.88.06-1.76,0-2.62a8,8,0,0,1,0-1.29,4.94,4.94,0,0,1,.3-1.31S270,187.74,270,187.76Z"
         id="path3568" />
      <path
         class="cls-3"
         d="M264,187a2.67,2.67,0,0,1,.16,1.13,4.33,4.33,0,0,1-.26,1.06c-.18.71-.39,1.41-.62,2.11,0,0-.08-.05-.08-.07,0-.73,0-1.47.06-2.19a4.38,4.38,0,0,1,.1-1.09,3,3,0,0,1,.54-1S264,186.93,264,187Z"
         id="path3570" />
      <path
         class="cls-3"
         d="M259.34,185.89a2.77,2.77,0,0,1,0,1.14,4.83,4.83,0,0,1-.38,1c-.26.68-.56,1.35-.86,2,0,0-.08-.05-.08-.07.09-.73.19-1.45.32-2.17a4.16,4.16,0,0,1,.22-1.06,2.93,2.93,0,0,1,.65-.95S259.33,185.87,259.34,185.89Z"
         id="path3572" />
      <path
         class="cls-3"
         d="M353.68,176.55a10.34,10.34,0,0,0-4-3.39,24.87,24.87,0,0,0-5-1.76l-5.34-1.31a53.08,53.08,0,0,0-5.41-1.14,39,39,0,0,0-10.95-.27,25.25,25.25,0,0,0-10.37,3.62c.1-.05.17-.42.3-.54a25.15,25.15,0,0,1,10.41-4.39,38.92,38.92,0,0,1,11.4-.3c1.89.2,3.78.44,5.65.76a34.06,34.06,0,0,1,5.55,1.37,17.2,17.2,0,0,1,5.2,2.78,8.49,8.49,0,0,1,3.14,4.93C354.22,176.79,353.81,176.67,353.68,176.55Z"
         id="path3574" />
      <path
         class="cls-3"
         d="M331.53,168.58a7.75,7.75,0,0,0-3.57,3,9.51,9.51,0,0,0-1.54,4.18,5.49,5.49,0,0,0,.89,3.85,6.09,6.09,0,0,0,3.67,2.15,13.93,13.93,0,0,0,4.73.2,7.53,7.53,0,0,0,4.17-1.92,4.72,4.72,0,0,0,1.44-4.2,9,9,0,0,0-2.2-4.35c.06.08.41.08.53.19a8.13,8.13,0,0,1,2.52,4.53,5.79,5.79,0,0,1-1.78,5.06,9.47,9.47,0,0,1-4.89,2.36,14.53,14.53,0,0,1-5.42,0,8.13,8.13,0,0,1-5-2.9,6.92,6.92,0,0,1-1-5.83A9.62,9.62,0,0,1,327,170a6.63,6.63,0,0,1,5-1.86C331.87,168.14,331.67,168.5,331.53,168.58Z"
         id="path3576" />
      <path
         class="cls-3"
         d="M345.09,184.61a19,19,0,0,1-6.18,2.2,26.93,26.93,0,0,1-6.53.12,44.2,44.2,0,0,1-12.67-2.51c.06,0,.27-.2.37-.19a58.23,58.23,0,0,0,12.61.74c2.1-.11,4.14-.56,6.22-.64s4.17-.23,6.39-.12C345.23,184.17,345.17,184.52,345.09,184.61Z"
         id="path3578" />
      <path
         class="cls-3"
         d="M349.2,174.19a4,4,0,0,1,2,2.27,5.86,5.86,0,0,1,0,2.94,9.13,9.13,0,0,1-.82,2.75,8.43,8.43,0,0,1-1.6,2.28s-.17-.21-.16-.26a9.85,9.85,0,0,0,.61-2.49,11.25,11.25,0,0,0,0-2.46,20.22,20.22,0,0,1-.48-2.31,8.35,8.35,0,0,1,0-1.23l0-.68c0-.24.05-.5.07-.76C348.83,174.28,349.13,174.18,349.2,174.19Z"
         id="path3580" />
      <path
         class="cls-3"
         d="M317.85,172.85c-.27,1.05-.49,1.8-.72,2.55s-.74,1.36-.94,2.17a8.51,8.51,0,0,0-.26,2.48,7.23,7.23,0,0,0,.6,2.57s-.26.07-.3,0a6.86,6.86,0,0,1-1.53-2.48,8,8,0,0,1-.44-3,5.09,5.09,0,0,1,.74-3c.18-.21.35-.42.53-.61a6.24,6.24,0,0,1,.65-.5c.25-.13.49-.26.73-.36s.56-.12.83-.16C317.69,172.49,317.84,172.78,317.85,172.85Z"
         id="path3582" />
      <path
         class="cls-3"
         d="M333.13,187a4.88,4.88,0,0,1,.28,1.31,11.13,11.13,0,0,1-.05,1.29c0,.86,0,1.74.05,2.62,0,0-.09,0-.1-.05a12.77,12.77,0,0,1-.61-2.6,4.61,4.61,0,0,1-.11-1.33,3.55,3.55,0,0,1,.43-1.31S333.11,187,333.13,187Z"
         id="path3584" />
      <path
         class="cls-3"
         d="M339.16,186.13a2.82,2.82,0,0,1,.52,1,5.6,5.6,0,0,1,.08,1.09c.05.72.07,1.46.07,2.19,0,0-.09,0-.1,0-.23-.69-.45-1.4-.62-2.1a3.7,3.7,0,0,1-.25-1.07,2.87,2.87,0,0,1,.18-1.13S339.14,186.11,339.16,186.13Z"
         id="path3586" />
      <path
         class="cls-3"
         d="M343.79,185.05a2.81,2.81,0,0,1,.63.95,4.83,4.83,0,0,1,.21,1.07c.13.71.23,1.44.32,2.17,0,0-.1,0-.11,0-.3-.66-.6-1.33-.86-2a4.23,4.23,0,0,1-.37-1,3,3,0,0,1,.06-1.14S343.77,185,343.79,185.05Z"
         id="path3588" />
    </g>
    <path
       class="cls-4"
       d="M245.91,157.55c11.68-6.81,23.22-13.5,37.31-6.84a21.73,21.73,0,0,0,5,1.51c2,.42,4,.92,3.82,3.39s-2.4,3.26-4.28,3.2c-5.16-.15-10.3-.91-15.46-1.11-8-.32-15.7,1.4-23.37,3.37a14,14,0,0,1-2.6.17,14.42,14.42,0,0,1,.92-2.17c1.09-1.74-.69-.91-1.3-1.52"
       id="path3591" />
    <path
       class="cls-4"
       d="M357.07,157.55c-11.69-6.81-23.22-13.5-37.32-6.84a21.5,21.5,0,0,1-4.95,1.51c-2,.42-4,.92-3.82,3.39s2.39,3.26,4.27,3.2c5.17-.15,10.31-.91,15.47-1.11,8-.32,15.69,1.4,23.36,3.37a14.08,14.08,0,0,0,2.61.17,14.42,14.42,0,0,0-.92-2.17c-1.09-1.74.69-.91,1.3-1.52"
       id="path3593" />
  </g>
</svg>
