<?xml version="1.0" encoding="UTF-8" standalone="no"?>
<svg
   xmlns:dc="http://purl.org/dc/elements/1.1/"
   xmlns:cc="http://creativecommons.org/ns#"
   xmlns:rdf="http://www.w3.org/1999/02/22-rdf-syntax-ns#"
   xmlns:svg="http://www.w3.org/2000/svg"
   xmlns="http://www.w3.org/2000/svg"
   viewBox="0 0 569.88 1559.88"
   version="1.1"
   id="svg3734">
  <metadata
     id="metadata3738">
    <rdf:RDF>
      <cc:Work
         rdf:about="">
        <dc:format>image/svg+xml</dc:format>
        <dc:type
           rdf:resource="http://purl.org/dc/dcmitype/StillImage" />
        <dc:title></dc:title>
      </cc:Work>
    </rdf:RDF>
  </metadata>
  <defs
     id="defs3673">
    <style
       id="style3671">.cls-1{isolation:isolate;}.cls-2{fill:#f6d5b6;stroke:#d9c3b0;}.cls-2,.cls-3{stroke-miterlimit:10;}.cls-10,.cls-2,.cls-3,.cls-5,.cls-7,.cls-9{fill-rule:evenodd;}.cls-3{fill:#f5d6c0;stroke:#ffc88a;}.cls-4{mix-blend-mode:multiply;}.cls-5{fill:#f2eae4;}.cls-6{mix-blend-mode:lighten;}.cls-7{fill:#ffc88a;}.cls-8{fill:#241f1f;}.cls-9{fill:#010101;}</style>
  </defs>
  <g
     id="newdad_head_neutral"
     class="cls-1">
    <g
       id="newdad_head_neutral_skin">
      <path
         class="cls-2"
         d="M329.86,62.68h3.61a21.91,21.91,0,0,1,3.41.59,3.77,3.77,0,0,1,2,1.21,7.62,7.62,0,0,0,5.94,2.76,27.24,27.24,0,0,0,7.21-.43,4,4,0,0,1,.78,0c.54,0,.79.25.81.79a40.38,40.38,0,0,1-.19,4.79l-.3,3.4a2.8,2.8,0,0,0,.56,1.85,15.42,15.42,0,0,0,4.07,4.18,5.87,5.87,0,0,0,3,.82,21.47,21.47,0,0,0,5.71-.4,5.12,5.12,0,0,1,.78-.06.65.65,0,0,1,.71.69,3.43,3.43,0,0,1-.3,1.51c-.52,1.21-1,2.42-1.53,3.64a9.2,9.2,0,0,0-.52,1.77A2.41,2.41,0,0,0,367,92.57a9.89,9.89,0,0,0,3.93.93c.48,0,1,0,1.44,0a.68.68,0,0,1,.76.78,8.77,8.77,0,0,1-.79,2.61,6.72,6.72,0,0,0-.4,2.17c0,.53.15.81.76.77s1.4,0,2.09,0,.85.23.84.87a5.59,5.59,0,0,1-.39,2.1c-.26.61-.52,1.21-.77,1.82s-.23.91.42,1.32a3.36,3.36,0,0,0,1.82.51h2.52a.68.68,0,0,1,.77.77,10.38,10.38,0,0,1-.57,2.86,2.19,2.19,0,0,0,.26,1.82c.42.7.82,1.42,1.25,2.11s.56,1.25,1.32,1.52c.39.14.62.59.85,1a53.69,53.69,0,0,1,4.77,11.2c.4,1.25.75,2.52,1.15,3.78a5.86,5.86,0,0,1-.24,4.2,31.29,31.29,0,0,0-1.86,4.85,15,15,0,0,0,2.26,12,6.47,6.47,0,0,1,1.08,3.79,5.8,5.8,0,0,1-.82,2.78,1,1,0,0,1-1.4.53c-3.06-1.41-6.14-1-9.23-.11-.48.14-.95.31-1.43.44s-.85.2-1.13-.24a1.11,1.11,0,0,1,0-1.19c.6-1.07,1.24-2.13,1.78-3.25l.14-.25c.07,0,.11-.12,0-.15s-.13.08-.2.13l-.11.13a8.15,8.15,0,0,0-2.05,2.48c-.9,1.63-1.92,3.18-2.93,4.73a17.12,17.12,0,0,0-2.54,7.4c-.45,3.93-.51,7.89-.75,11.84-.09,1.39-.15,2.79-.25,4.18a2.07,2.07,0,0,1-2,1.95,20.49,20.49,0,0,1-4.42-.34,1.09,1.09,0,0,1-.92-1.15c.06-4.17-.25-8.34-.33-12.51a46.29,46.29,0,0,0-5.43-20.53c-.95-1.84-1.91-3.69-2.85-5.53a6.86,6.86,0,0,0-1.52-1.91,65.53,65.53,0,0,0-16.71-11.4,51.78,51.78,0,0,0-14.23-4,64.75,64.75,0,0,1-12.69-2.63,19,19,0,0,1-8.82-5.94,12.17,12.17,0,0,1-2.62-7.25,50,50,0,0,1,.54-7.82,26.69,26.69,0,0,0,.3-6.74,12.66,12.66,0,0,0-1-3.56c-.07-.16-.09-.44-.39-.31s-.21.31-.17.51a31.66,31.66,0,0,1,.08,10.55c-.14,1.17-.77,1.46-1.77.81a24.48,24.48,0,0,0-13.61-4.17c-9.41,0-16.86,3.9-21.87,12a89.77,89.77,0,0,0-4.93,10c-1.36,3-2.72,6-4.26,8.9a51.21,51.21,0,0,1-11.12,13.85,18.38,18.38,0,0,0-2,2.2,16.23,16.23,0,0,1-5,4.36c-1.88,1-3.77,2-5.65,3a4,4,0,0,1-1.66.47.83.83,0,0,1-.82-.37c0-.44,0-.88,0-1.32a40.39,40.39,0,0,0,3-17.14,55.35,55.35,0,0,0-1.83-11.44,13.23,13.23,0,0,1,1.2-10q1.45-2.61,2.71-5.33a8.92,8.92,0,0,0,.6-6.4c-.43-1.52-.83-3-1.28-4.55a9.77,9.77,0,0,1,.74-7.7,29.41,29.41,0,0,1,6.46-8,38.51,38.51,0,0,1,16.14-9,43.7,43.7,0,0,1,8.52-1.26,41.71,41.71,0,0,0,8.55-.95A20.35,20.35,0,0,0,274,72.67a41.48,41.48,0,0,1,6.25-3.39,7.84,7.84,0,0,1,8.87,1.3c3.65,3.24,7,6.75,10.52,10.15s6.68,6.55,10,9.83c.16.15.32.3.49.44a.67.67,0,0,0,1,0,.65.65,0,0,0,0-1c-.16-.2-.33-.4-.51-.59q-8-8.11-16-16.22a1.16,1.16,0,0,1-.33-1.13.89.89,0,0,1,.77-.58c8.68-1.89,17.15-4.54,25.69-7a44.64,44.64,0,0,1,9-1.85"
         id="path3675" />
      <path
         class="cls-3"
         d="M367.51,187.72a9.4,9.4,0,0,1-2.18-.24,1.88,1.88,0,0,1-.86-.42,2.8,2.8,0,0,1-1,.18h-.07a.45.45,0,0,1-.59-.4.51.51,0,0,1-.4-.47,14.61,14.61,0,0,1,.1-2.88.43.43,0,0,1-.28-.48c.07-.55.11-1.11.15-1.68a.54.54,0,0,1-.3-.58l0-.32a.45.45,0,0,1,0-.38c.05-.17.08-.34.13-.51a28.35,28.35,0,0,0,0-3.91c0-.24-.06-.49-.08-.73a.46.46,0,0,1-.12-.36c0-.17,0-.33,0-.5a42.85,42.85,0,0,0-.89-4.65.49.49,0,0,1,.17-.51c-.17-.84-.34-1.67-.52-2.49a.52.52,0,0,1,.27-.58c-.11-.42-.24-.84-.36-1.26a.52.52,0,0,1-.28-.42c-.05-.42-.12-.83-.19-1.24-.85-2.79-1.84-5.55-2.62-8.32a.61.61,0,0,1,0-.27l-.45-1.07a54.12,54.12,0,0,0-7.35-8.49.44.44,0,0,1-.13-.48l-.67-.58a64.79,64.79,0,0,0-9.33-6.53,47.1,47.1,0,0,0-10.49-4.4c-3.67-1-7.45-1.52-11.19-2.2a41.6,41.6,0,0,1-10.39-2.85c-3.67-1.73-6.92-4-9-7.55a14.83,14.83,0,0,1-1.89-9.55,2.81,2.81,0,0,0-1.1-2.88,22.21,22.21,0,0,0-9.09-3.76c-.81-.14-1.63-.25-2.45-.37h-4.68l-2.32.37a23.43,23.43,0,0,0-10.83,4.73,25.1,25.1,0,0,0-6.77,8.3c-1.93,3.72-3.49,7.61-5.15,11.46a61.59,61.59,0,0,1-7.71,13.28,49.91,49.91,0,0,1-5.28,5.88,57.2,57.2,0,0,1-4.53,3.85,1.14,1.14,0,0,0-.24,1.86,1.62,1.62,0,0,1,.28,1.05c0,1.94.11,3.88.15,5.82.06,2.46.24,4.91.22,7.36a2.57,2.57,0,0,1,.06,1.37c-.07-.55-.12-1-.18-1.38-.22-1.75-.45-3.51-.68-5.26,0-.29-.06-.57-.12-.85a4.59,4.59,0,0,0-5.3-3.51c-.27.05-.56.05-.85.08a3.6,3.6,0,0,0-2.14.74,4.14,4.14,0,0,1-1.83.43,14,14,0,0,0-10.5,8.09,13.62,13.62,0,0,0-1.23,6.07V176c0,2.87.27,5.71.49,8.57.19,2.44.46,4.87.74,7.3.39,3.4.88,6.79,1.49,10.16a20.55,20.55,0,0,0,3,8,11.92,11.92,0,0,0,7,5.17c1,.26,2.07.17,3.08.46a2.91,2.91,0,0,0,2.94-.78,17.32,17.32,0,0,0,3.42-4.38c1.75-3.26,2.26-6.83,2.67-10.44a18,18,0,0,1,.31-2.72c.14,1.38.35,2.65.4,3.93a36.86,36.86,0,0,0,.66,5.14,96.21,96.21,0,0,0,4.52,16.42,58.5,58.5,0,0,0,6.16,12.11,51.46,51.46,0,0,0,8,9.39,59.49,59.49,0,0,0,5.32,4.33A62.38,62.38,0,0,0,276,254.84a110.65,110.65,0,0,0,16.79,5.7,85.13,85.13,0,0,0,12.59,2.35,70.69,70.69,0,0,0,7.56.47c1.48,0,2.95,0,4.42-.09,1.85-.12,3.7-.27,5.54-.51a47.45,47.45,0,0,0,9-2.06,49.42,49.42,0,0,0,12.49-6.32,46.27,46.27,0,0,0,10.19-9.76,50.13,50.13,0,0,0,7.51-14.13A82.36,82.36,0,0,0,365.39,218c.37-2,.69-4.05,1-6.08.26-1.84.44-3.68.65-5.52s.42-3.68.59-5.52.2-3.55.4-5.31c.25-2.29.25-4.6.45-6.89.07-.77-.18-1-.95-1"
         id="path3677" />
      <path
         class="cls-3"
         d="M329.88,312.62c-.41-1.58-.9-3.13-1.29-4.7a.5.5,0,0,1,.05-.39c-.55-2.31-1-4.64-1.46-7s-.89-4.85-1.23-7.29c-.26-1.8-.55-3.61-.8-5.42s-.43-3.35-.63-5-.34-3.08-.51-4.63l-.57-5c-.14-1.24-.26-2.49-.4-3.74-.18-1.65-.4-3.31-.55-5-.08-1-.43-1.34-1.41-1.17a35.37,35.37,0,0,1-4.81.43c-2.21.06-4.43.09-6.65-.07-2.06-.14-4.11-.34-6.17-.61a100.77,100.77,0,0,1-10.64-2,106.11,106.11,0,0,1-11.32-3.42c-.74-.26-1.51-.18-1.47,1,.09,2.91,0,5.83.1,8.74.14,3.66-.07,7.31-.09,11,0,.79-.06,1.59-.08,2.38-.08,2.5-.21,5-.39,7.47-.14,1.84-.2,3.7-.39,5.54-.26,2.55-.46,5.1-.8,7.65-.29,2.2-.61,4.4-1,6.59a73.29,73.29,0,0,1-1.72,7.91c-.09.27,4.92,2.59,7.07,3.14a185.14,185.14,0,0,0,18.94,2.94,73.77,73.77,0,0,0,18.7-1.78c3.18-.62,9.43-1.41,11.22-2.67-.17-1.4-1.32-3.51-1.67-4.87"
         id="path3679" />
      <path
         class="cls-3"
         d="M390.83,175.43c0,1.74.06,3.48,0,5.22a52.1,52.1,0,0,1-2.61,15.41,27.82,27.82,0,0,1-5.6,9.53,21.76,21.76,0,0,1-10.41,6.7c-1.41.4-1.74.27-2.62-.9a14.36,14.36,0,0,1-2.14-5.71,24.82,24.82,0,0,1-.33-6.2c.08-2.12.3-4.24.44-6.37.1-1.47.18-2.94.26-4.41,0-.67.23-.92.9-.9a1,1,0,0,0,1.14-.88,53.85,53.85,0,0,0,1.47-7.84c.27-1.77.15-3.54.33-5.31a33.69,33.69,0,0,1,1.48-6.8c.16-.5.32-1,.44-1.49a2.31,2.31,0,0,1,1.64-1.81,47.1,47.1,0,0,1,5.32-1.59,11.38,11.38,0,0,1,6.76.31,5.23,5.23,0,0,1,3.29,4.25,69.71,69.71,0,0,1,.25,8.79"
         id="path3681" />
    </g>
    <g
       id="newdad_head_neutral_shading_dark"
       class="cls-4">
      <path
         class="cls-5"
         d="M271.92,113.63c.63,1.14,5.73,0,4.92,9.14-.34,3.86-4.08,6.67-11.19,13.41-2.84,2.68-13.29,15-17.76,18.42s-2.59,8.87-3.06,11.7.27,24.46,1.08,26.7,7.07,22.94,8.41,25.3,35.51,36.12,37.69,39.18-15.66.41-30-14.48c-2.45-2.55-10.36-13.41-11.54-16.23s-7.77-23.3-7.77-23.3-3.76-22.88-3.29-27.79.94-22.86.94-24,3.41-5.37,6.29-10,11.32-17.54,13.46-21.07S271.92,113.63,271.92,113.63Z"
         id="path3684" />
      <path
         class="cls-5"
         d="M284.94,259.61c4.93,1.41,22.07,3.33,24.21,5s-20.32,17.18-24.21,49.62c-.37,3.05-7.06,2.62-8.1,2.14-1.22-.55,3.25-54.19,3.21-56S284.94,259.61,284.94,259.61Z"
         id="path3686" />
      <path
         class="cls-5"
         d="M232.6,166.06c-6.26,2.5-11.3.67-12.47,2.8s-.12,10.42,0,13.61c.19,5.47,1.17,9.94,1.64,14.18s1.08,9.62,1.78,12.94-3.05-1.64-4.46-8.2c-.64-3-2-19.43-2-24.44s-1.87-9.7-.47-11.35,2.82-4.47,5.64-4.36,2.36-.58,6.59,0S235,165.12,232.6,166.06Z"
         id="path3688" />
      <path
         class="cls-5"
         d="M377.54,173.35a24.32,24.32,0,0,1-2.12,8.46s-2.59,12.25-2.12,15.78-.47,6.53.94,7.27.71,7.31-2.35,5.85-1.91-5.61-3.1-7.71,0-11.76,0-11.76,2.35-10,2.53-12.16a31.71,31.71,0,0,1,1.93-9.25c.87-2.59.09-5.55,2-6.16.12,0,.75,3.15.87,3.13C377.79,166.5,377.79,169.83,377.54,173.35Z"
         id="path3690" />
    </g>
    <g
       id="newdad_head_neutral_shading_light"
       class="cls-6">
      <path
         class="cls-7"
         d="M293.51,111.24c-5.85,1.41-11.95,4.43-11.26,8.1s5.35,13.37,11.26,15.34,19.74,2.88,26.23,5a134.89,134.89,0,0,0,15.39,4c6.17,1.41,19.24,15.06,19,10.89-.38-5.88-3.87-9.82-6.88-12.41s-13.05-9.92-19-9.73-15.61-.11-22.2-3-8.93-6.85-10.35-11.75C294.7,114.41,293.51,111.24,293.51,111.24Z"
         id="path3693" />
      <path
         class="cls-7"
         d="M356.79,186.71c-1.42,2.35-5.44,16.21-8.11,25.2-2.52,8.53-3.35,13.92-10.08,25.39-6.53,11.12-19.39,22-26.9,22.12s6.65,4.22,13.05,2.16,16.62-5.76,21.26-13.07,9.36-23,10.78-32.13c1.14-7.36,3-16.68,3.7-20S359,183.09,356.79,186.71Z"
         id="path3695" />
      <path
         class="cls-7"
         d="M317.81,269.44c1,9.41,2.75,31.92,2.75,31.92S323,318,323.23,318.81s4.33.57,5.73-.92-6.62-42.75-7.23-45.52a34.69,34.69,0,0,0-.79-4.15A1.74,1.74,0,0,0,317.81,269.44Z"
         id="path3697" />
      <path
         class="cls-7"
         d="M383.08,163.28a4,4,0,0,0-4.17,4.3v0c0,1.26,5,4.12,5,4.12L386.1,183l-3.62,17,2,3.31,4.21-14,1.59-15.19-2.16-10.39Z"
         id="path3699" />
    </g>
    <g
       id="newdad_head_neutral_outline">
      <path
         class="cls-8"
         d="M279.6,255.63c0-.34.23,0,.27.21.28,5,.2,10,0,14.94s-.79,9.91-1.21,14.86q-1.25,14.85-2.73,29.69c0,.34-.23,0-.23-.21q.46-14.91,1.16-29.8c.23-5,.26-9.94.75-14.88S278.66,260.55,279.6,255.63Z"
         id="path3702" />
      <path
         class="cls-8"
         d="M331.13,320.24c0,.33-.22,0-.31-.14-1.39-4.63-2.42-9.32-3.36-14s-1.44-9.49-2.15-14.23q-2.1-14.24-4-28.51c0-.33.23,0,.28.14q2.88,14.11,5.54,28.25c.88,4.72,2,9.4,2.6,14.15S331,315.41,331.13,320.24Z"
         id="path3704" />
      <path
         class="cls-8"
         d="M364.67,181.31c0-1.52.23,0,.32.84a145.32,145.32,0,0,1-1.29,33.13,96.31,96.31,0,0,1-4.11,16.17,72.66,72.66,0,0,1-7.24,15.12,40.3,40.3,0,0,1-11.74,12.17,37.64,37.64,0,0,1-16,5.41,80,80,0,0,1-16.74-.07,120.72,120.72,0,0,1-16.47-2.55,68.68,68.68,0,0,1-15.75-5.63,57.2,57.2,0,0,1-13.54-9.81A67,67,0,0,1,251.76,233a81.52,81.52,0,0,1-7.16-15c-3.77-10.46-5.51-21.51-6.21-32.53s-.39-22.09,0-33.11c0-1.52.23,0,.22.87-.17,11-.29,22.07.61,33.05S242,208.13,246,218.37A82.69,82.69,0,0,0,253.35,233a63.15,63.15,0,0,0,10.4,12.57,54.07,54.07,0,0,0,13.39,9.2,69.21,69.21,0,0,0,15.46,5.16,118.14,118.14,0,0,0,16.26,2.21,74.9,74.9,0,0,0,16.27-.34A34.66,34.66,0,0,0,340,256.28a40.09,40.09,0,0,0,10.89-11.67c5.76-9.18,9.32-19.72,11.35-30.46A169.94,169.94,0,0,0,364.67,181.31Z"
         id="path3706" />
      <path
         class="cls-8"
         d="M368.46,189.5c0,.76-.23,0-.3-.43a61.59,61.59,0,0,1,4.15-26.57,9.18,9.18,0,0,1,1.85-3.26,5.76,5.76,0,0,1,3.7-1.63,18.16,18.16,0,0,1,3.57.11,26.49,26.49,0,0,1,3.46.56,13.16,13.16,0,0,1,3.43,1.29,7.65,7.65,0,0,1,2.82,2.72,8,8,0,0,1,1,3.73c.05,1.22,0,2.32-.07,3.45a128.44,128.44,0,0,1-4.12,26.66c-1.19,4.32-2.9,8.78-6.21,12.12a14.86,14.86,0,0,1-5.91,3.61,10.79,10.79,0,0,1-6.92,0l-.3-.11,0-.3a226.57,226.57,0,0,1-1.06-26.94c0-.77.23,0,.25.43a237.41,237.41,0,0,0,1.79,26.4l-.33-.4a9.83,9.83,0,0,0,6.27-.17,13.68,13.68,0,0,0,5.36-3.47c3-3.16,4.52-7.41,5.59-11.68a118.56,118.56,0,0,0,3.47-26.44c0-2.25.16-4.44-.87-5.87s-2.92-2.32-5-2.79a28.91,28.91,0,0,0-3.18-.5,14.23,14.23,0,0,0-3.09-.11,3.33,3.33,0,0,0-2.26,1.05,9.16,9.16,0,0,0-1.43,2.63A72,72,0,0,0,368.46,189.5Z"
         id="path3708" />
      <path
         class="cls-8"
         d="M236.41,194.32c.08-.59.23,0,.27.35q0,3.22-.08,6.45c-.07,2.17-.07,4.26-.25,6.49a10.72,10.72,0,0,1-.83,3.39,7.16,7.16,0,0,1-2.34,2.84,9.09,9.09,0,0,1-7,1.36,11,11,0,0,1-6-3.78,16.3,16.3,0,0,1-3.11-6.12,34.78,34.78,0,0,1-1-6.56l-.4-6.45-.83-12.85-.39-6.43-.2-3.21a25.63,25.63,0,0,1-.09-3.31,5.41,5.41,0,0,1,.42-1.73,4.63,4.63,0,0,1,1-1.47,13.31,13.31,0,0,1,2.79-1.84,29.75,29.75,0,0,1,6-2.58,13.06,13.06,0,0,1,6.51-.31,8.83,8.83,0,0,1,5.42,3.43c.35.49-.18.13-.39-.12A8.82,8.82,0,0,0,230.5,159a13,13,0,0,0-6.2.68,31.24,31.24,0,0,0-5.7,2.77,9.54,9.54,0,0,0-2.44,1.82,3.87,3.87,0,0,0-.88,2.64c0,1,.15,2.08.23,3.15l.29,3.2.58,6.42,1.12,12.83c.43,4.27.57,8.61,1.84,12.48a14.49,14.49,0,0,0,2.88,5.15A8.66,8.66,0,0,0,227,213a6.93,6.93,0,0,0,5.3-1,5.2,5.2,0,0,0,1.72-2.07,10.77,10.77,0,0,0,.8-2.86C235.3,202.88,235.77,198.56,236.41,194.32Z"
         id="path3710" />
      <path
         class="cls-8"
         d="M303,96.05c-.13.93-.23,0-.24-.55a23.18,23.18,0,0,0-7.19-17.78,22.3,22.3,0,0,0-17.87-5.61,21.71,21.71,0,0,0-4.64,1.14,43.36,43.36,0,0,0-4.49,2c-1.49.75-3,1.54-4.63,2.21a25.3,25.3,0,0,1-5,1.54,101.33,101.33,0,0,1-10.17,1.08,25.18,25.18,0,0,0-9.41,2.34,19.49,19.49,0,0,0-10.25,15.5,20,20,0,0,0,.26,4.87,32.61,32.61,0,0,1,.56,5.13,9,9,0,0,1-1.5,5.13c-1,1.49-2.16,2.68-2.94,4.08a16.37,16.37,0,0,0-1.88,9.47,69.18,69.18,0,0,0,1.59,9.92,57.41,57.41,0,0,1,1.44,10.05,18.07,18.07,0,0,1-.57,5.07,12.48,12.48,0,0,1-2.27,4.55c-.56.74-.18-.14.12-.57a14.8,14.8,0,0,0,2.21-9.55,64.92,64.92,0,0,0-1.75-9.91,63.37,63.37,0,0,1-1.75-10,16.79,16.79,0,0,1,2.14-10c.93-1.51,2.1-2.74,2.88-4.13a8,8,0,0,0,.93-4.54,46.75,46.75,0,0,0-.7-4.93,20.66,20.66,0,0,1-.23-5.22A21.1,21.1,0,0,1,239,80.57,30.15,30.15,0,0,1,249.05,78a79.47,79.47,0,0,0,9.88-1.33c3.15-.69,6-2.26,9.05-3.79a38.84,38.84,0,0,1,4.79-2.07A22.64,22.64,0,0,1,278,69.79,23.43,23.43,0,0,1,297.09,77,23,23,0,0,1,303,96.05Z"
         id="path3712" />
      <path
         class="cls-8"
         d="M299.33,101.66c.27-.51.22.08.14.42a10.13,10.13,0,0,1-4.18,4.86,17,17,0,0,1-6.09,2.32c-4.29.78-8.56.44-12.56,1a29.48,29.48,0,0,0-11.28,4.05,26.44,26.44,0,0,0-8.64,8.39c-2.21,3.45-3.78,7.34-5.7,11.12a66.55,66.55,0,0,1-6.78,10.74,60.79,60.79,0,0,1-8.72,9.21A19.22,19.22,0,0,1,230,157a8.62,8.62,0,0,1-6.28,0c-.54-.2.09-.21.39-.12a8.53,8.53,0,0,0,6-.49,19.53,19.53,0,0,0,5.16-3.39,63.81,63.81,0,0,0,8.21-9.39,67.28,67.28,0,0,0,6.29-10.75c1.76-3.77,3.26-7.74,5.55-11.42a29.48,29.48,0,0,1,9.08-9.22,27.3,27.3,0,0,1,12.27-4.27c4.35-.39,8.53.16,12.57-.34a16.68,16.68,0,0,0,5.75-1.75A10,10,0,0,0,299.33,101.66Z"
         id="path3714" />
      <path
         class="cls-8"
         d="M370.12,181.58c.06-.39.1-.4.15-.24a1.58,1.58,0,0,1,.06.74,3.13,3.13,0,0,1-1.28,1.91,4.93,4.93,0,0,1-2.15.86,5.76,5.76,0,0,1-4.53-1,8.41,8.41,0,0,1-2.51-4,21.29,21.29,0,0,1-.79-4.48,67.2,67.2,0,0,0-3-17,45.77,45.77,0,0,0-8-15,34.4,34.4,0,0,0-13.54-10.11c-5.27-2.23-11.14-2.27-17-2.61a46.84,46.84,0,0,1-8.83-1.19,21,21,0,0,1-4.24-1.57,15.29,15.29,0,0,1-3.66-2.72,14.27,14.27,0,0,1-2.67-3.68,18,18,0,0,1-1.43-4.27,35.7,35.7,0,0,1-.39-8.87c.17-2.93.49-5.84.65-8.76,0-.72.08-1.46.07-2.18a2.9,2.9,0,0,0-.55-1.93,1.31,1.31,0,0,0-1.74-.22c-.55.41.17,1.35.73,1.18.25-.14.28-.21.24,0a.43.43,0,0,1-.25.25.7.7,0,0,1-.43,0,1.23,1.23,0,0,1-.77-.91,1,1,0,0,1,.7-1,1.78,1.78,0,0,1,2.08.86,4.63,4.63,0,0,1,.43,2.23c0,.74,0,1.48,0,2.21-.1,2.94-.35,5.86-.42,8.77a31.68,31.68,0,0,0,.7,8.61,14,14,0,0,0,4.19,7.22,15.86,15.86,0,0,0,7.55,3.6,50,50,0,0,0,8.6.89c2.92.11,5.86.16,8.83.47a37.69,37.69,0,0,1,4.44.73,32.13,32.13,0,0,1,4.3,1.38,34.9,34.9,0,0,1,7.87,4.39,37.6,37.6,0,0,1,6.58,6.15,39.24,39.24,0,0,1,5,7.5,46.12,46.12,0,0,1,3.32,8.35,63.28,63.28,0,0,1,2.34,17.6,17.11,17.11,0,0,0,.59,4.15,8.14,8.14,0,0,0,.79,1.87,5,5,0,0,0,1.28,1.49,5.21,5.21,0,0,0,3.84.84A3.2,3.2,0,0,0,370.12,181.58Z"
         id="path3716" />
      <path
         class="cls-8"
         d="M381.3,108.81c0-.32.23,0,.3.17a69.81,69.81,0,0,0,3.54,13.43c.81,2.14,1.71,4.25,2.72,6.31.49,1.05,1,2,1.61,3.09a9.45,9.45,0,0,1,.76,1.8,5.84,5.84,0,0,1,.23,2.08,8.71,8.71,0,0,1-1.26,3.66c-.6,1.08-1.28,2-1.88,3a8.41,8.41,0,0,0-1.27,3,3.74,3.74,0,0,0,.72,2.86c.64.87,1.53,1.73,2.24,2.71a11.26,11.26,0,0,1,1.71,3.21,6.54,6.54,0,0,1,.16,3.64,4.83,4.83,0,0,1-2,3c-.27.18-.12-.19,0-.3a4.69,4.69,0,0,0,1.54-2.94,6.14,6.14,0,0,0-.45-3.28,10.74,10.74,0,0,0-1.83-2.85c-.72-.88-1.61-1.6-2.4-2.62a5,5,0,0,1-1-3.77,10.24,10.24,0,0,1,1.36-3.51c.58-1.05,1.21-2,1.7-3a6.41,6.41,0,0,0,.84-3,5.17,5.17,0,0,0-1-2.79c-.61-1-1.28-2-1.85-3.05a34.89,34.89,0,0,1-2.85-6.62A36.33,36.33,0,0,1,381.3,108.81Z"
         id="path3718" />
      <path
         class="cls-8"
         d="M378.56,107.73c.76-.11.05.23-.37.37l-3,.75-.36.09,0-.41a14.36,14.36,0,0,0-3.61-9l-.25-.28.12-.4,1.32-4.53,1.36.93a4.49,4.49,0,0,1-3,1.08,6.18,6.18,0,0,1-3-.85,7.21,7.21,0,0,1-3.56-4.76A11.27,11.27,0,0,1,364.7,85a30.75,30.75,0,0,1,2.23-5l1.74,1.51a12,12,0,0,1-7.84,2.26,11.33,11.33,0,0,1-7.47-3.26,10.82,10.82,0,0,1-3-7.53,10.18,10.18,0,0,1,3-7.47l1.24,1.27a13.45,13.45,0,0,1-7.7,3.53,23.34,23.34,0,0,1-8.3-.5c-5.35-1.24-10.26-3.56-15.53-4.17A43.07,43.07,0,0,0,307.28,67,130.31,130.31,0,0,0,292,72.19c-.71.28-.09-.21.31-.39a119.34,119.34,0,0,1,15.08-5.55,43.36,43.36,0,0,1,16-1.64c5.46.55,10.47,2.79,15.6,3.83a21.67,21.67,0,0,0,7.69.29,11.73,11.73,0,0,0,6.64-3.16l1.24,1.27A8.29,8.29,0,0,0,352.31,73a8.76,8.76,0,0,0,2.55,6A9.29,9.29,0,0,0,361,81.5a10,10,0,0,0,6.32-1.84l4.22-3.1L369,81.17a33,33,0,0,0-2.14,4.57,9.37,9.37,0,0,0-.55,4.61,5.29,5.29,0,0,0,2.44,3.47,3.35,3.35,0,0,0,3.87.14L375,92.05l-1,2.83-1.58,4.44-.14-.68a14.7,14.7,0,0,1,3.15,9.9l-.38-.31Z"
         id="path3720" />
      <path
         class="cls-9"
         d="M320,204.86a12.65,12.65,0,0,1,.35,1.71,14.82,14.82,0,0,1,.13,4.14,6,6,0,0,1-4.31,4.83,2.61,2.61,0,0,1-2.62-.57,2.9,2.9,0,0,0-3.66-.12,6.72,6.72,0,0,1-4.89,1.71c-1.37-.1-2.77,0-4.12-.26a4.46,4.46,0,0,1-1.9-1.17,3.14,3.14,0,0,0-4.34.05,1.9,1.9,0,0,1-1.33.51,5.2,5.2,0,0,1-3.87-2,8.11,8.11,0,0,1-1.35-7.37c.13-.48.24-1,.35-1.47h.28a5.11,5.11,0,0,1,.13,1.76c-.74,2.29.75,3.57,2.09,4.93a4.81,4.81,0,0,0,.57.44,3,3,0,0,0,3.16.49,10.74,10.74,0,0,1,3.16-.46,3.88,3.88,0,0,1,2.92,1.18c.56.52,1.12,1,1.7,1.52a2.27,2.27,0,0,0,2.57.39,5.61,5.61,0,0,0,2-1.22c1.71-2,3.88-2.16,6.23-1.71.56.11,1.08.39,1.63.55a1.1,1.1,0,0,0,.67,0,8.78,8.78,0,0,0,4.18-3.89c.25-.4,0-1.12,0-1.69,0-.76,0-1.52,0-2.28Z"
         id="path3722" />
      <path
         class="cls-10"
         d="M321.1,109.13a3.6,3.6,0,0,1,.13-.73,112.44,112.44,0,0,1,9.37-13.84c2.69-3.55,5.3-7.16,8-10.69a8.21,8.21,0,0,1,2-1.58,1.1,1.1,0,0,1,1,0,1,1,0,0,1,.18.87,6.17,6.17,0,0,1-.75,2c-5,7.07-9.86,14.19-15.87,20.45-1.18,1.22-2.57,2.25-4,3.52"
         id="path3724" />
      <path
         class="cls-10"
         d="M342.49,125c2-2.66,3.76-5.46,5.93-7.94,3.17-3.61,6.6-7,9.94-10.45a4.09,4.09,0,0,1,1.17-.81,8.64,8.64,0,0,1,1.36-.44,4.71,4.71,0,0,1,0,1.45,4.55,4.55,0,0,1-.9,1.89q-6.48,6.82-13.05,13.55a36.44,36.44,0,0,1-3.43,2.87c-.21.16-.57.13-.86.19l-.17-.31"
         id="path3726" />
      <path
         class="cls-10"
         d="M330.55,117.53c5.62-9,12.46-16.59,19.13-24.35l.47.27a13.51,13.51,0,0,1-1.31,3.22c-4.39,5.92-8.6,12-13.91,17.19-1.29,1.25-2.76,2.32-4.38,3.67"
         id="path3728" />
      <path
         class="cls-10"
         d="M368.79,120.9a7.33,7.33,0,0,1-1,2c-3.15,3.33-6.13,6.86-10.1,9.33-.52.32-.84,1-1.37,1.26a3.49,3.49,0,0,1-1.4.15,3.33,3.33,0,0,1,.42-1.11c1.4-1.54,2.94-3,4.28-4.56,2.16-2.55,4.18-5.22,6.32-7.79a2.63,2.63,0,0,1,1.59-.85c1-.13,1,.72,1.26,1.55"
         id="path3730" />
    </g>
  </g>
</svg>
