<?xml version="1.0" encoding="UTF-8" standalone="no"?>
<svg
   xmlns:dc="http://purl.org/dc/elements/1.1/"
   xmlns:cc="http://creativecommons.org/ns#"
   xmlns:rdf="http://www.w3.org/1999/02/22-rdf-syntax-ns#"
   xmlns:svg="http://www.w3.org/2000/svg"
   xmlns="http://www.w3.org/2000/svg"
   id="newdad_eyes_neutral"
   viewBox="0 0 570 1560"
   version="1.1">
  <metadata
     id="metadata951">
    <rdf:RDF>
      <cc:Work
         rdf:about="">
        <dc:format>image/svg+xml</dc:format>
        <dc:type
           rdf:resource="http://purl.org/dc/dcmitype/StillImage" />
        <dc:title></dc:title>
      </cc:Work>
    </rdf:RDF>
  </metadata>
  <defs
     id="defs949" />
  <g
     id="_Group_Image"
     data-name="&lt;Group&gt; Image">
    <path
       d="M272.61,150.24a25.71,25.71,0,0,1,8.12,2.35,27.55,27.55,0,0,0,7.19,2.35,3,3,0,0,1,2.43,2.57,2.51,2.51,0,0,1-1.43,2.54,7.26,7.26,0,0,1-5.29,1.06c-4.11-.58-8.24-1-12.37-1.45a48.75,48.75,0,0,0-9.73.44,91.69,91.69,0,0,0-13.16,2.49,14.9,14.9,0,0,1-2,.23c-.55.05-.65-.19-.41-.64.37-.7.75-1.4,1.13-2.1.09-.17.16-.35.27-.57l-1.71-.18v-.12a31,31,0,0,1,3.19-2.07q5.1-2.5,10.29-4.83a20.45,20.45,0,0,1,8.41-1.85c1.46,0,2.91-.14,4.36-.22Z"
       id="path933" />
    <path
       d="M359.11,159.83l-1.68.15c.51.91,1,1.77,1.47,2.63.29.53.14.79-.44.68-1.84-.36-3.66-.74-5.49-1.14a74.87,74.87,0,0,0-17.5-2.05c-3,.06-6,.54-8.94.85-2.22.23-4.44.54-6.66.74a6.08,6.08,0,0,1-5.11-2.29,1.66,1.66,0,0,1-.28-1.33,3.11,3.11,0,0,1,2.4-2.63,38.11,38.11,0,0,0,8.2-2.78,20.41,20.41,0,0,1,8-1.95c5.7,0,11.19.85,16.28,3.65,1.95,1.07,4.08,1.82,6.06,2.83,1.34.68,2.57,1.56,3.84,2.36Z"
       id="path935" />
    <path
       d="M259.78,168.81l-5.46,1.32-.12,0c-1.78.29-3.34.85-3.49,3-1.33-.46-1.43-.8-.74-2a11.64,11.64,0,0,1,9.08-5.61,57.11,57.11,0,0,1,12.17-.75,75.6,75.6,0,0,1,14.16,2.6c1.79.51,3,1.94,4.2,3.27a11.91,11.91,0,0,1,3,7c.05.47-.1.72-.55.82a5.88,5.88,0,0,1-3.35-.25c.48-.45.9-.86,1.34-1.25a1,1,0,0,0,.32-1.27c-.28-.68-.51-1.38-.84-2a4.67,4.67,0,0,0-2.4-2.31c-1.33-.57-2.64-1.22-4-1.82l-.65-.27c-.2,1.18-.41,2.29-.56,3.41-.62,4.6-5.22,7.95-8.89,8.34a19.14,19.14,0,0,1-5.9-.06,8.34,8.34,0,0,1-4.59-2.65,17.28,17.28,0,0,1-2-2.63,5.43,5.43,0,0,1-.6-2.14C259.89,172.07,259.86,170.51,259.78,168.81Zm9.75.06c-1.5-.19-2.12.4-1.88,2.59a4,4,0,0,0,2.08,2.78,2.73,2.73,0,0,0,3.09-.09,2.36,2.36,0,0,0,1.22-2.57,11.12,11.12,0,0,0-.42-1.92,1,1,0,0,0-.73-.54C271.85,169,270.79,169,269.53,168.87Zm11.24,3.25a4.28,4.28,0,0,0-1.22-2.45,2.07,2.07,0,0,0-3.41,1.23,3.34,3.34,0,0,0,1.77,3.13A2.08,2.08,0,0,0,280.77,172.12Z"
       id="path937" />
    <path
       d="M354.34,173.66c-.09-.12-.14-.17-.15-.22a3.71,3.71,0,0,0-2.93-2.81c-1.65-.51-3.3-1-5-1.53a6.79,6.79,0,0,0-1.17-.12c-.08,1.7-.2,3.33-.22,5a4.67,4.67,0,0,1-.91,2.71c-1.7,2.51-3.77,4.54-6.92,5-4.61.64-8.81-.15-12-3.87a11.49,11.49,0,0,1-2.53-7.25c0-.37,0-.75,0-1.13-3.51.39-7.21,3.55-8,6.87a1.89,1.89,0,0,0,.3,1.24,11.59,11.59,0,0,0,1.19,1.36,5,5,0,0,1-3.46.06c-.16-.05-.3-.46-.28-.68.43-5.3,4.85-10.19,9.49-10.94,3.13-.51,6.24-1.18,9.36-1.72a36.19,36.19,0,0,1,11.75.06,49.8,49.8,0,0,1,5.58,1,10.55,10.55,0,0,1,5.9,4.25,7,7,0,0,1,.9,1.81C355.5,173.46,354.71,173.36,354.34,173.66Zm-20.22-4.29v.15a14.38,14.38,0,0,0-2,0,1.29,1.29,0,0,0-.89.6,8,8,0,0,0-.42,2.22A2.57,2.57,0,0,0,333,175a3.21,3.21,0,0,0,3.38-1.26,3.43,3.43,0,0,0,.69-3.68,1.56,1.56,0,0,0-1-.69A9.49,9.49,0,0,0,334.12,169.37Zm10.32,3.69c.11-1.51-1.62-2.41-2.79-2.48a2,2,0,0,0-2.08,2,2.58,2.58,0,0,0,2.73,2.5A2.1,2.1,0,0,0,344.44,173.06Z"
       id="path939" />
    <path
       d="M289.88,180.83c-4.45,3.66-9.83,3.32-15.19,3.44v3.15l-.3.07c-1.66.12-1.71.06-2-1.56-.38-2-.07-1.76-2.15-1.85-.94,0-1.88-.05-2.82-.12-.42,0-.55.13-.56.53,0,.6-.11,1.19-.17,1.79s-.62.56-1.08.58-.51-.32-.53-.67c0-.64-.1-1.27-.11-1.91a.84.84,0,0,0-.76-.9q-2.46-.62-4.91-1.29c-.43-.11-.59,0-.72.41a5.83,5.83,0,0,1-.67,1.58,1.15,1.15,0,0,1-.92.42c-.24,0-.55-.45-.59-.73-.08-.63.07-1.28,0-1.91a1.57,1.57,0,0,0-.59-1c-1-.63-2.05-1.15-3.11-1.72-.33.58-.63,1.12-1,1.64a1.66,1.66,0,0,1-.59.64,3,3,0,0,1-1,.16,3.79,3.79,0,0,1-.07-.82c.19-1.53.54-3-.07-4.59a2,2,0,0,1,.63-2.13,3.29,3.29,0,0,1,.43.83,6,6,0,0,0,2.46,3.49,20.25,20.25,0,0,0,6.92,3.29c3.47,1,6.92,2,10.57,1.85,3.81-.13,7.61-.36,11.42-.59a4,4,0,0,0,2.83-1.28,2.84,2.84,0,0,1,2-1c.86-.07,1.74-.09,2.61-.14Z"
       id="path941" />
    <path
       d="M330.06,184.89c-2.35-.19-4.67-.37-7-.57a13.39,13.39,0,0,1-8.34-3.08,3.74,3.74,0,0,1,.94-.23c1,.1,2,.26,3,.41a.82.82,0,0,1,.48.21,4.81,4.81,0,0,0,4,1.82c4.43.18,8.87.55,13.28.33,2.86-.15,5.68-1.16,8.51-1.82a18.81,18.81,0,0,0,6.83-3.47,4.73,4.73,0,0,0,1.74-2.43c.16-.53.42-1,.64-1.55a2.1,2.1,0,0,1,.38,2.88,1.61,1.61,0,0,0-.2,1.66,21.39,21.39,0,0,1,.59,2.61.48.48,0,0,1-.26.38,1,1,0,0,1-1.33-.48l-1.14-2c-1.17.64-2.31,1.24-3.42,1.89a.91.91,0,0,0-.29.66c0,.66.06,1.33,0,2a1.25,1.25,0,0,1-.63.87c-.22.07-.72-.22-.88-.48a17,17,0,0,1-.9-2l-2.47.65c-1,.26-2,.53-3,.76a.73.73,0,0,0-.67.82c0,.66-.06,1.31-.08,2s-.29.72-.81.72-.7-.14-.74-.68c-.19-2.32-.21-2.31-2.51-2.17-.73,0-1.48.07-2.21.05s-.82.24-.89.79-.21,1.26-.33,1.88c-.16.84-.82.73-1.41.74s-.87-.32-.87-.89C330.05,186.35,330.06,185.59,330.06,184.89Z"
       id="path943" />
  </g>
</svg>
