<?xml version="1.0" encoding="UTF-8" standalone="no"?>
<svg
   xmlns:dc="http://purl.org/dc/elements/1.1/"
   xmlns:cc="http://creativecommons.org/ns#"
   xmlns:rdf="http://www.w3.org/1999/02/22-rdf-syntax-ns#"
   xmlns:svg="http://www.w3.org/2000/svg"
   xmlns="http://www.w3.org/2000/svg"
   viewBox="0 0 569.88 1559.88"
   version="1.1"
   id="svg4499">
  <metadata
     id="metadata4503">
    <rdf:RDF>
      <cc:Work
         rdf:about="">
        <dc:format>image/svg+xml</dc:format>
        <dc:type
           rdf:resource="http://purl.org/dc/dcmitype/StillImage" />
        <dc:title></dc:title>
      </cc:Work>
    </rdf:RDF>
  </metadata>
  <defs
     id="defs4325">
    <style
       id="style4323">.cls-1{isolation:isolate;}.cls-2{fill:#718d8e;}.cls-11,.cls-12,.cls-13,.cls-2,.cls-3,.cls-4,.cls-8,.cls-9{fill-rule:evenodd;}.cls-3{fill:#d6a390;}.cls-4{fill:#005159;}.cls-5,.cls-9{fill:#c1472b;}.cls-6{fill:#d7d7ce;}.cls-7{opacity:0.21;mix-blend-mode:multiply;}.cls-8{fill:#642d0f;}.cls-10{opacity:0.42;mix-blend-mode:overlay;}.cls-11,.cls-13{fill:#f6d5b6;stroke-miterlimit:10;}.cls-11{stroke:#254b52;}.cls-12{fill:#e9ae8c;}.cls-13{stroke:#ffc88a;}.cls-14{fill:#010101;}.cls-15{fill:#212121;}</style>
  </defs>
  <g
     id="newdad_torso_armsbehind"
     class="cls-1">
    <g
       id="newdad_torso_armsbehind_colour">
      <path
         class="cls-2"
         d="M131.8,1518.46c.21-.1.56-.16.61-.32,2.24-6.63,6.76-11.83,10.88-17.25,13.76-18.11,19.58-38.82,20.16-61.25a52,52,0,0,0-.42-5.84c-.12-1.3.22-1.56,1.5-1,10.6,4.42,20.78,2.9,30.68-2.29,1.42-.75,4.33-2.64,5.33-1.87,1.15.9,0,3.87-.58,5.16a25.57,25.57,0,0,0-2.29,16c1.39,9.54,5,18.25,8.69,27,1.17,2.79,1.4,6,1.88,9a74.3,74.3,0,0,1,.95,18.72c-.85,8.73-5.37,15-13,19-5.59,3-11.71,3.84-17.91,4.2-10.69.6-21.27-.87-31.9-1.59-5.43-.36-10.3-1.82-14.54-5.27Z"
         id="path4327" />
      <path
         class="cls-2"
         d="M520.45,1532.46c0,1.19,0,4.44,0,5.63-1.19,2-4.94,1.72-6.83,2a142.89,142.89,0,0,1-20.77,1.64c-4.32,0-8.66-.39-13-.08-19,1.33-28-.51-40.22-4.57-6.75-2.24-9.94-7-13.93-13.13-1.5-2.29-3.28-4.41-5-6.57a12.13,12.13,0,0,1-2.19-10.85,20.57,20.57,0,0,1,1.47-4.76c5.84-11.41,6.75-23.69,6.93-36.21.13-8.66-.26-17.33.6-26,.21-2.16.9-2.54,3-2.12,9.32,1.87,18.66,2.57,27.92-.37,2.15-.68,2.61.1,2.81,2.2.87,9.19,2,18.35,3,27.52.13,1.16.27,1.87,1.56.75s1.32.4,1.64,1a41.33,41.33,0,0,1,4.43,13.2c1.5,7.84,4.38,15,9.55,21.16a15.83,15.83,0,0,0,3.26,3.07c7.75,5.19,17.46,7.73,25.14,13,4.69,3.24,7.25,3.65,9.28,9.26"
         id="path4329" />
      <path
         class="cls-3"
         d="M165.49,867.83c-1.87,7.18-4.87,32.26-5.31,38.39-1.09,15.15-2.45,30.27-3.64,45.41-.9,11.39-1.71,22.79-2.55,34.19q-1.86,25.33-3.69,50.69c-.88,12.35-1.69,24.72-2.54,37.07q-1.84,27-3.7,54.06c-.71,10.45-1.24,20.91-2.15,31.34a274.62,274.62,0,0,0-.06,43.59c.94,13,2.11,26,3.17,39,.9,11.06,1.35,22.18,3,33.17q7.31,48.35,12.39,97a254.69,254.69,0,0,1,.58,42.16,4.28,4.28,0,0,0,1.49,3.84,17.78,17.78,0,0,0,4.69,2.83,24,24,0,0,0,14.83.81c6-1.4,11.93-3,16.37-7.84,1.66-1.81,1.45-3.3,0-5a19,19,0,0,1-4.47-11.15c-.72-15.33.46-31.18,0-46.52-.42-13.91-1.33-27.74-1.48-41.65-.28-26.39-.31-51.25.43-77.65.58-20.38,1.83-41.72,3.27-62.06,1.56-22.08,4-43.54,6.8-65.5,3.69-28.64,9.51-56.51,15.84-84.67,8.25-36.74,17.92-71.5,32.87-106.11,2.56-5.94,6.37-12.81,8.73-18.83,2.15-5.49,6.22-7.44,9.09-12.49,2.73-4.8,4.38-6.29,8.3-2.87,17.37,15.17,29.3,33.17,41.19,52.92,13.89,23.07,25.73,46.67,34.35,72.09,6.85,20.22,14.83,37.92,20.65,58.45,6.34,22.37,13.34,44.56,19,67.11a694.55,694.55,0,0,1,14.14,73.64c2.5,17.89,4.76,35.8,6.47,53.78,1.35,14.24,2.48,28.5,3.59,42.76,1.32,17,2.48,34.11,3.76,51.16.86,11.4,1.92,22.78,2.65,34.18.43,6.52,1.8,13,1,19.59a99.61,99.61,0,0,0-.3,12.46c.05,6.06,3.28,9.59,8.76,11.43a22,22,0,0,0,4.9,1.11c6.16.6,12.06-.6,17.91-2.39,1.55-.48,3.31-2.17,3.28-3.29-.24-8.47-.76-15.93-.93-24.4-.35-18.07-.26-36.35-.47-54.42-.3-27.11-.93-54.09.9-81.15.69-10.21,1.48-19.84,2.44-30a278.33,278.33,0,0,0,.16-45.56c-.45-6.27-.26-12.62-1.81-18.8-6.68-26.57-13.5-53.11-20-79.74-9.59-39.37-14.23-79.93-21.47-119.79-2.06-11.32-4.7-21-7.78-33.52C397.89,886.4,387.67,851,383.94,842.4c-9-20.68-18-40.9-21.55-63.23-.31-2-.93-2.58-2.89-1.71-8.09,3.6-16.7,4.67-25.45,5.21-8.55.52-17.1.13-25.65.29-3.19.07-6.38-.21-9.55.51-1.38.32-3.1.53-4.24-.24-2.31-1.58-4.86-1.33-7.35-1.62-6-.71-12.25-.4-17.87-3-6.07-2.86-12.61-4.37-18.69-7.32-7.59-3.69-15.71-6.28-23.53-9.52a67.23,67.23,0,0,0-29.51-5.09c-1.09.06-2.47-.21-3,1.05-2.49,6.17-10.4,40.89-13.38,53.31C180.24,815.41,166.32,864.62,165.49,867.83Z"
         id="path4331" />
      <path
         class="cls-4"
         d="M238.67,421.44c.7,6.9,1.64,13.51,1.44,20.39-.47,15.5-1.06,26.52-2.23,42-1.88,24.87-4.66,49.66-7.9,74.39-3.49,26.55-7.53,53-11.4,79.51-1.21,8.29-3.26,16.5-2.66,25a6.14,6.14,0,0,1-1.21,4.07c-4.11,5.55-3.9,11.4-1.5,17.52,2.5,6.36,1.64,8.88-4.25,12.25a4.8,4.8,0,0,0-2.62,4.22,22.18,22.18,0,0,0,.31,4.53,9.33,9.33,0,0,1-2.3,7.78c-2.29,2.64-5,5-6.62,8.18-.88,1.77-2.89,3.69-1.26,5.65s4.84,4,7.19,3.57c.15,0,4,0,4.11,0,3.65-1,4.45-2.07,8.23-2.05,13.55.09,27.07,4.15,39.37,9.45A253.06,253.06,0,0,0,295.42,751c15.11,3.67,30,5.5,45.36,7.7,8.77,1.25,16.91-.9,24.53-5.26,4-2.23,4.15-5.49,1.23-9a16.7,16.7,0,0,0-4.32-3.76c-4.77-2.88-4.77-2.88-2.72-8.1a8.6,8.6,0,0,0,.64-1.55c1.33-6.51,2.4-11.84-2.28-17.27a4.3,4.3,0,0,1-.6-3c.17-3.28.69-9.61.72-12.89.19-19.19,0-34.63.32-53.82.16-10.71-.51-21.45.86-32.08,4.38-33.92,4-61.54,5.71-91.8,1.6-28.1,1.34-56.15,3.34-84.23.64-9,1.49-15.08,2-24.1,0-.68-.88-1.76,0-1.92,1.09-.19.28-2.18.55-1.5a3.21,3.21,0,0,1,.09,1.42c-.88,10.24.06,20.47.35,30.69.59,20.31.91,40.62.48,60.94-.43,20.71-.89,41.42-1.25,62.13a41.08,41.08,0,0,1-1,9.26,136.13,136.13,0,0,0-3.05,15.76c-.23,1.75-1.09,10-.21,11.73,1.73,3.3,4.89-1,9.47-2.91,8.22-3.44,16-3.2,23.37,1a23.66,23.66,0,0,0,5.24,2.33c1.57.45,3,2,5.12,1.15,7.27-2.93,2.29-17.24,1.4-26.22-1-10.43-1.27-22.9-1.79-33.38-1.24-25.24-1.7-49.69-2.3-75-.29-11.82-1.21-24.19-2-36-1.2-18.66-3.59-34.47-6.56-52.8-1.41-8.71-2.91-17.53-4.16-23.16-1.11-5-.18-6.87-3.72-10.7-.61-.66-8.44-3.83-12.15-4.46-11.2-1.91-17.65-4.17-30.57-8.2a3.9,3.9,0,0,0-4.1,1.05c-7.09,6.23-14.26,12.37-21.38,18.56a22.38,22.38,0,0,1-4.74,3.47c-1.45.79-2.17.6-2.33-1.35-.59-7-3.72-13.54-5.39-20.26-.17-.66-1.65-.69-2.38-.75-1-.09-1,1.09-1.31,1.75-2.56,5.6-5.06,11.22-7.6,16.83-1.37,3-2.22,3.42-5.4,2.54a13.52,13.52,0,0,1-1.57-.58c-10.7-4.44-20-10.21-30.83-14.35a5.36,5.36,0,0,1-3.29-5.58c.45-2.89-2.25-.81-3.92-.49-3.6.71-7.21,1.42-10.78,2.3-10.82,2.66-21.4,6-30.94,12a28.35,28.35,0,0,0-11.65,13.91,50.34,50.34,0,0,0-3.11,11.55c-1.81,13.07-3.14,26.19-4.48,39.32-2.06,20.2-4.05,40.4-6.1,60.6-1.66,16.23-3.46,32.44-5,48.67-1.07,11.13-2.09,21.55-1.53,32.81.11,2.31-1.1,5.26-1.19,7.57a10.5,10.5,0,0,1-2.36,6.87,9.75,9.75,0,0,0-2.31,6.66c0,1.45-.05,3.3,1.5,3.73s3.26,1.27,4,0c.9-1.57,2.22-3.5,3.8-3.36,4.64.41,9.18.44,13.81.51,4.19.06,8.05,1.86,11.49,4.27,2.09,1.46,3.52,1.63,3.32,4.41-.14,2,1.5,4.89,3.25,3.75s3.42-3.61,3.11-5.51c-.61-3.77-1.56-7.81-2-11.6s.32-12.62.26-12.06c.49-4.34.74-8.72,1.48-13,4.69-27,9.52-50.05,8.44-65.48-1.32-18.88.44-26.26,6.83-44.51,1.7-4.84,2.43-7.86,3.4-10.15C237.14,424.6,238.67,421.44,238.67,421.44Z"
         id="path4333" />
      <path
         class="cls-5"
         d="M276.13,761.29c2.25,2.71,5,2.36,7.27,2.75,4.05.7,8.17,1,12.26,1.51.84.11.83.87.85,1.45a37,37,0,0,1-1.16,11.42c-.6,2.22-2.49,1.29-3.83,1.3-10.57.11-20.17-3.44-29.67-7.66-3.52-1.56-1.88-3.9-1.57-5.91,1.09-7.18,2.39-14.33,3.74-21.46.33-1.74,1.89-1.16,3-.9,9.88,2.39,19.73,4.84,29.6,7.22,1.47.35,2.16,1,1.94,2.61a52.73,52.73,0,0,0-.72,7.49c.07,4.5-2.77,4.06-5.61,3.51C287.08,763.64,282,762.51,276.13,761.29Z"
         id="path4335" />
      <path
         class="cls-5"
         d="M196.3,752.17c1.29-3.12,3.14-7.51,4.91-11.93.7-1.76,1.24-3.57,1.85-5.36,1.29-3.74,4.75-3.27,7.54-3.65,15.83-2.15,30,4.38,44.51,8.91,1.8.56,5.68.25,4.89,2.88-2.08,6.94-2.32,14.14-4,21.08-1.27,5.2-1.3,5-8.65,2-9.85-3.95-19.59-8.35-30.14-10.23a63.3,63.3,0,0,0-19.43-.63C196.46,755.46,195.79,754.94,196.3,752.17Z"
         id="path4337" />
      <path
         class="cls-5"
         d="M362,772c-2.87,4.76-8,5.43-12.66,6.78-5.91,1.72-12.1,1.84-18.21,2-8.82.22-17.66-.09-26.47.31-6.34.28-4.05-3.85-3.72-6.66.79-6.88,1.74-13.77,3.11-20.56.43-2.15,2.91-.81,4.39-.61,12.77,1.74,25.34,4.81,38.21,5.71a22.41,22.41,0,0,0,11.92-2.29c1.79-.93,2.59.56,2.74,4.55.08,2.16.45,4.31.69,6.46Z"
         id="path4339" />
      <path
         class="cls-6"
         d="M299.58,323.05a23.12,23.12,0,0,0,3.19.38c2.94-.05,2.83,1.91,2.19,3.67-2.9,8-6,16-8.95,24-.7,1.88-2.06,1.13-3.1.77-11-3.83-22.2-7-32.84-11.8-2.9-1.3-2.45-6.2-1.3-8.65,4.24-5.39,5.15-10.34,9.13-15.73,1.22-1.65,2.37-1.89,4-.75A36.33,36.33,0,0,0,293,322.4l.61.11,1.46.18h.52l3.44.35Z"
         id="path4341" />
      <path
         class="cls-6"
         d="M346.57,328.48c-1.08,5.1-5.49,7.22-9,10.12-.88.71-1.81,1.35-2.72,2l-.17.12c-5.73,4.2-11.43,8.43-17.2,12.58-1.63,1.17-2.16.4-2.73-3.66A203.07,203.07,0,0,0,310,326.22c-.36-1.36-.3-2.49,1.43-2.77l3.44-.15c9.09-.69,16.9-4.36,23.74-10.28h1.07c3.29,4,5.15,8.72,6.89,13.51Z"
         id="path4343" />
    </g>
    <g
       id="newdad_torso_neutral_shading_dark_copy"
       data-name="newdad_torso_neutral_shading_dark copy"
       class="cls-7">
      <path
         class="cls-8"
         d="M240.81,420.72c4.9-2.25,15.15,14.06,21.05,24.42A32,32,0,0,1,266,461.93l-7.63,43.33a59.12,59.12,0,0,0-.7,15l-5.16,53.16a85.74,85.74,0,0,0-.08,15.94l-.06,53.23c.71,8.18,8.08,36.73,7.81,44.93l-2.13,16.68c-.22,8.29-7.14,28.28-15.36,27.24l-39.11-4.95c-4-.51-8.61-2.27-5.94-5.33,0,0,10-7.29,10-7.34,2.75-3.06,0-10.1,2.77-12.93,12.55-12.84-1.74-22.32,1.22-27.77,9.22-17,20-80.19,21.41-98.78s3.19-40.55,6.07-70.62c2.82-29.51,2.63-66.12,2.14-74.54Z"
         id="path4346" />
      <path
         class="cls-8"
         d="M197.57,557.85c-.75-5-.67-9.46,1-12.85,7.18-14.33,4.46-34,5.82-51s-5.84-32.06-2.82-51.31c2.82-17.91,27.5-65,12.32-90.64-8-13.62-14.93,30.72-15.65,37-2,17-17.1,129.52-17.56,173.4-.07,6.81,1.2,11.81,6.59,7.65C189.11,568.67,195.75,558.66,197.57,557.85Z"
         id="path4348" />
      <path
         class="cls-8"
         d="M378.54,422.53c3.6,15.68,3.68,54.3,4.44,66.53.12,1.92,3.22,36.94,5.31,47.32,1.39,6.93,13.55,26.56,13.55,26.56.82,9.46,1.76,15.24-10.56,20.38l-11.39,2.75c-1.3.64-2.15,4.55-3.1,3.46a3.21,3.21,0,0,1-.79-2.34c.62-10.35,3.43-21.45,2-39.36-1.88-23.55-.29-71.81-1.42-83.31-.81-8.23-2.95-33.25-5.1-47.82-.52-3.56-3.15-12.61,0-10.88C371.48,405.82,375.42,409,378.54,422.53Z"
         id="path4350" />
      <path
         class="cls-9"
         d="M198.66,773.56a7.1,7.1,0,0,1,10.21-4.27c15.89,8.64,29.47,13.7,31.92,24,5.8,24.48-27.91,27-36.64,71.43s-38.45,237.18-40.53,266.78,15.19,239.74,10.44,254c-.05.15-.09.29-.14.43-2.52,7.43-13.49,5.83-13.82-2-.88-21-2.55-47.87-5.62-63.13-5.55-27.54-19-176.69-13.47-203.13s21.91-194.75,20.54-203.09C160.38,907.48,189.78,804.42,198.66,773.56Z"
         id="path4352" />
      <path
         class="cls-9"
         d="M303.36,905.89c-6.16-14.71,15.91-24.22,22.78-9.83,28.07,58.81,90.64,214.2,98.21,248.53,16.37,74.19,33.49,258.92,18.46,278s-18.79,6.9-18.49-5.55,6.1-119.66-10.62-237.73c-7-49.09-29.47-96.1-47.66-143.18-18-46.66-47.13-109-60-125.79A20.52,20.52,0,0,1,303.36,905.89Z"
         id="path4354" />
    </g>
    <g
       id="newdad_torso_neutral_shading_light_copy"
       data-name="newdad_torso_neutral_shading_light copy"
       class="cls-10">
      <path
         class="cls-11"
         d="M351.94,405.6c-18.87,5.87-16.19,23.69-22,37.56s3.17,137.17-3.59,214.55c-2.59,29.62-31,79.21-21.66,85.78,13.1,9.19,26.46,9.19,43.36,10.5,9.27.71,25.67,3.67,15-5s-9.26-11.78-10-17.57,6.31,3.33,2.1-11.39-2.1-55.38-1.4-72.2,3.9-212.86,6.86-227.35S351.94,405.6,351.94,405.6Z"
         id="path4357" />
      <path
         class="cls-11"
         d="M406.2,559.41c.73-8,1.57-16,2.37-24.07,0-10.51,1.82-28.67,1-43.87-.75-13.76-4.91-62.4-5.74-69.88s-8.39-36.13-10.74-53.08c-1.28-9.17-3.79-25.31-12.85-25.83C368.8,342,346.8,330,346.8,330l-1.22,1.87c-5.2,7.47-10.54,12.17-11.87,15s-.81,3.25,11.87,7,12,2.37,22,8,13.3,10.9,19.42,18.86,10.69,39.49,11,46.55,3.18,57.41,3.39,79.53a280.9,280.9,0,0,0,3.82,46.56C405.49,555.52,405.84,557.51,406.2,559.41Z"
         id="path4359" />
      <path
         class="cls-11"
         d="M236.56,418.64C235.66,414.41,223,422,223,422c-3.61,8.61-4.65,36.62-7,49.79s-3.71,42.12-5.12,52.7c-1.12,8.38-3.7,35.47-4.86,49.51.69.21,1.37.44,2,.7a7.42,7.42,0,0,1,2.8,1,22.47,22.47,0,0,1,4.44,3.3c.46.38.89.81,1.33,1.24-7.22-17.24.18-43.5,2.12-49.35,2.57-7.77,4.48-44.12,4.73-59.06.2-11.72,6.56-23.53,7.92-34.83S237.47,422.88,236.56,418.64Z"
         id="path4361" />
      <path
         class="cls-12"
         d="M348,790.14c-19.18,4.63-30.88,2.83-24,24.13s17.13,51,27.9,77.16,66.15,208,70.23,238.83,20.31,105,17.48,134.62,1.68,105,0,134.88,14.44,38,16.81,26.73,12.75-212.46,5.68-242.73-44.65-158.11-48.44-183.58-27-137.87-38-168.74S348,790.14,348,790.14Z"
         id="path4363" />
      <path
         class="cls-12"
         d="M233.82,864.73c-8.75,27.45-51.24,234.67-53.29,265.53s-8.77,241-6.47,255.24-14.05,14.86,2.3,14.26,7.33-52,11.71-71.35,9.64-196.48,14.85-224.24,31.84-161.87,43-182.13,23.12-37.95,22.32-50.85S233.82,864.73,233.82,864.73Z"
         id="path4365" />
    </g>
    <g
       id="newdad_torso_armsbehind_skin">
      <path
         class="cls-13"
         d="M219.27,624c1,2.67-.41,4.84-.7,7.56-.33,3.11-.87,6.2-1.33,9.3-.49,3.4-.85,6.81-1.24,10.23-.21,1.81-.52,4.07-.64,5.88-.06,1-.15,3-1.56,2.93-.89,0-1.71-2-2.16-2.59-1.07-1.47-2.53-2.67-3.63-4.12-8.88-11.74-21.27-25-26.47-40.75-1.89-5.71-3.08-20.77-1.58-31.17.37-2.58-.43-4.76,2.21-5.62a18.14,18.14,0,0,1,7.93-.29c2.57.33,5.24.43,7.78.84,4.88.81,9.32,4.51,12.19,8.37,2.33,3.12.26,7.45.17,10.93-.16,6.69,1.06,14.65,4.12,20.59,1.39,2.69,2.69,4.41,3.76,7.18"
         id="path4368" />
      <path
         class="cls-13"
         d="M395,597.31a15.26,15.26,0,0,1,3.12,1.07c3.55,2,7.55,2.47,7.12,2.85-2.21,2-4.38,7-5.93,9.1Q382,633.58,363.19,655.67c-1.34,1.57-2.77,3.21-4.72,3.9a234.48,234.48,0,0,1,1.5-38.66,8.86,8.86,0,0,1,1.27-4.21c1.24-1.72,3.52-2.38,4.87-4,1.85-2.23,6.15-10.86,6-13.75-.06-.88,6.65-3.78,13.36-3.84,2.62,0,7.34.59,9.61,2.21"
         id="path4370" />
    </g>
    <g
       id="newdad_torso_armsbehind_outline">
      <path
         class="cls-14"
         d="M258.53,336.46c-.09.13-.21-.08-.23-.18a31.32,31.32,0,0,1,1.56-5.87,37.52,37.52,0,0,1,2.59-5.43c.9-1.79,1.87-3.56,2.94-5.28a32.14,32.14,0,0,1,3.65-4.86l.64-.68-.18.88a2.53,2.53,0,0,1-1.07,1.6c-.12.08-.13-.19-.08-.25A2.19,2.19,0,0,0,269,315l.46.2a35.6,35.6,0,0,0-2.93,5.17c-.82,1.8-1.65,3.61-2.35,5.49a36.32,36.32,0,0,1-2.3,5.54A30.33,30.33,0,0,1,258.53,336.46Z"
         id="path4373" />
      <path
         class="cls-14"
         d="M294.8,351.94c.17-.13.15.17.17.25a.5.5,0,0,0,.13.5l-.58,0a58.38,58.38,0,0,1,2.17-7.43c.86-2.42,2.08-4.69,3-7.07q3-7.11,5.81-14.28c.07-.17.22.07.2.17q-1.9,7.47-4.35,14.79c-.84,2.42-1.48,4.93-2.54,7.28a44.07,44.07,0,0,1-3.73,6.79l-.37.53-.21-.49A.92.92,0,0,1,294.8,351.94Z"
         id="path4375" />
      <path
         class="cls-14"
         d="M316.77,355.25c-.06-.22.21-.08.29-.09s.45,0,.47-.08l-.11.34a51.38,51.38,0,0,1-2.8-7.33c-.76-2.48-1.12-5.07-1.72-7.59q-1.72-7.61-3.24-15.27c0-.18.22-.06.26,0q2.46,7.38,4.72,14.82c.72,2.49,1.69,4.92,2.25,7.45a50.82,50.82,0,0,1,1.18,7.72l0,.26-.13.08A.82.82,0,0,1,316.77,355.25Z"
         id="path4377" />
      <path
         class="cls-14"
         d="M317.54,354.93c-.21.1-.14-.19-.07-.31,2.35-2.42,4.84-4.6,7.34-6.75s5.23-4,7.79-6.11q7.68-6.27,14.95-13.08c.16-.16.16.16.08.26a173.91,173.91,0,0,1-13.94,14.28,81.12,81.12,0,0,1-7.57,6.53A54.8,54.8,0,0,1,317.54,354.93Z"
         id="path4379" />
      <path
         class="cls-14"
         d="M348.11,329.9c0,.11-.21.1-.29.07a17.94,17.94,0,0,1-3-3.87,30,30,0,0,1-1.95-4.41c-.64-1.48-1.26-3-1.86-4.46a21.62,21.62,0,0,0-2-4.33c-.06-.09.17-.16.23-.12a9.27,9.27,0,0,1,1.54,1.93l1.27,2.06q1.26,2.07,2.46,4.16a28.11,28.11,0,0,1,2.36,4.21A18,18,0,0,1,348.11,329.9Z"
         id="path4381" />
      <path
         class="cls-14"
         d="M309.17,324c-.16-.11.1-.2.22-.22,2.62.5,4.94-.51,7.43-1.37s5.06-1.51,7.55-2.44a94.31,94.31,0,0,0,14.42-6.81c.16-.09.13.19,0,.27A71.86,71.86,0,0,1,325,321.64a40.29,40.29,0,0,1-7.58,2.93,16.5,16.5,0,0,1-4.15.61A6.42,6.42,0,0,1,309.17,324Z"
         id="path4383" />
      <path
         class="cls-15"
         d="M269.43,315.4c-.18-.12.1-.2.24-.19,3.05.94,6,2,8.92,3s5.82,2.14,8.82,2.95a80.47,80.47,0,0,0,18.5,2.76c.22,0,0,.23-.11.25a68.12,68.12,0,0,1-18.93-1.27,45.3,45.3,0,0,1-9.2-2.6A34.2,34.2,0,0,1,269.43,315.4Z"
         id="path4385" />
      <path
         class="cls-14"
         d="M174.88,578.24c1.05,1.27-.17.18-.82-.54-.22-.31-.47-.61-.67-.94a5.15,5.15,0,0,1-.48-1.07,4.16,4.16,0,0,1-.13-.59v-.62a3.74,3.74,0,0,1,.38-1.14,12.56,12.56,0,0,1,1.3-1.91c.45-.6.9-1.19,1.29-1.81a17.88,17.88,0,0,0,2.73-8.29c.54-6,.71-12,.92-18l.51-18c.18-6,.29-12,.67-18.08,1-12,2.22-24,3.81-35.95.41-3,.88-6,1.41-9s1-5.91,1.48-8.88c.93-5.93,1.62-11.87,2.13-17.86,1-12,1.71-24,2.57-36s2.32-24.09,5.89-35.68l.68-2.17.75-2.14c.5-1.43,1-2.85,1.65-4.24a20.43,20.43,0,0,1,5.23-7.53,23.66,23.66,0,0,1,8.21-4l8.6-2.75,34.39-11c1.58-.5.08.21-.82.52l-34.24,11.43-8.55,2.86a19.48,19.48,0,0,0-7.65,4.24,21.68,21.68,0,0,0-4.58,7.47c-1.09,2.77-2,5.63-2.85,8.5-3.25,11.53-4.48,23.53-5.26,35.5s-1.36,24-2.28,36c-.47,6-1.16,12-2,18-.43,3-.9,6-1.38,8.93s-.88,5.91-1.25,8.9c-.72,5.95-1.35,11.93-2,17.91s-1.24,12-1.75,17.92c-.7,11.95-1.07,24-1.79,36-.18,3-.37,6-.61,9s-.5,6-1,9a21,21,0,0,1-1.25,4.44,17.89,17.89,0,0,1-2.36,3.95c-.47.61-1,1.17-1.43,1.75a4.78,4.78,0,0,0-1.06,1.84,2.91,2.91,0,0,0,.34,2A9.17,9.17,0,0,0,174.88,578.24Z"
         id="path4387" />
      <path
         class="cls-14"
         d="M211,586.54c-.23-.2.13-.19.31-.14.94.46,2.15.87,2.56.24a2.62,2.62,0,0,0,.36-.55.73.73,0,0,0,.11-.48,2.24,2.24,0,0,0-.49-1.05,11.82,11.82,0,0,0-2.21-2.06c-.84-.63-1.72-1.22-2.63-1.78-.45-.27-.92-.56-1.35-.8l-1.42-.77c-1-.51-1.9-1-2.86-1.54A36.39,36.39,0,0,0,197.5,575a30.27,30.27,0,0,0-12.73-1,19.53,19.53,0,0,0-6.28,1.3,7.63,7.63,0,0,0-1.34.82,1,1,0,0,0-.3,1.17,3.62,3.62,0,0,0,2.34,1.92c.28.09-.05.22-.23.18a3.73,3.73,0,0,1-2.63-2.1,1.4,1.4,0,0,1,0-1,1.86,1.86,0,0,1,.58-.78,8,8,0,0,1,1.42-1,20.77,20.77,0,0,1,6.48-1.73,38,38,0,0,1,6.68-.51,26.75,26.75,0,0,1,6.7,1,44.31,44.31,0,0,1,6.33,2.33c1,.46,2,1,3,1.48a22.37,22.37,0,0,1,2.91,1.77,25.67,25.67,0,0,1,2.65,2.15,10.63,10.63,0,0,1,2.26,2.79,3.08,3.08,0,0,1,.35,2.1,2.37,2.37,0,0,1-.53.95,3,3,0,0,1-.76.69,1.85,1.85,0,0,1-1.07.24,2.67,2.67,0,0,1-.93-.28A6,6,0,0,1,211,586.54Z"
         id="path4389" />
      <path
         class="cls-15"
         d="M238.39,421.78c.4-.9.22.09.07.64-2.35,6.81-4.72,13.6-6.65,20.51a120.72,120.72,0,0,0-4,21c-.64,7.09-.63,14.28-.91,21.49s-.68,14.43-1.4,21.62c-.3,3.6-.79,7.18-1.17,10.76S223,525,222.2,528.48L219.82,539c-.38,1.76-.77,3.52-1.09,5.27s-.52,3.55-.78,5.32l-1.51,10.7a31.51,31.51,0,0,0-.37,5.32,50.15,50.15,0,0,0,.3,5.34c.46,3.53,1.26,7.09,1.59,10.69a18.72,18.72,0,0,1-.08,5.44,4.3,4.3,0,0,1-.51,1.31,1.77,1.77,0,0,1-1.2.79,2.53,2.53,0,0,1-1.39-.21,6.7,6.7,0,0,1-1.21-.65c-.83-.56.12-.18.61.07a2.56,2.56,0,0,0,2.41.33,3.13,3.13,0,0,0,1-2.25,22.7,22.7,0,0,0-.21-5.33c-.23-1.78-.55-3.55-.89-5.32s-.72-3.53-.93-5.34a42.15,42.15,0,0,1,0-10.88l1.31-10.72c.23-1.79.4-3.58.72-5.38s.66-3.56,1-5.32l2.21-10.58c.7-3.52,1.49-7,1.84-10.56s.78-7.14,1-10.73c.61-7.16.83-14.33.94-21.52s.07-14.42.94-21.67a107.86,107.86,0,0,1,4.85-21.21l1.78-5.13,2-5.05,1-2.51,1.07-2.49Z"
         id="path4391" />
      <path
         class="cls-14"
         d="M240.33,459.15c.1-1.69.23,0,.26,1-.16,24.64-2.22,49.25-5.12,73.71S228.63,582.61,225,607l-2.72,18.26c-.92,6.08-1.77,12.19-3,18.25a88.86,88.86,0,0,1-5.31,17.8c-1.21,2.88-2.72,5.56-3.72,8.4a12.86,12.86,0,0,0-.41,8.66c.9,2.84,2.71,5.41,3.62,8.5a11.32,11.32,0,0,1,.39,4.78,6.43,6.43,0,0,1-2.41,4.21c-1.28,1-2.74,1.56-3.65,2.65a5.51,5.51,0,0,0-1,1.85,9.13,9.13,0,0,0-.38,2.17c-.1,1.49,0,3,0,4.58a12.37,12.37,0,0,1-.7,4.68,10.09,10.09,0,0,1-2.89,3.75c-1.19,1-2.49,1.86-3.74,2.75a18.46,18.46,0,0,0-3.47,2.92,8.65,8.65,0,0,0-1.26,1.83,3.88,3.88,0,0,0-.4,2.1,2.09,2.09,0,0,0,1.19,1.6,13.14,13.14,0,0,0,2.14.73,42.71,42.71,0,0,0,4.48,1A41.94,41.94,0,0,0,211,729c1.69-.1,0,.25-.95.29a41.92,41.92,0,0,1-9.22-.62,43.46,43.46,0,0,1-4.51-1.07,4.5,4.5,0,0,1-2.14-1.08,2.8,2.8,0,0,1-.63-2.36,5.35,5.35,0,0,1,.9-2.22,10.11,10.11,0,0,1,1.49-1.83,28.85,28.85,0,0,1,3.65-2.9,28.28,28.28,0,0,0,3.57-2.83,8.33,8.33,0,0,0,2.24-3.75c.72-2.9-.07-6,.33-9.16a7.54,7.54,0,0,1,.67-2.34,6.3,6.3,0,0,1,1.53-1.94c1.25-1,2.72-1.64,3.66-2.69a5.86,5.86,0,0,0,1.45-3.92,12,12,0,0,0-.79-4.32c-1-2.79-2.87-5.38-3.7-8.5a12.39,12.39,0,0,1-.28-4.81,20.77,20.77,0,0,1,1.23-4.58c1.12-2.94,2.59-5.64,3.69-8.47A92.91,92.91,0,0,0,218,642.25c1.12-6,1.91-12.12,2.78-18.21l2.58-18.29c3.42-24.38,6.79-48.76,10-73.15S239,483.74,240.33,459.15Z"
         id="path4393" />
      <path
         class="cls-15"
         d="M238.84,483c-.13.32-.22-.07-.23-.27a62.89,62.89,0,0,0,.3-7.4l0-7.44c0-5,.23-9.92.24-14.9q0-14.91-.6-29.84c0-.34.23,0,.26.17q1.62,14.87,2.16,29.84c.17,5,.51,10,.21,15-.12,2.5-.32,5-.64,7.49-.16,1.24-.35,2.49-.6,3.72A18,18,0,0,1,238.84,483Z"
         id="path4395" />
      <path
         class="cls-14"
         d="M302.67,749.47c.59.06,0,.23-.35.27a55,55,0,0,1-13.1-1,97.54,97.54,0,0,1-12.71-3.39c-8.33-2.71-16.22-6.44-24.4-9.24a113.69,113.69,0,0,0-51.22-5.55c-.59.07,0-.22.31-.29a110.4,110.4,0,0,1,51.8,4.23c8.34,2.67,16.46,5.84,24.58,8.81S294,748.7,302.67,749.47Z"
         id="path4397" />
      <path
         class="cls-14"
         d="M363.05,554.88c.21-1.54.23,0,.2.91-1.87,22.51-2.66,45.07-3.23,67.64s-1.36,45.16-1.87,67.73a149.74,149.74,0,0,0,.19,16.83,48.45,48.45,0,0,0,1.42,8.21,72.16,72.16,0,0,1,2,8.32,17.56,17.56,0,0,1,.1,4.41,24.76,24.76,0,0,1-1,4.24,18.16,18.16,0,0,0-.87,4,5.25,5.25,0,0,0,1,3.56,10.67,10.67,0,0,0,3,2.6,40,40,0,0,1,3.56,2.42,9.14,9.14,0,0,1,1.57,1.65,6.32,6.32,0,0,1,1,2.13,6.47,6.47,0,0,1-.79,4.49,8.56,8.56,0,0,1-3.13,3.19,15.76,15.76,0,0,1-4.05,1.65,67.31,67.31,0,0,1-8.41,1.48,77.92,77.92,0,0,1-17,.12,76.91,76.91,0,0,1-16.58-3.61c-5.37-1.79-10.5-4.29-16.09-5.15-1.53-.22,0-.25.91-.1,5.62.95,10.79,3.43,16.17,5a75.66,75.66,0,0,0,16.54,3.16,77.46,77.46,0,0,0,16.81-.5c1.38-.22,2.77-.43,4.14-.72a32,32,0,0,0,4.06-1,12.21,12.21,0,0,0,3.61-1.8,7.22,7.22,0,0,0,2.37-3.07,4.75,4.75,0,0,0,0-3.68,6.89,6.89,0,0,0-2.57-2.86c-1.11-.79-2.35-1.46-3.55-2.29a9.09,9.09,0,0,1-3.15-3.22,7.32,7.32,0,0,1-.66-4.53,33.21,33.21,0,0,1,1-4.21,16.46,16.46,0,0,0,.73-4,18.42,18.42,0,0,0-.33-4c-.5-2.7-1.42-5.37-2.13-8.14a53.38,53.38,0,0,1-1.4-8.48c-.49-5.71-.31-11.38-.24-17,.33-22.61.59-45.18,1.42-67.77S360,577.28,363.05,554.88Z"
         id="path4399" />
      <path
         class="cls-14"
         d="M360.41,583.65c-.11,1-.23,0-.25-.58.47-14.43,1.11-28.83,1.74-43.23s1.59-28.79,2.31-43.19l2.25-43.21,1.24-21.6c.45-7.19.84-14.43,2.31-21.52.2-1,.23,0,.13.6-1.23,7.1-1.45,14.32-1.75,21.52l-.82,21.61L366,497.29c-.54,14.41-.9,28.84-1.85,43.23S362.1,569.31,360.41,583.65Z"
         id="path4401" />
      <path
         class="cls-14"
         d="M369.93,409.32c-.06-1.12.23,0,.35.6,2.08,16.2,2.83,32.54,3.34,48.83.24,8.16.4,16.29.52,24.45s0,16.33-.09,24.48-.26,16.32-.53,24.47-.63,16.31-1.26,24.45c-.18,2-.32,4.07-.57,6.1s-.49,4.07-.87,6.1-1.09,4-1.61,5.92-1,3.94-1.45,5.92a79.16,79.16,0,0,0-1.8,12,22.87,22.87,0,0,0,.29,6,4.3,4.3,0,0,0,1.35,2.54,1.93,1.93,0,0,0,1.35.33,4.09,4.09,0,0,0,1.39-.47c1-.54.15.22-.47.48a3.05,3.05,0,0,1-1.56.26,2.41,2.41,0,0,1-1.39-.79,6.61,6.61,0,0,1-1.16-2.89,27,27,0,0,1-.26-6.15,82.64,82.64,0,0,1,1.68-12.14c.41-2,.88-4,1.39-6,.26-1,.53-2,.81-3s.44-2,.64-2.94c.62-4,.86-8.06,1.14-12.11.48-8.13.7-16.27.86-24.41s.22-16.3.22-24.44-.12-16.29-.36-24.42-.44-16.31-.55-24.45C371.1,441.87,370.82,425.6,369.93,409.32Z"
         id="path4403" />
      <path
         class="cls-14"
         d="M405.55,604.06c-1.75.43-.05-.17.85-.61a9.33,9.33,0,0,0,6.1-9.16,14.35,14.35,0,0,0-.35-2.31l-.49-2.4-.39-2.4c-.93-6.43-1.41-12.89-1.86-19.35s-.76-12.92-1.07-19.37-.58-12.92-1.08-19.32a149.48,149.48,0,0,1-.08-19.51c.31-6.46.53-12.87.46-19.31s-.48-12.83-1-19.28-.94-12.91-1.41-19.35c-1.86-25.77-4.21-51.51-8.33-77-1-6.38-2.15-12.74-3.4-19.07-.32-1.58-.61-3.18-1-4.74a15.15,15.15,0,0,0-1.56-4.43,7.74,7.74,0,0,0-3.35-3.08,23.15,23.15,0,0,0-4.49-1.57l-37.45-10.07c-1.71-.46.05-.23,1,0l37.57,9.61a17,17,0,0,1,4.59,1.82,8.53,8.53,0,0,1,3.29,3.77,21.38,21.38,0,0,1,1.44,4.72l1,4.75q1.95,9.51,3.57,19.08c4.35,25.51,6.9,51.29,8.93,77.07.51,6.45,1,12.88,1.61,19.31s1.13,12.93,1.19,19.43c0,3.24.05,6.48,0,9.73s-.24,6.48-.37,9.71a154.19,154.19,0,0,0,.1,19.23c.42,6.5.58,12.95.8,19.41s.41,12.92.7,19.36.6,12.91,1.38,19.28c.17,1.62.49,3.13.74,4.79a10,10,0,0,1-.49,5A10.27,10.27,0,0,1,405.55,604.06Z"
         id="path4405" />
      <path
         class="cls-14"
         d="M402.14,604.22c-.27.06-.09-.22.07-.33,1.05-.45,2.28-.31,3-.77a1.67,1.67,0,0,0,.5-2,3.37,3.37,0,0,0-1.74-1.71c-.81-.43-1.83-.81-2.8-1.23-3.9-1.6-7.64-3.49-11.72-3.91a34,34,0,0,0-6.21.07,44.12,44.12,0,0,0-6.22.86,17.43,17.43,0,0,0-2.94,1,12.32,12.32,0,0,0-2.62,1.61,7.34,7.34,0,0,0-2.07,2.21.61.61,0,0,0,0,.55c.07.15.31.24.55.29a5.3,5.3,0,0,0,1.54,0c.29,0,0,.23-.13.27a4.77,4.77,0,0,1-1.65.06,1,1,0,0,1-.77-.57,1.36,1.36,0,0,1,.11-.95,8.69,8.69,0,0,1,2.13-2.52,12.49,12.49,0,0,1,2.7-1.87,18.64,18.64,0,0,1,3.06-1.19,45.59,45.59,0,0,1,6.35-1.23,28.8,28.8,0,0,1,19,3.36,23.79,23.79,0,0,1,2.92,1.6,6.22,6.22,0,0,1,1.37,1.3,3.76,3.76,0,0,1,.77,1.85,3.34,3.34,0,0,1-.3,2,2.45,2.45,0,0,1-1.56,1.3C404.14,604.47,403.15,604,402.14,604.22Z"
         id="path4407" />
      <path
         class="cls-14"
         d="M148,1057.55c-.12,1-.23,0-.24-.6.71-14.86,1.77-29.69,2.93-44.51s2.76-29.61,4.15-44.41q4.19-44.4,8.6-88.78c.1-1,.23,0,.19.6q-3.41,44.48-7,88.92c-1.21,14.82-2.21,29.65-3.69,44.44S149.94,1042.8,148,1057.55Z"
         id="path4409" />
      <path
         class="cls-14"
         d="M149.59,1039.34c.28-2.16.24,0,.16,1.25-1.55,15.72-2.81,31.46-3.87,47.21s-1.71,31.52-2.19,47.29-.55,31.55-.49,47.33.57,31.55,1.34,47.32,2,31.5,3.44,47.22c.8,7.85,1.55,15.71,2.46,23.55l2.79,23.52c1.88,15.68,3.69,31.39,4.84,47.15.55,7.89,1,15.78,1.12,23.68s.06,15.81-.36,23.7c-.09,2.17-.23,0-.2-1.24,1.2-31.61-2.67-63.08-6.68-94.37l-3-23.51q-.72-5.88-1.35-11.78c-.42-3.92-.88-7.85-1.26-11.78-1.57-15.73-2.76-31.49-3.69-47.27s-1.45-31.59-1.73-47.4,0-31.62.51-47.43,1.57-31.58,2.88-47.33S147.43,1055,149.59,1039.34Z"
         id="path4411" />
      <path
         class="cls-14"
         d="M193.89,1354.84c.12-.53.23,0,.24.35-.64,7.9-1.58,15.73-1.8,23.55s0,15.59,2,23.25a25.8,25.8,0,0,1,.74,6.07,12.06,12.06,0,0,1-.48,3.13,8.58,8.58,0,0,1-.58,1.48,7.92,7.92,0,0,1-.79,1.39,11.6,11.6,0,0,1-4.82,4,21.42,21.42,0,0,1-5.86,1.63,61,61,0,0,1-11.93.13l-11.84-.58c-.54,0,0-.23.32-.24l11.85.11a57.75,57.75,0,0,0,11.71-.6,19.26,19.26,0,0,0,5.43-1.79,10.1,10.1,0,0,0,4-3.68,9.53,9.53,0,0,0,1.28-5.25,26.15,26.15,0,0,0-.9-5.65c-.48-1.89-1-3.85-1.35-5.82s-.68-4-.88-6a70.64,70.64,0,0,1-.18-12A143.65,143.65,0,0,1,193.89,1354.84Z"
         id="path4413" />
      <path
         class="cls-14"
         d="M193.74,1384.23c0,3-.23,0-.32-1.68-1.37-43.25-2.34-86.53-1.47-129.82.45-21.65,1.39-43.29,3.07-64.88s4-43.13,6.9-64.59A1087.55,1087.55,0,0,1,227,995.9q8.16-31.42,18.2-62.32a272.23,272.23,0,0,1,11.5-30.35,112.28,112.28,0,0,1,17.39-27.33c1.95-2.25.18.14-.92,1.44A115.73,115.73,0,0,0,256.51,905a284.47,284.47,0,0,0-11.1,30.44q-9.76,30.93-17.69,62.41a1104.14,1104.14,0,0,0-24.23,127.35q-4.19,32.16-6.37,64.52t-2.93,64.77C193.07,1297.69,193.59,1341,193.74,1384.23Z"
         id="path4415" />
      <path
         class="cls-14"
         d="M462,1204.16c0,1.67-.23,0-.33-1-.2-3-.32-6.07-.58-9.09l-1-9.06-1.35-9c-.51-3-1.12-6-1.66-8.94-2.39-11.9-5.48-23.65-8.81-35.33-6.68-23.35-14.14-46.58-19.35-70.43s-7.44-48.18-10.11-72.34-6-48.38-13.59-71.53c-.5-1.59.21-.08.52.83,7.86,23.1,11.38,47.38,14.31,71.51s5.35,48.41,10.86,72.06,13.45,46.67,19.81,70.2c3.2,11.76,6.07,23.63,8.13,35.66A198.65,198.65,0,0,1,462,1204.16Z"
         id="path4417" />
      <path
         class="cls-14"
         d="M424.31,1420.33c-.81-1.38.2-.12.73.61a20.23,20.23,0,0,0,6.44,5.88,23.36,23.36,0,0,0,8.18,2.9,23.07,23.07,0,0,0,8.61-.25,19,19,0,0,0,7.68-3.64l-.32.64c.22-20.18.53-40.35,1.09-60.52l1.74-60.51,3.55-121c0-1.59.22,0,.22.91l-2.11,120.59-1.08,60.3c-.39,20.09-1,40.19-1.74,60.28l0,.4-.3.23a20.33,20.33,0,0,1-8.64,3.76,24.22,24.22,0,0,1-17.83-3.81A19.77,19.77,0,0,1,424.31,1420.33Z"
         id="path4419" />
      <path
         class="cls-14"
         d="M406.08,1182.67c.32,1.9-.22,0-.48-1-5.6-27.48-12.05-54.77-19.91-81.66-3.82-13.47-8.09-26.81-12.44-40.13-2.29-6.61-4.45-13.28-6.9-19.84l-3.6-9.87-3.78-9.81-1.9-4.89-2-4.87-4-9.72L347,991.19l-2.08-4.82-2.17-4.79L338.37,972l-4.5-9.5-2.26-4.74-2.34-4.71-4.68-9.41c-6.36-12.48-13.09-24.8-21.11-36.29s-17.38-22.09-28.62-30.49c-1.53-1.18.12-.19,1,.47,11.29,8.39,20.74,19,28.82,30.51s14.94,23.8,21.4,36.25a834.47,834.47,0,0,1,35,76.58l3.86,9.8,3.7,9.86,1.85,4.93,1.76,5,3.51,9.92,3.31,10,1.65,5,1.55,5,3.07,10.07,2.87,10.14,1.42,5.07,1.32,5.1,2.64,10.19L396,1131l1.21,5.12,1.11,5.15,2.2,10.3,2,10.33,1,5.18c.32,1.72.59,3.45.89,5.18Z"
         id="path4421" />
      <path
         class="cls-14"
         d="M424.06,1422.2c0,1.39-.23,0-.33-.77-1.6-20.17-2.85-40.36-4-60.56s-1.86-40.41-2.77-60.62-1.8-40.4-3.7-60.52a392.28,392.28,0,0,0-9.8-59.77c-.33-1.35.21-.07.43.7,5.26,19.55,8.45,39.61,10.58,59.74s3.24,40.36,4.34,60.55,2.4,40.39,3.24,60.6S423.67,1402,424.06,1422.2Z"
         id="path4423" />
      <path
         class="cls-14"
         d="M406.17,919.64c.12.86-.23,0-.38-.43l-1.08-4.58c-.38-1.52-.82-3-1.22-4.54-.79-3-1.72-6-2.58-9q-2.67-9-5.47-18c-3.75-12-7.23-24-11.05-36s-7.68-23.9-11.62-35.82-7.92-23.83-12.15-35.65c-.29-.82.21-.09.4.37,4.55,11.71,8.78,23.54,13,35.37s8.28,23.72,12.26,35.64,8.06,23.8,11.49,35.9c.87,3,1.73,6,2.52,9.09s1.62,6.08,2.33,9.14,1.45,6.13,2,9.22c.28,1.55.65,3.08.86,4.65Z"
         id="path4425" />
      <path
         class="cls-14"
         d="M298.61,777.54c.21-.44.21.09.18.34a4.37,4.37,0,0,0,1.85,4.16,7.13,7.13,0,0,0,4.46,1.24,49.89,49.89,0,0,0,5-.47l5.13-.58c6.85-.76,13.73-1.06,20.6-1.57A75.35,75.35,0,0,0,346,779.43a24.06,24.06,0,0,0,9.22-3.82,14.51,14.51,0,0,0,5.41-8.16,11.68,11.68,0,0,0,.21-5,8.7,8.7,0,0,0-2.24-4.46c-.3-.36.16-.17.36,0a9.09,9.09,0,0,1,2.41,4.59,12.56,12.56,0,0,1-.09,5.25,15.23,15.23,0,0,1-5.6,8.81,25.23,25.23,0,0,1-9.61,4.28,77.49,77.49,0,0,1-10.31,1.53c-6.85.7-13.68,1.6-20.55,2l-5.16.32a33.25,33.25,0,0,1-5.29,0,9.86,9.86,0,0,1-2.7-.65,6.25,6.25,0,0,1-2.34-1.59,5.75,5.75,0,0,1-1.33-2.43A3.8,3.8,0,0,1,298.61,777.54Z"
         id="path4427" />
      <path
         class="cls-14"
         d="M291.38,778.56c0-.2.23,0,.29.11a4.3,4.3,0,0,0,2.28,2.88l-1.22.45c.48-2.42,1-4.82,1.71-7.16s1.46-4.69,2-7.08q1.84-7.14,3.21-14.42c0-.19.23,0,.23.14a134.84,134.84,0,0,1-1.82,14.69c-.47,2.43-.89,4.87-1.42,7.29a41.86,41.86,0,0,1-2.38,7l-.45,1-.77-.59a4.5,4.5,0,0,1-1.51-2A4.17,4.17,0,0,1,291.38,778.56Z"
         id="path4429" />
      <path
         class="cls-14"
         d="M273.14,758.62c-.14,0,0-.23.1-.28a20.34,20.34,0,0,1,6.27-.22,29.47,29.47,0,0,1,6,1.56,55.63,55.63,0,0,1,11.31,5c.12.07-.1.21-.18.19A81.76,81.76,0,0,0,285,761.42c-2-.43-4-.56-5.95-1.07A46.88,46.88,0,0,1,273.14,758.62Z"
         id="path4431" />
      <path
         class="cls-14"
         d="M264.19,738.48c.16-.38.22.07.21.31-1.13,5.52-2.44,11-3.72,16.41q-1,4.08-2,8.14c-.7,2.71-1.42,5.41-2.08,8.13l-.53-1.07a132.76,132.76,0,0,0,17.83,7,135.55,135.55,0,0,0,18.7,4.43c.41.07,0,.23-.26.21a124.39,124.39,0,0,1-18.89-3.52,125.73,125.73,0,0,1-18.18-6.4l-.68-.3.15-.77c.54-2.77,1.08-5.56,1.7-8.32s1.33-5.51,2.13-8.22A142.46,142.46,0,0,1,264.19,738.48Z"
         id="path4433" />
      <path
         class="cls-14"
         d="M193.61,749.93c-.3-.14.07-.22.27-.21,4.72.94,9.33,2.22,13.91,3.6s9,3.17,13.53,4.77,9,3.19,13.44,5.13a58.19,58.19,0,0,1,12.46,7.17c.27.2-.13.19-.29.09a62.91,62.91,0,0,0-12.78-6.28c-4.45-1.65-9-3-13.59-4.44s-9.19-2.66-13.67-4.33S198,752,193.61,749.93Z"
         id="path4435" />
      <path
         class="cls-14"
         d="M194.92,757.55c-.08.15-.22-.06-.25-.17a37.48,37.48,0,0,1,1.07-7.06,66.88,66.88,0,0,1,2.25-6.71q2.28-6.71,4.79-13.34c.06-.15.22.07.21.16-1,4.62-2.11,9.21-3.28,13.79a64.33,64.33,0,0,1-1.81,6.84A36.46,36.46,0,0,1,194.92,757.55Z"
         id="path4437" />
      <path
         class="cls-14"
         d="M163.8,878.54c-.16.71-.23,0-.22-.45.54-5.23,1.36-10.43,2.3-15.61l1.52-7.74,1.68-7.71c2.3-10.26,5.22-20.36,8-30.48s5.71-20.22,8.7-30.29,6-20.11,9.28-30.1c.23-.69.22.06.12.46-2.9,10.09-5.67,20.22-8.41,30.35s-5.42,20.28-8,30.44-4.92,20.4-7.54,30.55S166.08,868.29,163.8,878.54Z"
         id="path4439" />
      <path
         class="cls-14"
         d="M257.55,335.41c-.18-.14.11-.2.25-.19a68.82,68.82,0,0,1,8.87,4.12c2.88,1.51,5.51,3.43,8.25,5.16q8.24,5.19,16.34,10.59c.18.12-.12.2-.24.15q-8.62-4.53-17.13-9.24c-2.84-1.57-5.78-3-8.49-4.77A68.65,68.65,0,0,1,257.55,335.41Z"
         id="path4441" />
      <path
         class="cls-14"
         d="M298.82,780.42c-.08.16-.23,0-.26-.16a43.94,43.94,0,0,1,.72-7.3c.38-2.39,1.19-4.69,1.77-7l3.47-14.15c0-.16.23,0,.23.13q-.72,7.27-1.93,14.48a58.19,58.19,0,0,1-1.34,7.18A35.26,35.26,0,0,1,298.82,780.42Z"
         id="path4443" />
      <path
         class="cls-14"
         d="M359.58,774.39c0-.12.23,0,.3,0a1,1,0,0,0,.43.28.82.82,0,0,0,.41,0l-.68.57a19.27,19.27,0,0,1-.9-4.3c-.1-1.44.08-2.9,0-4.34q0-4.35.19-8.73c0-.1.23,0,.25,0,.49,2.86.93,5.73,1.3,8.6.14,1.45.51,2.87.6,4.32a18.91,18.91,0,0,1-.34,4.36l-.15.77-.52-.19a1.49,1.49,0,0,1-.71-.59A1.22,1.22,0,0,1,359.58,774.39Z"
         id="path4445" />
      <path
         class="cls-14"
         d="M273.38,759.31c0-.16.23,0,.29.08.18.58.31,1.15.45,1.73s.23,1.16.32,1.74l-.3-.62a13.3,13.3,0,0,0,5,1.4c1.82.28,3.81.44,5.74.58q5.83.45,11.65,1.09c.15,0,0,.22-.09.24q-5.83.24-11.65.33c-1,0-1.94,0-2.91,0s-2,.09-3,0a8.72,8.72,0,0,1-5.82-2.42l-.34-.35,0-.28c.07-.6.15-1.19.25-1.79S273.22,759.91,273.38,759.31Z"
         id="path4447" />
      <path
         class="cls-14"
         d="M275.57,762.49a1.08,1.08,0,0,1-.28,0l-.43-.14-.3-.2a1.28,1.28,0,0,1-.38-.47c-.18-.35.14-.7.27-1a3.28,3.28,0,0,1,.53-.88,3.4,3.4,0,0,1,.74-.68.94.94,0,0,1,.22.12,7.3,7.3,0,0,0,.13.89c.06.28.12.54.19.77s.36.46.2.68a1.73,1.73,0,0,1-.3.37l-.24.22Z"
         id="path4449" />
      <path
         class="cls-14"
         d="M277.43,763.46s-.23,0-.28,0l-.39-.23-.27-.23a1.45,1.45,0,0,1-.33-.47c-.16-.31.15-.62.23-.94s.21-.62.34-.93.27-.62.45-.93a.71.71,0,0,1,.25,0c.18.31.3.62.45.93a8.77,8.77,0,0,1,.33.94c.1.31.4.62.23.93a1.39,1.39,0,0,1-.34.47l-.27.23Z"
         id="path4451" />
      <path
         class="cls-14"
         d="M278.81,763a1.2,1.2,0,0,1-.25-.13l-.28-.32-.19-.25a1.23,1.23,0,0,1-.21-.38c-.1-.22.24-.31.37-.5l.39-.57a7.41,7.41,0,0,0,.42-.69.69.69,0,0,1,.25,0,3.64,3.64,0,0,1,.47.75,3.21,3.21,0,0,1,.26.85c0,.29.26.66,0,.89a1,1,0,0,1-.47.29l-.33.08Z"
         id="path4453" />
      <path
         class="cls-14"
         d="M280.64,763.47a.71.71,0,0,1-.27-.05l-.36-.26-.24-.25a1.33,1.33,0,0,1-.26-.45c-.12-.3.22-.52.35-.78a8.69,8.69,0,0,1,.46-.77c.19-.25.35-.5.57-.75a.55.55,0,0,1,.24.05c.13.3.21.59.32.88a6.87,6.87,0,0,1,.21.87c0,.28.31.6.1.84a1.25,1.25,0,0,1-.39.36l-.3.17Z"
         id="path4455" />
      <path
         class="cls-14"
         d="M282.07,764.41a.72.72,0,0,1-.28,0l-.36-.26-.23-.24a1.18,1.18,0,0,1-.27-.46c-.12-.29.22-.52.35-.78a7.81,7.81,0,0,1,.46-.77c.19-.25.34-.5.56-.75a.69.69,0,0,1,.24,0c.14.3.22.59.33.88a6.87,6.87,0,0,1,.21.87c.05.28.31.6.1.84a1.25,1.25,0,0,1-.39.36l-.3.17Z"
         id="path4457" />
      <path
         class="cls-14"
         d="M284,763.94a1.36,1.36,0,0,1-.28,0l-.39-.15-.27-.14a1.23,1.23,0,0,1-.33-.29c-.16-.2.15-.39.24-.59a4.27,4.27,0,0,1,.33-.58c.16-.19.27-.39.45-.58a1,1,0,0,1,.25,0c.18.2.3.39.45.59a4.27,4.27,0,0,1,.33.58c.1.2.4.39.23.58a1,1,0,0,1-.34.3l-.27.14Z"
         id="path4459" />
      <path
         class="cls-14"
         d="M285.36,764a1,1,0,0,1-.27-.06l-.36-.24-.23-.22a1.25,1.25,0,0,1-.27-.41c-.11-.26.23-.44.36-.66a6.24,6.24,0,0,1,.45-.64,8.2,8.2,0,0,1,.57-.62s.22,0,.24,0c.13.26.21.52.32.78a7,7,0,0,1,.21.75c.05.25.31.54.1.74a1.09,1.09,0,0,1-.4.29l-.29.13Z"
         id="path4461" />
      <path
         class="cls-14"
         d="M287.31,763.49a1,1,0,0,1-.27-.06l-.36-.22-.23-.2a1.12,1.12,0,0,1-.27-.36c-.12-.22.22-.36.35-.54a5.14,5.14,0,0,1,.45-.51,6.85,6.85,0,0,1,.56-.5,1.2,1.2,0,0,1,.24.06c.13.23.21.45.32.67a4.45,4.45,0,0,1,.21.65c.06.21.31.47.11.63a1.08,1.08,0,0,1-.39.22l-.3.1Z"
         id="path4463" />
      <path
         class="cls-14"
         d="M288.73,764.41a1.36,1.36,0,0,1-.28,0l-.4-.11-.27-.12a1.23,1.23,0,0,1-.33-.23c-.16-.16.15-.31.24-.47A3.46,3.46,0,0,1,288,763c.15-.15.27-.31.45-.46h.24c.18.16.3.31.45.47a4.62,4.62,0,0,1,.34.47c.09.15.39.31.22.46a1,1,0,0,1-.34.24l-.26.11Z"
         id="path4465" />
      <path
         class="cls-14"
         d="M290.16,764.92l-.27-.08-.35-.21-.23-.18a.94.94,0,0,1-.26-.31c-.12-.2.21-.28.34-.41a4.21,4.21,0,0,1,.44-.39c.19-.12.35-.24.56-.36l.23.07a4.18,4.18,0,0,1,.32.58,3.33,3.33,0,0,1,.21.54c.06.18.31.41.11.53a1.38,1.38,0,0,1-.39.15l-.29,0Z"
         id="path4467" />
      <path
         class="cls-14"
         d="M292.36,764.76V765l0,.39,0,.27a2.24,2.24,0,0,1-.06.33c0,.16-.08-.15-.12-.24s-.07-.2-.11-.34-.08-.27-.12-.45v-.24c0-.18.08-.3.12-.45s.08-.24.12-.34.07-.39.11-.22a2.19,2.19,0,0,1,.06.34l0,.27Z"
         id="path4469" />
      <path
         class="cls-14"
         d="M196.28,753.12c0,.14-.22,0-.29,0a14.52,14.52,0,0,1-1-6.07,19.49,19.49,0,0,1,1.41-6,27.87,27.87,0,0,1,6.28-10.27c.09-.1.18.14.14.21a32.68,32.68,0,0,0-4.7,10.65c-.46,1.88-.52,3.8-.87,5.68S196.68,751.1,196.28,753.12Z"
         id="path4471" />
      <path
         class="cls-14"
         d="M358,661.79c-.33.29-.08-.08.08-.28,4.47-4.58,8.87-9.22,13.12-14S379.69,638,383.66,633a256.94,256.94,0,0,0,21.5-31.73c.22-.38.1.06,0,.28a238.64,238.64,0,0,1-20.92,32.21c-3.91,5.07-8,10.07-12.34,14.75A167.54,167.54,0,0,1,358,661.79Z"
         id="path4473" />
      <path
         class="cls-14"
         d="M360.68,618.05c-.09.1-.09-.07-.07-.15.91-1.77,1.92-3.46,2.93-5.14s2.15-3.29,3.17-5c2-3.36,3.93-6.82,5.66-10.37.06-.12.11.05.08.12a93,93,0,0,1-5,10.77,50.52,50.52,0,0,1-3,5.13A35.51,35.51,0,0,1,360.68,618.05Z"
         id="path4475" />
      <path
         class="cls-14"
         d="M221.25,628.73c0,.28-.11,0-.16-.14a18.29,18.29,0,0,0-2.58-5.47L215.18,618c-1.1-1.73-2.16-3.48-3.2-5.25-.51-.89-1-1.76-1.55-2.68a10.26,10.26,0,0,1-1.15-3,17.73,17.73,0,0,1-.2-3.14l0-3.09c0-2,.11-4.11.21-6.16.22-4.1.59-8.2,1.1-12.27,0-.28.11,0,.11.17q-.51,6.13-.64,12.28-.06,3.08,0,6.14l.06,3.07a15.12,15.12,0,0,0,.28,3c.45,1.87,1.77,3.5,2.82,5.26s2.18,3.48,3.22,5.25,2.07,3.53,3,5.35A14.68,14.68,0,0,1,221.25,628.73Z"
         id="path4477" />
      <path
         class="cls-14"
         d="M214.36,663.33c.31.47-.1.07-.31-.18-5-6.58-9.77-13.26-14.54-20s-9.38-13.53-14-20.32a49.73,49.73,0,0,1-5.91-10.93,36.8,36.8,0,0,1-1.86-12.26c0-2.07.08-4.13.2-6.18s.34-4.11.51-6.16L179.49,575c0-.56.11,0,.1.33l-.84,12.32c-.13,2.05-.31,4.1-.4,6.16s-.13,4.11-.07,6.15a35.27,35.27,0,0,0,2.11,12,50.84,50.84,0,0,0,6,10.64c4.74,6.72,9.59,13.38,14.23,20.18S209.89,656.4,214.36,663.33Z"
         id="path4479" />
      <path
         class="cls-15"
         d="M162.81,1426.87c-.15-.16.2-.27.36-.28,3,1.09,5.73,2.14,8.55,3a70.64,70.64,0,0,0,8.49,2.42,36.94,36.94,0,0,0,17.84-1.46c.21-.06.14.31,0,.38a33.76,33.76,0,0,1-18.31,3.78,25.56,25.56,0,0,1-9.4-2A19.62,19.62,0,0,1,162.81,1426.87Z"
         id="path4481" />
      <path
         class="cls-15"
         d="M127.84,1527.54c-.38-.06,0-.34.24-.42a138,138,0,0,1,16.85-.85c5.6,0,11.18.64,16.78,1q16.77,1,33.54,2.44c.39,0,0,.35-.23.36q-16.83.12-33.63-.08c-5.61-.07-11.22.17-16.81-.3A134.45,134.45,0,0,1,127.84,1527.54Z"
         id="path4483" />
      <path
         class="cls-15"
         d="M190.33,1428.59c-.34.06-.37,0-.27-.13a1.62,1.62,0,0,1,.53-.41,5.45,5.45,0,0,1,4,.22,9,9,0,0,1,3.28,2.5,10.83,10.83,0,0,1,2,3.65,10.56,10.56,0,0,1,.45,2.11,16.11,16.11,0,0,1,.06,2.08,36.2,36.2,0,0,1-1.49,7.83c-.33,1.23-.64,2.44-.88,3.63-.12.59-.2,1.19-.27,1.78a17.75,17.75,0,0,0-.15,1.79c-.26,4.79.93,9.6,2.61,14.3s3.91,9.33,6.06,14a67.83,67.83,0,0,1,5.22,14.75,30.83,30.83,0,0,1,.62,7.91,26.34,26.34,0,0,1-1.64,7.78,27.36,27.36,0,0,1-3.76,6.93,31.67,31.67,0,0,1-2.5,3,30.27,30.27,0,0,1-2.91,2.64,26.91,26.91,0,0,1-14.17,6c-.71.1,0-.34.34-.43,10.12-1.7,18.53-9.62,21.52-19.08a26.35,26.35,0,0,0,1.14-7.3,30.63,30.63,0,0,0-.95-7.36,70,70,0,0,0-5.54-14c-2.25-4.58-4.76-9.11-6.73-14a41.52,41.52,0,0,1-2.3-7.65,28.35,28.35,0,0,1-.39-8.13c.5-5.6,3.28-10.2,3.75-14.93a9.35,9.35,0,0,0-.18-3.43,9.94,9.94,0,0,0-1.47-3.17,7.73,7.73,0,0,0-2.58-2.38A4.92,4.92,0,0,0,190.33,1428.59Z"
         id="path4485" />
      <path
         class="cls-15"
         d="M131.63,1526.94c.54-.36.22.27,0,.57-.88.87-1.78,1.71-2.68,2.56l-.43.4-.4-.53a13.58,13.58,0,0,1-1.78-3.1,15.55,15.55,0,0,1-.89-3.49,19.36,19.36,0,0,1,.53-7.15,22.79,22.79,0,0,1,1.18-3.4,30.62,30.62,0,0,1,1.65-3.17,46,46,0,0,1,4.13-5.65c1.48-1.76,3-3.42,4.54-5.06s2.9-3.33,4.36-5a83.82,83.82,0,0,0,7.43-11,98.16,98.16,0,0,0,5.53-12.12,96.55,96.55,0,0,0,3.61-12.86,94.38,94.38,0,0,0,1.58-13.32,91.59,91.59,0,0,0-.56-13.44c-.07-.64.33-.06.41.3A83.29,83.29,0,0,1,161,1445a87.82,87.82,0,0,1-1,13.54,90.49,90.49,0,0,1-3.19,13.24,92.46,92.46,0,0,1-5.28,12.6,100.83,100.83,0,0,1-7.2,11.67c-1.41,1.8-2.79,3.66-4.31,5.35l-4.48,5c-2.9,3.29-5.57,6.71-6.93,10.7s-1.65,8.47.46,12.26l-.84-.12C129.35,1528.42,130.48,1527.67,131.63,1526.94Z"
         id="path4487" />
      <path
         class="cls-15"
         d="M439.46,1536.3c.59.29-.11.33-.49.28a32.72,32.72,0,0,1-12.63-7,79.32,79.32,0,0,1-9.95-10.48c-.76-.93-1.49-1.84-2.24-2.81a15.6,15.6,0,0,1-2.1-3.37,8,8,0,0,1-.63-4.41,12.13,12.13,0,0,1,1.37-3.88c2.43-4.48,5.83-7.91,8.39-11.73a25.6,25.6,0,0,0,3.11-6,32.5,32.5,0,0,0,1.54-6.67,99.61,99.61,0,0,0,.42-14.07l-.28-28.48c0-.66.34,0,.38.35l1.63,28.44a93.33,93.33,0,0,1,.07,14.39,33.55,33.55,0,0,1-1.51,7.21,29.26,29.26,0,0,1-3.28,6.66c-2.67,4.08-5.77,7.72-7.61,11.73a8.15,8.15,0,0,0-.79,2.8,4.8,4.8,0,0,0,.57,2.52,17.09,17.09,0,0,0,1.74,2.68l2.13,2.82a106.1,106.1,0,0,0,9,10.76A39.81,39.81,0,0,0,439.46,1536.3Z"
         id="path4489" />
      <path
         class="cls-15"
         d="M459.85,1439.51c0-.71.35,0,.45.39a86.16,86.16,0,0,0,8.83,29.1c1.16,2.25,2.42,4.53,3.51,7a51,51,0,0,1,2.59,7.54,66.63,66.63,0,0,0,2.31,7.2,28,28,0,0,0,3.73,6.32,47.65,47.65,0,0,0,11.46,9.71c4.3,2.78,8.83,5.27,13.22,8.09,2.2,1.38,4.33,2.91,6.4,4.51,1,.86,2,1.65,3,2.59a21.22,21.22,0,0,1,2.58,3,18.14,18.14,0,0,1,3.22,7.19,8.79,8.79,0,0,1-1.75,7.51c-.44.57-.26-.22,0-.55a7.3,7.3,0,0,0,1.31-3.47,10.67,10.67,0,0,0-.31-3.73,18.29,18.29,0,0,0-3.53-6.62,22.37,22.37,0,0,0-2.62-2.71c-1-.8-2-1.6-3-2.35q-3.12-2.22-6.46-4.14c-4.43-2.6-9-4.92-13.52-7.63a47.82,47.82,0,0,1-12.29-10,30.92,30.92,0,0,1-2.35-3.31c-.35-.58-.71-1.16-1.05-1.75s-.62-1.22-.89-1.83a74.36,74.36,0,0,1-2.72-7.43,60.16,60.16,0,0,0-2.65-7c-1-2.27-2.25-4.54-3.36-6.93A64.54,64.54,0,0,1,459.85,1439.51Z"
         id="path4491" />
      <path
         class="cls-15"
         d="M430.05,1436.06c-.13-.11.14-.32.26-.36a61.35,61.35,0,0,1,7.09.81c2.27.31,4.45,1.12,6.75,1.44a52.09,52.09,0,0,0,7,.48,4.83,4.83,0,0,0,2.95-1c.85-.58,1.7-1.64.74-2.4-.12-.1.17-.29.28-.25a1.5,1.5,0,0,1,.69.77,1.7,1.7,0,0,1,0,1.09,4.26,4.26,0,0,1-1.09,1.68,6.56,6.56,0,0,1-1.59,1.16,5.76,5.76,0,0,1-.95.4,7.37,7.37,0,0,1-1,.21,38.85,38.85,0,0,1-7.32.52c-1.23,0-2.47,0-3.72-.12a15.17,15.17,0,0,1-3.64-.73,18.79,18.79,0,0,1-3.4-1.52A14.23,14.23,0,0,1,430.05,1436.06Z"
         id="path4493" />
      <path
         class="cls-15"
         d="M430,1542.87c-.52,0,0-.35.29-.44,7.52-.94,15.05-1.36,22.57-1.6s15.06.16,22.56.16,15-.11,22.49-.61a164.75,164.75,0,0,0,22.31-2.93c.5-.11.08.33-.2.42a146.91,146.91,0,0,1-22.24,4.24c-7.51.9-15.06,1.35-22.6,1.62s-15.07.72-22.59.52S437.51,1543.74,430,1542.87Z"
         id="path4495" />
    </g>
  </g>
</svg>
