<?xml version="1.0" encoding="UTF-8" standalone="no"?>
<svg
   xmlns:dc="http://purl.org/dc/elements/1.1/"
   xmlns:cc="http://creativecommons.org/ns#"
   xmlns:rdf="http://www.w3.org/1999/02/22-rdf-syntax-ns#"
   xmlns:svg="http://www.w3.org/2000/svg"
   xmlns="http://www.w3.org/2000/svg"
   viewBox="0 0 569.88 1559.88"
   version="1.1"
   id="svg4937">
  <metadata
     id="metadata4941">
    <rdf:RDF>
      <cc:Work
         rdf:about="">
        <dc:format>image/svg+xml</dc:format>
        <dc:type
           rdf:resource="http://purl.org/dc/dcmitype/StillImage" />
        <dc:title></dc:title>
      </cc:Work>
    </rdf:RDF>
  </metadata>
  <defs
     id="defs4726">
    <style
       id="style4724">.cls-1{isolation:isolate;}.cls-2{fill:#718d8e;}.cls-11,.cls-12,.cls-2,.cls-3,.cls-4,.cls-8,.cls-9{fill-rule:evenodd;}.cls-3{fill:#d6a390;}.cls-4{fill:#005159;}.cls-5,.cls-9{fill:#c1472b;}.cls-6{fill:#d7d7ce;}.cls-7{opacity:0.21;mix-blend-mode:multiply;}.cls-8{fill:#642d0f;}.cls-10{opacity:0.42;mix-blend-mode:overlay;}.cls-11{fill:#f6d5b6;stroke:#254b52;stroke-miterlimit:10;}.cls-12{fill:#e9ae8c;}.cls-13{fill:#e8c3a7;}.cls-14{fill:#211f1f;}.cls-15{fill:#212121;}.cls-16{fill:#010101;}.cls-17{fill:#201a3e;}.cls-18{fill:#c7c391;}.cls-19{fill:#2a254a;}</style>
  </defs>
  <g
     id="newdad_torso_neutral"
     class="cls-1">
    <g
       id="newdad_torso_neutral_colour">
      <path
         class="cls-2"
         d="M131.8,1518.46c.21-.1.56-.16.61-.32,2.24-6.63,6.76-11.83,10.88-17.25,13.76-18.11,19.58-38.82,20.16-61.25a52,52,0,0,0-.42-5.84c-.12-1.3.22-1.56,1.5-1,10.6,4.42,20.78,2.9,30.68-2.29,1.42-.75,4.33-2.64,5.33-1.87,1.15.9,0,3.87-.58,5.16a25.57,25.57,0,0,0-2.29,16c1.39,9.54,5,18.25,8.69,27,1.17,2.79,1.4,6,1.88,9a74.3,74.3,0,0,1,.95,18.72c-.85,8.73-5.37,15-13,19-5.59,3-11.71,3.84-17.91,4.2-10.69.6-21.27-.87-31.9-1.59-5.43-.36-10.3-1.82-14.54-5.27Z"
         id="path4728" />
      <path
         class="cls-2"
         d="M520.45,1532.46c0,1.19,0,4.44,0,5.63-1.19,2-4.94,1.72-6.83,2a142.89,142.89,0,0,1-20.77,1.64c-4.32,0-8.66-.39-13-.08-19,1.33-28-.51-40.22-4.57-6.75-2.24-9.94-7-13.93-13.13-1.5-2.29-3.28-4.41-5-6.57a12.13,12.13,0,0,1-2.19-10.85,20.57,20.57,0,0,1,1.47-4.76c5.84-11.41,6.75-23.69,6.93-36.21.13-8.66-.26-17.33.6-26,.21-2.16.9-2.54,3-2.12,9.32,1.87,18.66,2.57,27.92-.37,2.15-.68,2.61.1,2.81,2.2.87,9.19,2,18.35,3,27.52.13,1.16.27,1.87,1.56.75s1.32.4,1.64,1a41.33,41.33,0,0,1,4.43,13.2c1.5,7.84,4.38,15,9.55,21.16a15.83,15.83,0,0,0,3.26,3.07c7.75,5.19,17.46,7.73,25.14,13,4.69,3.24,7.25,3.65,9.28,9.26"
         id="path4730" />
      <path
         class="cls-3"
         d="M165.49,867.83c-1.87,7.18-4.87,32.26-5.31,38.39-1.09,15.15-2.45,30.27-3.64,45.41-.9,11.39-1.71,22.79-2.55,34.19q-1.86,25.33-3.69,50.69c-.88,12.35-1.69,24.72-2.54,37.07q-1.84,27-3.7,54.06c-.71,10.45-1.24,20.91-2.15,31.34a274.62,274.62,0,0,0-.06,43.59c.94,13,2.11,26,3.17,39,.9,11.06,1.35,22.18,3,33.17q7.31,48.35,12.39,97a254.69,254.69,0,0,1,.58,42.16,4.28,4.28,0,0,0,1.49,3.84,17.78,17.78,0,0,0,4.69,2.83,24,24,0,0,0,14.83.81c6-1.4,11.93-3,16.37-7.84,1.66-1.81,1.45-3.3,0-5a19,19,0,0,1-4.47-11.15c-.72-15.33.46-31.18,0-46.52-.42-13.91-1.33-27.74-1.48-41.65-.28-26.39-.31-51.25.43-77.65.58-20.38,1.83-41.72,3.27-62.06,1.56-22.08,4-43.54,6.8-65.5,3.69-28.64,9.51-56.51,15.84-84.67,8.25-36.74,17.92-71.5,32.87-106.11,2.56-5.94,6.37-12.81,8.73-18.83,2.15-5.49,6.22-7.44,9.09-12.49,2.73-4.8,4.38-6.29,8.3-2.87,17.37,15.17,29.3,33.17,41.19,52.92,13.89,23.07,25.73,46.67,34.35,72.09,6.85,20.22,14.83,37.92,20.65,58.45,6.34,22.37,13.34,44.56,19,67.11a694.55,694.55,0,0,1,14.14,73.64c2.5,17.89,4.76,35.8,6.47,53.78,1.35,14.24,2.48,28.5,3.59,42.76,1.32,17,2.48,34.11,3.76,51.16.86,11.4,1.92,22.78,2.65,34.18.43,6.52,1.8,13,1,19.59a99.61,99.61,0,0,0-.3,12.46c.05,6.06,3.28,9.59,8.76,11.43a22,22,0,0,0,4.9,1.11c6.16.6,12.06-.6,17.91-2.39,1.55-.48,3.31-2.17,3.28-3.29-.24-8.47-.76-15.93-.93-24.4-.35-18.07-.26-36.35-.47-54.42-.3-27.11-.93-54.09.9-81.15.69-10.21,1.48-19.84,2.44-30a278.33,278.33,0,0,0,.16-45.56c-.45-6.27-.26-12.62-1.81-18.8-6.68-26.57-13.5-53.11-20-79.74-9.59-39.37-14.23-79.93-21.47-119.79-2.06-11.32-4.7-21-7.78-33.52C397.89,886.4,387.67,851,383.94,842.4c-9-20.68-18-40.9-21.55-63.23-.31-2-.93-2.58-2.89-1.71-8.09,3.6-16.7,4.67-25.45,5.21-8.55.52-17.1.13-25.65.29-3.19.07-6.38-.21-9.55.51-1.38.32-3.1.53-4.24-.24-2.31-1.58-4.86-1.33-7.35-1.62-6-.71-12.25-.4-17.87-3-6.07-2.86-12.61-4.37-18.69-7.32-7.59-3.69-15.71-6.28-23.53-9.52a67.23,67.23,0,0,0-29.51-5.09c-1.09.06-2.47-.21-3,1.05-2.49,6.17-10.4,40.89-13.38,53.31C180.24,815.41,166.32,864.62,165.49,867.83Z"
         id="path4732" />
      <path
         class="cls-4"
         d="M237.74,422.59c-1.71,4.09-1.49,4.65-3,8.82-3.05,8.64-3.88,15.26-5.88,24.18-3.14,14-4.17,28.55-4.85,42.71-.75,15.47-2.72,30.3-4,45.74-.64,7.57-1.37,15.13-2.11,22.69-.81,8.29-1.73,16.85-2.35,25.26-.47,6.35.25,14.84-6,18.72-1.16.71-3.53,1-4.26-.23s.69-1.52,1.83-2c-2.71-1.47-5.09-2.91-7.59-4.1-7.76-3.7-15.67-7-24.28-8.18-1.8-.25-5,.25-5.23,2.91-.25,3.36-8.89-.08-8.81-2.52a14.86,14.86,0,0,1,2-7.52c5.06-8.53,10.27-17,11.68-27.18.29-2.08-.88-3.59-.78-5.61.78-15,3-29.85,4.8-44.73,2.19-18.16,4.35-36.32,7-54.41,2.28-15.39,3.1-30.93,5.92-46.27,2.13-11.57,2.79-23.41,4.1-35.13a65.43,65.43,0,0,1,2.66-12.45A29.72,29.72,0,0,1,212.3,346c10.72-6.33,22.48-9.69,34.49-12.36,2.27-.5,4.55-1,6.84-1.37,1.53-.25,4.16-1.86,3.78.5s-.61,5.85,1.71,6.74c10.79,4.12,21.33,8.84,32,13.27a15.89,15.89,0,0,0,1.57.61c3.27,1,4.22.55,5.63-2.55,2.58-5.7,5.13-11.41,7.72-17.11.28-.6.31-1.64,1.24-1.51.66.1,2.42.58,2.56,1.17,1.71,6.83,5,12.48,5.64,19.6.15,1.67-.91,3.22.59,2.42a31.81,31.81,0,0,0,5.91-4.1c7.15-6.2,14.34-12.37,21.46-18.62a4.65,4.65,0,0,1,4.3-1.17c14.07,2.18,27.07,7.83,40.43,12.31a5,5,0,0,1,2.06,1.59,25.66,25.66,0,0,1,6,11.9,86.61,86.61,0,0,1,1.94,13.06c.34,4.62,1.48,9.17,2.1,13.78,1,7.38,2.06,14.77,2.74,22.19,2.3,25.23,6.33,50,9.14,75.21a253.57,253.57,0,0,1,1.26,40c-.77,15.65-1.84,29.59,3.68,44.52a89.81,89.81,0,0,1,4.35,15.57,61.2,61.2,0,0,1,.71,11.18c-.08,1.94-1.63,3.86-2.71,5.55-.57.89-.65-2.53-3.29-4.76-4.74-4-20.52-8.74-33.69-4.28A2.22,2.22,0,0,0,381,590.9c-.19,1-.63.75-.82,1.1a3.72,3.72,0,0,1-1.52,1.4c-.59.25-1-.31-1.42-.69a7.93,7.93,0,0,1-2.29-6.58c.36-6.81.8-13.63.27-20.45-.41-5.35-1-10.68-1.56-16a19.65,19.65,0,0,1-.17-2.15c.06-24-.62-48-1.37-72-.41-13.15-1.15-26.3-1.07-39.44,0-8.89-1.73-23.37-2.47-24.54-.54-.86-.44.82-.48,1.63-.82,13.94.12,24-.55,37.94-.92,19.32-1.55,38.1-2.53,57.41-1.25,24.52-2.42,49.25-3.71,73.77-.82,15.62-1.57,31.19-2.23,46.82-1,24.14-1.93,48.15-2.27,72.3,0,2,0,4-.2,6a11.62,11.62,0,0,0,2.07,8.08c3.05,4.78,3.26,10.6,1.74,16.25a8.29,8.29,0,0,1-.36.89c-2.38,5.81-2.38,5.81,2.73,9.07a16.7,16.7,0,0,1,3.8,3.31c3.26,3.84,2.94,7.43-1.57,9.67-4.23,2.1-8.36,4.56-13.25,5.33-5.73.9-11.18-.18-16.68-1.28-9.27-1.85-18.54-3.75-27.82-5.58-1.74-.35-3.21-.59-3.08-3,.08-1.59-1.15-2.17-2.7-1.73a4.16,4.16,0,0,0-1.57.58c-2.65,2.33-5.45,1.29-8.31.57-16.13-4-31.79-9.49-47.33-15.34-9.7-3.66-19.9-6.52-30.34-6.58-3.86,0-21.1,4.8-17.44-4.14,1.71-4.16,5.73-7.39,8.63-10.7,3.82-4.34-1.72-12.52,3.43-15.49,7-4,1.63-14.35.26-20.89-1.84-8.86,4.54-13,6.67-21.57,2.67-10.78,4.35-21.87,6-32.84,3.4-22.28,5.81-44.7,8.69-67,3.05-23.63,5.68-47.31,7.47-71.07,1.18-15.69,2.06-31.39,2.47-47.12.18-6.78-.8-8.55-1.22-15.3l-.25-.05"
         id="path4734" />
      <path
         class="cls-5"
         d="M362,772c-2.87,4.76-8,5.43-12.66,6.78-5.91,1.72-12.1,1.84-18.21,2-8.82.22-17.66-.09-26.47.31-6.34.28-4.05-3.85-3.72-6.66.79-6.88,1.74-13.77,3.11-20.56.43-2.15,2.91-.81,4.39-.61,12.77,1.74,25.34,4.81,38.21,5.71a22.41,22.41,0,0,0,11.92-2.29c1.79-.93,2.59.56,2.74,4.55.08,2.16.45,4.31.69,6.46Z"
         id="path4736" />
      <path
         class="cls-5"
         d="M196.3,752.17c1.29-3.12,3.14-7.51,4.91-11.93.7-1.76,1.24-3.57,1.85-5.36,1.29-3.74,4.75-3.27,7.54-3.65,15.83-2.15,30,4.38,44.51,8.91,1.8.56,5.68.25,4.89,2.88-2.08,6.94-2.32,14.14-4,21.08-1.27,5.2-1.3,5-8.65,2-9.85-3.95-19.59-8.35-30.14-10.23a63.3,63.3,0,0,0-19.43-.63C196.46,755.46,195.79,754.94,196.3,752.17Z"
         id="path4738" />
      <path
         class="cls-5"
         d="M276.13,761.29c2.25,2.71,5,2.36,7.27,2.75,4.05.7,8.17,1,12.26,1.51.84.11.83.87.85,1.45a37,37,0,0,1-1.16,11.42c-.6,2.22-2.49,1.29-3.83,1.3-10.57.11-20.17-3.44-29.67-7.66-3.52-1.56-1.88-3.9-1.57-5.91,1.09-7.18,2.39-14.33,3.74-21.46.33-1.74,1.89-1.16,3-.9,9.88,2.39,19.73,4.84,29.6,7.22,1.47.35,2.16,1,1.94,2.61a52.73,52.73,0,0,0-.72,7.49c.07,4.5-2.77,4.06-5.61,3.51C287.08,763.64,282,762.51,276.13,761.29Z"
         id="path4740" />
      <path
         class="cls-6"
         d="M299.58,323.05a23.12,23.12,0,0,0,3.19.38c2.94-.05,2.83,1.91,2.19,3.67-2.9,8-6,16-8.95,24-.7,1.88-2.06,1.13-3.1.77-11-3.83-22.2-7-32.84-11.8-2.9-1.3-2.45-6.2-1.3-8.65,4.24-5.39,5.15-10.34,9.13-15.73,1.22-1.65,2.37-1.89,4-.75A36.33,36.33,0,0,0,293,322.4l.61.11,1.46.18h.52l3.44.35Z"
         id="path4742" />
      <path
         class="cls-6"
         d="M346.57,328.48c-1.08,5.1-5.49,7.22-9,10.12-.88.71-1.81,1.35-2.72,2l-.17.12c-5.73,4.2-11.43,8.43-17.2,12.58-1.63,1.17-2.16.4-2.73-3.66A203.07,203.07,0,0,0,310,326.22c-.36-1.36-.3-2.49,1.43-2.77l3.44-.15c9.09-.69,16.9-4.36,23.74-10.28h1.07c3.29,4,5.15,8.72,6.89,13.51Z"
         id="path4744" />
    </g>
    <g
       id="newdad_torso_neutral_shading_dark"
       class="cls-7">
      <path
         class="cls-8"
         d="M240.81,420.72c4.9-2.25,15.15,14.06,21.05,24.42A32,32,0,0,1,266,461.93l-7.63,43.33a59.12,59.12,0,0,0-.7,15l-5.16,53.16a85.74,85.74,0,0,0-.08,15.94l-.06,53.23c.71,8.18,8.08,36.73,7.81,44.93l-2.13,16.68c-.22,8.29-7.14,28.28-15.36,27.24l-39.11-4.95c-4-.51-8.61-2.27-5.94-5.33,0,0,10-7.29,10-7.34,2.75-3.06,0-10.1,2.77-12.93,12.55-12.84-1.74-22.32,1.22-27.77,9.22-17,20-80.19,21.41-98.78s3.19-40.55,6.07-70.62c2.82-29.51,2.63-66.12,2.14-74.54Z"
         id="path4747" />
      <path
         class="cls-8"
         d="M196.94,599.27a7.2,7.2,0,0,0,9.32-7.88C204.15,577.6,193.2,555.8,198.6,545c7.18-14.33,4.46-34,5.82-51s-5.84-32.06-2.82-51.31c2.82-17.91,27.5-65,12.32-90.64-8-13.62-14.93,30.72-15.65,37-2.45,20.93-19.36,168.25-21.79,176.35-4.09,13.6-11.07,23-12.82,27.29-1.62,4,1.74,3.84,5.32,2.83a29.53,29.53,0,0,1,16,0Z"
         id="path4749" />
      <path
         class="cls-8"
         d="M378.54,422.53c3.6,15.68,3.68,54.3,4.44,66.53.12,1.92,3.22,36.94,5.31,47.32,1.39,6.93,13.55,26.56,13.55,26.56.82,9.46,1.76,15.24-10.56,20.38l-11.39,2.75c-1.3.64-2.15,4.55-3.1,3.46a3.21,3.21,0,0,1-.79-2.34c.62-10.35,3.43-21.45,2-39.36-1.88-23.55-.29-71.81-1.42-83.31-.81-8.23-2.95-33.25-5.1-47.82-.52-3.56-3.15-12.61,0-10.88C371.48,405.82,375.42,409,378.54,422.53Z"
         id="path4751" />
      <path
         class="cls-9"
         d="M198.66,773.56a7.1,7.1,0,0,1,10.21-4.27c15.89,8.64,29.47,13.7,31.92,24,5.8,24.48-27.91,27-36.64,71.43s-38.45,237.18-40.53,266.78,15.19,239.74,10.44,254c-.05.15-.09.29-.14.43-2.52,7.43-13.49,5.83-13.82-2-.88-21-2.55-47.87-5.62-63.13-5.55-27.54-19-176.69-13.47-203.13s21.91-194.75,20.54-203.09C160.38,907.48,189.78,804.42,198.66,773.56Z"
         id="path4753" />
      <path
         class="cls-9"
         d="M303.36,905.89c-6.16-14.71,15.91-24.22,22.78-9.83,28.07,58.81,90.64,214.2,98.21,248.53,16.37,74.19,33.49,258.92,18.46,278s-18.79,6.9-18.49-5.55,6.1-119.66-10.62-237.73c-7-49.09-29.47-96.1-47.66-143.18-18-46.66-47.13-109-60-125.79A20.52,20.52,0,0,1,303.36,905.89Z"
         id="path4755" />
    </g>
    <g
       id="newdad_torso_neutral_shading_light"
       class="cls-10">
      <path
         class="cls-11"
         d="M351.94,405.6c-18.87,5.87-16.19,23.69-22,37.56s3.17,137.17-3.59,214.55c-2.59,29.62-31,79.21-21.66,85.78,13.1,9.19,26.46,9.19,43.36,10.5,9.27.71,25.67,3.67,15-5s-9.26-11.78-10-17.57,6.31,3.33,2.1-11.39-2.1-55.38-1.4-72.2,3.9-212.86,6.86-227.35S351.94,405.6,351.94,405.6Z"
         id="path4758" />
      <path
         class="cls-11"
         d="M345.58,331.87c-5.2,7.47-10.54,12.17-11.87,15s-.81,3.25,11.87,7,12,2.37,22,8,13.3,10.9,19.42,18.86,10.69,39.49,11,46.55,3.18,57.41,3.39,79.53a280.9,280.9,0,0,0,3.82,46.56c2,13.2,5.19,22.67,3.47,28.35s-.37,1.9,5.93,6.47,8.76,3,6.34-6.68-11.34-26.59-12.27-42.7c-.54-9.5,1.85-30.32.93-47.4-.75-13.76-4.91-62.4-5.74-69.88s-8.39-36.13-10.74-53.08c-1.28-9.17-3.79-25.31-12.85-25.83C368.8,342,346.8,330,346.8,330"
         id="path4760" />
      <path
         class="cls-11"
         d="M223,420.51c-3.61,8.61-4.65,36.62-7,49.79S212.36,512.41,211,523s-5.16,51.12-5.42,57.33.53,15.32-2.74,19.7-3.69,12.15,5.34,8.63,8-15.44,8.19-21.9,2.6-49.64,2.5-57.4.21-48.25,4.73-59.06,6.56-23.53,7.92-34.83,6-14.11,5.09-18.35S223,420.51,223,420.51Z"
         id="path4762" />
      <path
         class="cls-12"
         d="M348,790.14c-19.18,4.63-30.88,2.83-24,24.13s17.13,51,27.9,77.16,66.15,208,70.23,238.83,20.31,105,17.48,134.62,1.68,105,0,134.88,14.44,38,16.81,26.73,12.75-212.46,5.68-242.73-44.65-158.11-48.44-183.58-27-137.87-38-168.74S348,790.14,348,790.14Z"
         id="path4764" />
      <path
         class="cls-12"
         d="M233.82,864.73c-8.75,27.45-51.24,234.67-53.29,265.53s-8.77,241-6.47,255.24-14.05,14.86,2.3,14.26,7.33-52,11.71-71.35,9.64-196.48,14.85-224.24,31.84-161.87,43-182.13,23.12-37.95,22.32-50.85S233.82,864.73,233.82,864.73Z"
         id="path4766" />
    </g>
    <g
       id="newdad_torso_neutral_skin">
      <path
         class="cls-13"
         d="M429.44,862.49c0,3.3,1.58,15,1.58,18.28-1.68,6,1.42,9.57-1.84,14.8-2.18,3.51-2.57,14-4.91,17.45-.89,1.27-2.94,3.1-4.73,2.26s-1.14-4.34-1-6.24c0-.3.69-1.48.64-1.79-.36.19-1.36,2.76-1.52,3.06-1.88,3.27-.71.86-2.52,4.17-.85,1.54-2.84,2.63-6,4-2-.9-4.21-.27-3.31-2.65a1.44,1.44,0,0,0,0-1.17c-.67,2.07-.82,4.56-2.12,6.11-2.79,3.34-3-.95-4.42-1.9l-.42-.89c-.35-1.31,1.29-2.21.94-3.52-.05-.15,1.23-3.73,1.16-3.87-.12.2-3.67,3.4-3.71,3.63-.5,2.45-1.9,3.61-4.3,2.52-1.89-.85-2.07-2.91-2.48-4.71l-.05-.89,0-1.25v-1.08l0-1.26a199.85,199.85,0,0,1,4.85-36.45c1-4.64,1-9.34,1-14.07,0-1.38-.51-4.33.31-5.57-1.75,2.63-4.91,27.07-10.39,28-.41.59-1.67.15-2.51-.31a4.53,4.53,0,0,1-2.49-3.83c-.06-13-.62-29.47,5.17-41.52,1.87-3.91,5.46-6.78,7.86-10.34,3-4.49,6.31-15.25,7.11-20.27,1.75-11,.48-18.46.08-29.26-1.13-9.39-1.07-13.82-2-20.71-1.64-12-4.32-23.9-5.41-36-1.37-15.23-3.17-30.42-4.8-45.63-1.37-12.84-2.67-25.69-4.16-38.52-1.34-11.59-2.64-23.17-3-34.84-.08-2.91-.87-4.21-.83-7.13.62.06,1-2.64,4.31-4,4.87-2.09,9.44-.9,15.08.32,4.81,1,5.21,1.43,10.18,3,.89,8.89,3.59,23.65,4.19,32.56,1.31,19.53,2.51,39.07,3.45,58.63.77,15.88,1.66,31.77,1.72,47.69,0,11,1.17,22,.71,33.06-.36,8.66-.64,17.34-.52,26,.14,10.09-6.82,11.56-1.55,20.58,3.37,5.78,1.79,6.28,4.81,12.53,1.29,11.1,3.72,11.39,3.72,22.56C427.36,856,429.31,860.58,429.44,862.49Z"
         id="path4769" />
      <path
         class="cls-13"
         d="M145.82,838c.05-3.77.81-5.14,1.11-8.86.78-9.59,1.38-18.85,4.46-28,2.48-7.33,6-14.29,8.52-21.61,9.41-27.4,4.18-57.3,3.4-86.26-.86-31.72,3.75-63.31,8.36-94.72.16-1.07.41-2.3,1.36-2.84a3.55,3.55,0,0,1,2.41-.12,85.47,85.47,0,0,1,27.7,10.44,1.92,1.92,0,0,1,.93,1.81c-4.14,52.47-26.83,103.87-19.42,156,1.33,9.33,1.67,19.43,6.18,27.71,2.9,5.32,7.58,11.12,9.79,16.77a55,55,0,0,1,3.94,21.91c0,6.58.92,21.46-5.66,21.37-3.48-.06-5.38-8.32-7.23-13.26-1.37-3.67-3.28-9.55-9-13.34,1.54,10.79,3.89,17.79,6.86,29.53,1.44,5.67,4.18,19.87,4.3,25.72.05,2.56,1.31,13.7-4.67,6.58-.67-.8-2.09-.08-2.49.88-.22.52-.61,1-.78,1.45-3.22,9.33-7.85.75-10.77.83-2.3.06-3.52.21-5-1.56-.75-.91-4.31-12.2-4.63-11.29,1.43,5.65-3,11.26-4.22,8.29C159,880,157,869.73,155.38,863.94,153.05,855.68,145.73,845.06,145.82,838Z"
         id="path4771" />
    </g>
    <g
       id="newdad_torso_neutral_outline">
      <path
         class="cls-14"
         d="M258.6,336.49c-.11.12-.32-.13-.37-.24a17.52,17.52,0,0,1,.35-3.11,26,26,0,0,1,.77-2.95,16.29,16.29,0,0,1,1.17-2.79c.47-.89,1-1.75,1.5-2.63.94-1.77,2-3.53,3.09-5.23a31,31,0,0,1,3.83-4.78l1-1-.3,1.28a2.59,2.59,0,0,1-1.16,1.63c-.13.09-.2-.27-.16-.33a2.14,2.14,0,0,0,.55-1.4l.69.3a37.41,37.41,0,0,0-2.74,5.25c-.77,1.82-1.56,3.64-2.21,5.54-.32.95-.59,1.92-.94,2.85a16.67,16.67,0,0,1-1.28,2.7A21.67,21.67,0,0,1,258.6,336.49Z"
         id="path4774" />
      <path
         class="cls-14"
         d="M294.75,351.9c.11-.07.15,0,.19.08a2.54,2.54,0,0,1,.1.25c0,.2.1.37.2.38l-.86.05a37.55,37.55,0,0,1,1.77-7.58c.81-2.43,2.17-4.64,3.16-7l6.18-14.14c.07-.17.32.11.31.21q-1.67,7.55-4,14.92a62.56,62.56,0,0,1-2.42,7.35,30.67,30.67,0,0,1-4.13,6.63l-.6.73-.26-.67A1,1,0,0,1,294.75,351.9Z"
         id="path4776" />
      <path
         class="cls-14"
         d="M316.72,355.28c0-.13,0-.15.14-.15s.23,0,.26,0c.19,0,.39-.09.3-.15l-.16.51a34.46,34.46,0,0,1-3.2-7.22c-.81-2.47-1-5.1-1.59-7.63q-1.59-7.64-2.87-15.36c0-.18.33-.09.38,0q2.7,7.32,5.09,14.73c.76,2.48,1.87,4.87,2.39,7.41a35,35,0,0,1,.78,7.82v.42l-.16.1a1,1,0,0,1-.85.07A.83.83,0,0,1,316.72,355.28Z"
         id="path4778" />
      <path
         class="cls-14"
         d="M317.58,355c-.22.09-.21-.28-.15-.43a63.11,63.11,0,0,1,7-7.12c2.43-2.23,5.26-4,7.84-6q7.76-6.15,15.2-12.77c.17-.15.25.23.18.35A161,161,0,0,1,334,343.56a59.86,59.86,0,0,1-7.52,6.63A39.83,39.83,0,0,1,317.58,355Z"
         id="path4780" />
      <path
         class="cls-14"
         d="M348.16,329.87c0,.12-.3.15-.41.14a13,13,0,0,1-3.48-3.65,20.65,20.65,0,0,1-1.85-4.47c-.59-1.49-1.16-3-1.7-4.53a24.44,24.44,0,0,0-1.78-4.42c-.06-.09.25-.24.31-.2a8.77,8.77,0,0,1,1.66,1.89l1.37,2q1.35,2,2.61,4.09a19.4,19.4,0,0,1,2.46,4.15,15.42,15.42,0,0,1,.64,2.38A10.59,10.59,0,0,1,348.16,329.87Z"
         id="path4782" />
      <path
         class="cls-14"
         d="M309.14,324c-.15-.12.15-.31.28-.35,2.68.19,4.75-.93,7.24-1.85s5-1.42,7.53-2.31,4.95-1.85,7.38-2.92,4.82-2.26,7.19-3.51c.16-.09.19.28.11.36a67.42,67.42,0,0,1-13.73,8.63c-1.23.59-2.46,1.2-3.7,1.77a20.64,20.64,0,0,1-3.89,1.29,15.59,15.59,0,0,1-4.27.46,7.77,7.77,0,0,1-2.23-.41A5.3,5.3,0,0,1,309.14,324Z"
         id="path4784" />
      <path
         class="cls-14"
         d="M269.4,315.46c-.17-.14.16-.3.31-.32,3.18.68,6.13,1.6,9.08,2.49s5.75,2.19,8.73,3a84.44,84.44,0,0,0,18.39,3.14c.22,0,0,.34-.11.37a65.44,65.44,0,0,1-19-.89,38.42,38.42,0,0,1-9.3-2.5A27.89,27.89,0,0,1,269.4,315.46Z"
         id="path4786" />
      <path
         class="cls-15"
         d="M174.36,555.71c-.29,1.49-.34-.05-.3-.92.6-5.47.88-11,1.4-16.48.27-2.75.59-5.51,1-8.26s.74-5.4,1-8.12c.48-5.45.66-10.95,1.11-16.49s1.23-11.05,2.11-16.51l2.75-16.28c.84-5.4,1.54-10.84,2.19-16.3,1.3-10.91,2.33-21.91,3.83-32.87.76-5.5,1.65-10.91,2.43-16.37l2.33-16.36,2.32-16.37c.41-2.73.83-5.46,1.29-8.19a77.65,77.65,0,0,1,1.74-8.19,24,24,0,0,1,3.81-7.61,17,17,0,0,1,3-3.08,18,18,0,0,1,3.71-2.16c2.61-1.13,5.27-1.84,7.89-2.7l7.88-2.49L257.42,330c1.44-.45.11.33-.71.62l-31.32,10.6-7.83,2.64a60.76,60.76,0,0,0-7.63,2.89,14.93,14.93,0,0,0-5.8,5.21,22.78,22.78,0,0,0-3.15,7.29c-1.21,5.26-1.85,10.78-2.59,16.21l-2.06,16.4-2.09,16.41c-.71,5.47-1.55,10.93-2.21,16.37-1.33,10.9-2.06,21.89-3.16,32.89-.55,5.5-1.2,11-2.08,16.48s-1.94,10.89-2.89,16.3-1.83,10.8-2.4,16.23-1,11-1.71,16.47c-.36,2.75-.86,5.53-1.43,8.21s-1,5.38-1.4,8.1C176.14,544.79,175.48,550.29,174.36,555.71Z"
         id="path4788" />
      <path
         class="cls-14"
         d="M200.74,610.43c-.28,0-.07-.34.07-.46.94-.44,1.9-.81,2.85-1.17l.72-.26c.25-.08.4-.19.28-.17a.41.41,0,0,0-.2.21.58.58,0,0,0-.05.31c0,.11-.07,0-.18,0l-1.19-.58-1.34-.67L199,606.27c-3.57-1.72-6.93-3.83-10.62-5.29A54.19,54.19,0,0,0,177,597.81c-2-.25-4-.65-5.7-.06a2.93,2.93,0,0,0-1.9,1.72,2.24,2.24,0,0,0,.36,2.53c.19.18-.2.28-.37.17a2.88,2.88,0,0,1-.64-3.1,3.64,3.64,0,0,1,.88-1.45,4.64,4.64,0,0,1,1.41-.94,8.78,8.78,0,0,1,3.19-.62c1.06,0,2.07,0,3.11.06a49,49,0,0,1,12.15,2.35,47.1,47.1,0,0,1,11.36,4.89c.88.55,1.73,1.12,2.56,1.73.42.3.84.61,1.24.92l.61.47.15.13.22.17a3.78,3.78,0,0,1,.4.4,2.4,2.4,0,0,1,.62,1.39,1.66,1.66,0,0,1-1,1.63,2.75,2.75,0,0,1-1,.17l-.76,0C202.81,610.44,201.78,610.48,200.74,610.43Z"
         id="path4790" />
      <path
         class="cls-14"
         d="M238.32,421.82c.44-1.05.32.13.18.77-1.2,4-2.57,7.87-3.54,11.89-.5,2-1.12,4-1.55,6l-1.35,6c-.49,2-.8,4-1.19,6.06s-.8,4-1.09,6.08c-.6,4.08-1.29,8.14-1.74,12.24-2,16.35-3.41,32.84-4.44,49.38s-2,33.13-4.16,49.61c-1.21,8.21-2.37,16.43-3.67,24.61l-1,6.14a26.34,26.34,0,0,1-1.51,6.12,9.94,9.94,0,0,1-1.66,2.73,7,7,0,0,1-5.78,2.37,4.5,4.5,0,0,1-2.88-1.33c-.39-.46-.32-.5-.11-.39a4.07,4.07,0,0,1,.39.25,4.22,4.22,0,0,1,.44.28,5.5,5.5,0,0,0,5.66-.09,8,8,0,0,0,3.48-4.69,32.2,32.2,0,0,0,1.15-6l.79-6.16c1.07-8.22,2-16.44,3-24.66,1.68-16.46,2.36-33,3.1-49.56.36-8.28.72-16.58,1.22-24.87s1.3-16.59,2.61-24.83C227.15,453.3,231.4,437,238.32,421.82Z"
         id="path4792" />
      <path
         class="cls-14"
         d="M176.16,542c.15-.36.33.09.36.33-.34,2.8-.58,5.55-.83,8.32s-.44,5.53-.74,8.32A62.42,62.42,0,0,1,171,575.53a32,32,0,0,1-4.14,7.62c-1.69,2.4-3.76,4.27-5.14,6.53a7.86,7.86,0,0,0-1.27,3.56,6.11,6.11,0,0,0,.2,1.85,6.46,6.46,0,0,0,.82,1.72c1.52,2.15,4.1,3.49,6.59,4.65.35.16-.12.32-.34.26a26,26,0,0,1-3.88-1.69,10.62,10.62,0,0,1-3.38-2.76,6.86,6.86,0,0,1-1.41-4.3,9.57,9.57,0,0,1,1.3-4.33c1.41-2.6,3.4-4.67,4.76-6.95a31.26,31.26,0,0,0,3.4-7.29c1.69-5.16,2-10.67,3.06-16.15S173.69,547.11,176.16,542Z"
         id="path4794" />
      <path
         class="cls-14"
         d="M240.27,459.15c.11-1.69.34,0,.4,1,.14,24.66-1.8,49.3-4.63,73.78s-6.92,48.79-10.56,73.13l-2.76,18.26c-.93,6.07-1.8,12.19-3,18.27a89.88,89.88,0,0,1-5.37,17.85c-1.23,2.89-2.74,5.57-3.74,8.37a12.57,12.57,0,0,0-.43,8.47c.88,2.79,2.67,5.37,3.6,8.52a11.43,11.43,0,0,1,.39,4.88,6.67,6.67,0,0,1-2.52,4.36c-1.32,1-2.76,1.57-3.62,2.62a5,5,0,0,0-1,1.76,9.13,9.13,0,0,0-.37,2.12c-.11,1.47,0,3,0,4.57a12.37,12.37,0,0,1-.73,4.74,10.22,10.22,0,0,1-2.94,3.82c-1.21,1-2.51,1.86-3.76,2.74a19,19,0,0,0-3.46,2.89,8.79,8.79,0,0,0-1.25,1.8,3.81,3.81,0,0,0-.39,2,2,2,0,0,0,1.13,1.52,12.75,12.75,0,0,0,2.11.73,45,45,0,0,0,4.46,1,43.1,43.1,0,0,0,9.15.57c1.68-.1,0,.35-.94.41a42.8,42.8,0,0,1-9.25-.6,44.35,44.35,0,0,1-4.53-1,4.67,4.67,0,0,1-2.19-1.11,2.94,2.94,0,0,1-.67-2.46,5.53,5.53,0,0,1,.92-2.27,10.36,10.36,0,0,1,1.5-1.86,28.06,28.06,0,0,1,3.66-2.92,28.33,28.33,0,0,0,3.54-2.83,8.23,8.23,0,0,0,2.19-3.67c.69-2.85-.1-5.92.29-9.15a7.87,7.87,0,0,1,.69-2.41,6.59,6.59,0,0,1,1.57-2c1.3-1.08,2.75-1.67,3.64-2.67a5.64,5.64,0,0,0,1.37-3.77,11.68,11.68,0,0,0-.78-4.22c-1-2.74-2.88-5.34-3.74-8.52a12.77,12.77,0,0,1-.29-4.92,20.91,20.91,0,0,1,1.23-4.66c1.13-3,2.58-5.67,3.67-8.48a93.46,93.46,0,0,0,4.81-17.58c1.11-6,1.88-12.1,2.74-18.2l2.54-18.29c3.37-24.39,6.59-48.79,9.85-73.16S238.63,483.72,240.27,459.15Z"
         id="path4796" />
      <path
         class="cls-14"
         d="M239.07,470.26c-.14.24-.32-.12-.36-.29.44-3.93-.12-7.6-.33-11.56s.13-7.82.14-11.74l0-11.75-.08-11.78c0-.27.34,0,.38.13,1.09,7.78,1.9,15.62,2.41,23.47.25,3.93.78,7.86.54,11.8a44.14,44.14,0,0,1-.58,6A15.55,15.55,0,0,1,239.07,470.26Z"
         id="path4798" />
      <path
         class="cls-14"
         d="M302.67,749.4c.59.08,0,.35-.35.42a51.26,51.26,0,0,1-13.19-.71,92.08,92.08,0,0,1-12.81-3.25c-8.39-2.65-16.21-6.51-24.36-9.35a114.64,114.64,0,0,0-51.06-5.92c-.59.06-.05-.34.29-.41a110,110,0,0,1,26.15-1.2,111.08,111.08,0,0,1,25.81,5c8.37,2.64,16.56,5.67,24.61,8.71S294,748.33,302.67,749.4Z"
         id="path4800" />
      <path
         class="cls-14"
         d="M365.15,555.62c.22-1.54.34,0,.34.92-1.61,22.49-3.15,45-4.26,67.44q-.84,16.86-1.57,33.73c-.45,11.24-.74,22.51-1.06,33.76a141.54,141.54,0,0,0,.18,16.75,49.64,49.64,0,0,0,1.42,8.12,66.07,66.07,0,0,1,2,8.37,16.94,16.94,0,0,1,0,4.5,26.8,26.8,0,0,1-1.06,4.26,16.15,16.15,0,0,0-.81,3.86,6.05,6.05,0,0,0,.19,1.77,5.26,5.26,0,0,0,.8,1.54,11.67,11.67,0,0,0,3,2.49,31.57,31.57,0,0,1,3.57,2.48,7,7,0,0,1,2.51,4,6.84,6.84,0,0,1-.94,4.65,9.11,9.11,0,0,1-3.29,3.21,15.9,15.9,0,0,1-4.13,1.62,67.84,67.84,0,0,1-8.43,1.45,77.92,77.92,0,0,1-17,0A77,77,0,0,1,320,756.92c-5.35-1.81-10.46-4.32-16-5.19-1.53-.22,0-.36.93-.23,5.62.93,10.8,3.39,16.16,5a76.36,76.36,0,0,0,16.47,3.1,77.35,77.35,0,0,0,16.73-.53c1.38-.22,2.76-.43,4.12-.72a34.67,34.67,0,0,0,4-1,12.33,12.33,0,0,0,3.55-1.73,7,7,0,0,0,2.32-2.91,4.48,4.48,0,0,0,.12-3.46,6.24,6.24,0,0,0-2.39-2.75c-1.08-.78-2.31-1.44-3.53-2.26a10,10,0,0,1-3.31-3.25,7.4,7.4,0,0,1-.83-4.71,26.7,26.7,0,0,1,1-4.27,15.12,15.12,0,0,0,.46-7.85c-.47-2.66-1.38-5.31-2.11-8.09a51.54,51.54,0,0,1-1.47-8.51,164.6,164.6,0,0,1-.31-17l.2-16.91c.05-5.64.08-11.28.23-16.92q.4-16.92,1.55-33.82C359.42,600.39,361.72,577.92,365.15,555.62Z"
         id="path4802" />
      <path
         class="cls-14"
         d="M363.21,582.9c0,1-.34,0-.43-.57-.9-14.53-1.17-29.07-1.16-43.61s.73-29.06,1.28-43.58,1.24-29.05,2.06-43.56q.6-10.87,1.32-21.75c.47-7.25.94-14.55,2.52-21.67.21-1,.34.06.25.62-1.25,7.15-1.47,14.41-1.72,21.66l-.68,21.78q-.63,21.78-1,43.56c-.27,14.52-.12,29.05-.58,43.56S364.13,568.37,363.21,582.9Z"
         id="path4804" />
      <path
         class="cls-14"
         d="M368,408.7c-.09-1,.34-.06.52.51C371.56,424,373,439,373.85,454s.67,30,.95,45q.74,45,1.11,90c0,1-.34,0-.38-.57q-1.9-45-3.47-90l-.9-22.49c-.31-7.5-.54-15-.75-22.47s-.51-15-.9-22.44S368.58,416.18,368,408.7Z"
         id="path4806" />
      <path
         class="cls-14"
         d="M417.76,600c-.87.26-.88.19-.58,0,.15-.1.37-.23.61-.36a6.76,6.76,0,0,0,.65-.46,7,7,0,0,0,2.58-3.68,17.1,17.1,0,0,0,.79-4.56,27.87,27.87,0,0,0-.19-4.66,32.17,32.17,0,0,0-1-4.58c-1.6-6.14-3.53-12.21-5.2-18.4a102.38,102.38,0,0,1-3.56-19,129.7,129.7,0,0,1,.33-19.33c.48-6.38,1-12.66,1.09-19s-.14-12.63-.58-18.95c-.89-12.64-2.5-25.29-4.13-37.92q-5-37.86-11.92-75.47c-1.17-6.26-2.35-12.52-3.59-18.77-.67-3.09-1-6.37-2.65-8.84a7.92,7.92,0,0,0-3.45-2.73,28.63,28.63,0,0,0-4.45-1.46l-36.89-10.05c-1.69-.46.08-.33,1-.1L383.79,341a20.6,20.6,0,0,1,4.62,1.65,8.71,8.71,0,0,1,3.62,3.52,17.82,17.82,0,0,1,1.64,4.67l1,4.68q2,9.36,3.87,18.74,7.51,37.52,12.9,75.43c1.75,12.63,3.65,25.25,4.73,38,.51,6.39.81,12.81.68,19.26s-.75,12.85-1.3,19.17A126.67,126.67,0,0,0,415,545a112.44,112.44,0,0,0,3.08,18.6c1.45,6.17,3.12,12.35,4.38,18.63a27.68,27.68,0,0,1,.34,9.73,15,15,0,0,1-1.45,4.69A6.42,6.42,0,0,1,417.76,600Z"
         id="path4808" />
      <path
         class="cls-14"
         d="M413.26,599.54c-.14,0-.17-.08-.13-.18a.54.54,0,0,1,.21-.28c1.1-.38,2.35-.16,3-.54a1,1,0,0,0,.49-.66,2,2,0,0,0,0-.94,2.05,2.05,0,0,0-.18-.43,1.93,1.93,0,0,0-.27-.38,4.39,4.39,0,0,0-.87-.76c-.68-.47-1.63-1-2.53-1.48-3.63-2-6.88-4.48-10.7-5.53a31.13,31.13,0,0,0-6-.9,53.08,53.08,0,0,0-6.16-.16,14.88,14.88,0,0,0-5.82,1.38,9,9,0,0,0-4.27,4.15c-.12.25-.32-.12-.28-.29a9.65,9.65,0,0,1,4.16-4.89,16.19,16.19,0,0,1,6.2-2.07,49.64,49.64,0,0,1,6.41-.38,29.62,29.62,0,0,1,6.52.55,31.48,31.48,0,0,1,11.88,5.34,20.61,20.61,0,0,1,2.67,2.1,6.56,6.56,0,0,1,1.2,1.63,4.24,4.24,0,0,1,.46,2.15,3.74,3.74,0,0,1-.74,2.09,2.79,2.79,0,0,1-2,1.09C415.09,600.19,414.26,599.58,413.26,599.54Z"
         id="path4810" />
      <path
         class="cls-14"
         d="M374.33,585.36c.07-.05.31.16.36.22a5.77,5.77,0,0,0,.29.86,4.3,4.3,0,0,0,.26.69c.19.43.33.79.49,1.12a3.33,3.33,0,0,1,.26,1,2.68,2.68,0,0,0,.33,1.06,4.35,4.35,0,0,0,1.86,1.57,4.86,4.86,0,0,0,2.79.41c.07,0,.13.32.1.35a5.29,5.29,0,0,1-3.3.9,5.64,5.64,0,0,1-3.47-1.41,7.36,7.36,0,0,1-1.38-1.51,3.4,3.4,0,0,1-.58-1.95,4,4,0,0,1,.51-2,7.14,7.14,0,0,1,.61-.81A5.56,5.56,0,0,1,374.33,585.36Z"
         id="path4812" />
      <path
         class="cls-14"
         d="M402,783.6c0,1.11-.34,0-.44-.62-.8-16.07-2.19-32-4-48s-3.68-31.87-5.94-47.78-4.6-31.82-6.55-47.79-3.53-32-4.2-48.07c-.06-1.1.34,0,.41.61,2.41,32.07,8.09,63.71,13.13,95.47,2.53,15.88,5.24,31.77,6.62,47.84A315.39,315.39,0,0,1,402,783.6Z"
         id="path4814" />
      <path
         class="cls-14"
         d="M409.41,590.29c-.05-1.11.35,0,.5.58,2.4,16,4.28,31.94,6,48s2.88,32.06,4.09,48.12,2.22,32.17,2.24,48.31a291,291,0,0,1-3.58,48.19c-.17,1.09-.34-.05-.28-.68a303.41,303.41,0,0,0,2.14-48.11c-.44-16.06-1.8-32.09-3.29-48.1l-1.2-12-1.3-12q-1.31-12-2.28-24C411.14,622.45,410,606.39,409.41,590.29Z"
         id="path4816" />
      <path
         class="cls-14"
         d="M395.88,849.63c.2-.65.11,0,0,.42-.63,2.41-1.23,4.82-1.72,7.26s-.8,4.89-1.22,7.36-.9,4.91-1.43,7.35l-.41,1.83a10.7,10.7,0,0,1-.6,1.87,9.16,9.16,0,0,1-2.28,3.22,5.1,5.1,0,0,1-3.85,1.37,4.39,4.39,0,0,1-2-.74A5.37,5.37,0,0,1,381,878a10.05,10.05,0,0,1-1.13-3.78,19.64,19.64,0,0,1,0-3.83l.93-14.91c.33-5,.4-10,1.78-14.89a20.45,20.45,0,0,1,3.28-6.81c1.51-2,3.35-3.73,4.86-5.68a58.86,58.86,0,0,0,7.54-12.78,44.22,44.22,0,0,0,2.36-7.05,21.36,21.36,0,0,0,.59-7.38c-.06-.68.12,0,.16.37a22.21,22.21,0,0,1-.6,7.44,44.16,44.16,0,0,1-2.34,7.11,57.35,57.35,0,0,1-7.5,13c-1.55,2-3.36,3.71-4.76,5.72a20.45,20.45,0,0,0-3,6.68c-1.22,4.78-1.24,9.79-1.53,14.76l-.71,14.92a18.07,18.07,0,0,0,.14,3.61,7.89,7.89,0,0,0,1.15,3.24,3.12,3.12,0,0,0,2.65,1.47,4.25,4.25,0,0,0,2.91-1.32,8.54,8.54,0,0,0,1.92-2.9,31.63,31.63,0,0,0,1-3.52c.58-2.42,1.12-4.84,1.6-7.28s.88-4.91,1.51-7.33S395.1,852,395.88,849.63Z"
         id="path4818" />
      <path
         class="cls-14"
         d="M395.56,851.06c0-.7.12,0,.16.39a126.47,126.47,0,0,1,0,15.33c-.27,5.1-.68,10.2-1.13,15.28l-1.44,15.24c-.46,5.08-.93,10.16-.95,15.24v1.9a2.82,2.82,0,0,0,.34,1.57,1,1,0,0,0,1.23.21,4.82,4.82,0,0,0,1.42-1,15.37,15.37,0,0,1,1.51-1.27c.53-.39,1.12-.72,1.64-1a5.64,5.64,0,0,0,2.16-2.8,16.14,16.14,0,0,0,1.07-3.58c.28-1.24.51-2.49.75-3.74L403,899l.83-3.74a105.73,105.73,0,0,0,2.6-15,97.43,97.43,0,0,0-.34-15.27c-.06-.7.11,0,.15.39a92.09,92.09,0,0,1,.52,15.31,110.4,110.4,0,0,1-2.45,15.13c-.26,1.24-.55,2.5-.78,3.74l-.65,3.77c-.22,1.26-.44,2.52-.71,3.77-.14.63-.29,1.26-.46,1.88a11.42,11.42,0,0,1-.71,1.85,10,10,0,0,1-1,1.71,5.19,5.19,0,0,1-1.58,1.29,14.13,14.13,0,0,0-2.95,2.3,4.42,4.42,0,0,1-1.83,1.06,1.81,1.81,0,0,1-1.22-.13,1.83,1.83,0,0,1-.83-.91,5.23,5.23,0,0,1-.28-2l0-1.93c0-5.14.38-10.24.77-15.33s.92-10.17,1.43-15.25,1-10.15,1.44-15.23S395.64,856.16,395.56,851.06Z"
         id="path4820" />
      <path
         class="cls-14"
         d="M400.86,910c.16-.34.11,0,.06.26a21,21,0,0,0-.77,10.37l-.41-.4a6.78,6.78,0,0,0,5.58-2.7c.35-.41.64-.88,1-1.37l1-1.43a17.34,17.34,0,0,0,1.69-2.91c1.7-4.26,3.31-8.65,4.63-13.07a89.59,89.59,0,0,0,3-13.53,77.47,77.47,0,0,0,.6-13.87c0-.38.11,0,.13.21a74,74,0,0,1-.25,13.88,86.71,86.71,0,0,1-2.74,13.64c-.63,2.24-1.33,4.45-2.06,6.65s-1.46,4.37-2.31,6.59a16.59,16.59,0,0,1-1.75,3.11l-1,1.43a17.78,17.78,0,0,1-1.07,1.44,9.08,9.08,0,0,1-2.9,2.24,6.66,6.66,0,0,1-3.66.63l-.36,0,0-.35A19.29,19.29,0,0,1,400.86,910Z"
         id="path4822" />
      <path
         class="cls-14"
         d="M406,917.83c-.3,0,0-.12.17-.14a13.54,13.54,0,0,0,10.6-5.8,19,19,0,0,0,2.28-5.77l.82-3.13c.29-1.06.65-2.08,1-3.1a53.55,53.55,0,0,0,2.46-12.55c.29-4.27.49-8.59.95-12.86,0-.3.11,0,.11.17-.29,4.3-.33,8.59-.5,12.9a50.26,50.26,0,0,1-.7,6.45,62.15,62.15,0,0,1-1.49,6.31c-.3,1.05-.62,2.06-.86,3.09l-.7,3.15a16.15,16.15,0,0,1-2.49,6.13A12.9,12.9,0,0,1,406,917.83Z"
         id="path4824" />
      <path
         class="cls-14"
         d="M418.47,908.62c0-.71.12,0,.13.42a19.74,19.74,0,0,0,.21,3.86,1.73,1.73,0,0,0,.93,1.37,2.69,2.69,0,0,0,1.71-.33,5.43,5.43,0,0,0,2.65-2.51,19.05,19.05,0,0,0,1.45-3.54,111.45,111.45,0,0,0,3.61-15.14,106.93,106.93,0,0,0,.67-31c-.63-5.17-1.62-10.29-2.31-15.48s-1.31-10.35-2.27-15.47a144.58,144.58,0,0,0-9.09-29.86c-.28-.67.1,0,.26.33a140.25,140.25,0,0,1,9.47,29.82c1,5.13,1.69,10.32,2.44,15.48s1.79,10.28,2.45,15.47a97.85,97.85,0,0,1-4.59,46.54,17.28,17.28,0,0,1-1.72,3.61,6,6,0,0,1-3.2,2.44,3.43,3.43,0,0,1-1,.21,1.59,1.59,0,0,1-1.06-.33,2.85,2.85,0,0,1-.79-1.91A27.23,27.23,0,0,1,418.47,908.62Z"
         id="path4826" />
      <path
         class="cls-16"
         d="M184.53,768.51c-.15-.63.11,0,.23.31,2.08,7.2,3.93,14.49,6.43,21.51a24,24,0,0,0,2.35,5,55.25,55.25,0,0,0,3.29,4.48,46,46,0,0,1,3.32,4.62,22.14,22.14,0,0,1,2.29,5.26,45.59,45.59,0,0,1,1.67,11.22c.16,3.76.15,7.5.21,11.25l.14,11.25a12.6,12.6,0,0,1-.83,5.64,5.53,5.53,0,0,1-1.91,2.21,3.91,3.91,0,0,1-2.86.66l-.09,0-.05-.06a24.42,24.42,0,0,1-3.18-4.72c-.9-1.66-1.69-3.38-2.43-5.11-1.48-3.47-2.76-7-4-10.57-.21-.61.11,0,.24.3,1.29,3.47,2.62,6.94,4.13,10.31.76,1.69,1.57,3.35,2.47,5a24,24,0,0,0,3.14,4.5l-.13-.07c1.76.3,3.46-1.06,4.17-2.65a12.3,12.3,0,0,0,.69-5.42l-.28-11.28c-.11-3.76-.13-7.54-.34-11.27a42.62,42.62,0,0,0-1.83-11,21.49,21.49,0,0,0-2.3-5c-1-1.56-2.15-3-3.3-4.5a44.28,44.28,0,0,1-3.32-4.64,19.11,19.11,0,0,1-1.32-2.59c-.36-.88-.69-1.78-1-2.67A223.28,223.28,0,0,1,184.53,768.51Z"
         id="path4828" />
      <path
         class="cls-14"
         d="M201,607.74c.09-1.07.34,0,.42.62.57,15.69-1.49,31.39-4.28,46.79s-6.77,30.54-9.59,45.87-4.7,30.81-4.37,46.37,3,31.13,9.39,45.41c.42,1-.3.15-.57-.4-6.8-14.16-9.88-29.9-10.55-45.57s.93-31.43,3.51-46.89,5.73-30.8,8.94-46S199.76,623.33,201,607.74Z"
         id="path4830" />
      <path
         class="cls-14"
         d="M147.42,821.75c-.13,1.27-.35,0-.4-.73a51.23,51.23,0,0,1,2-13.86c1.2-4.52,2.67-8.94,4.15-13.34,3-8.78,5.94-17.51,7.79-26.47a121.1,121.1,0,0,0,2.68-27.18c-.17-9.15-1.32-18.35-2.06-27.64a325.21,325.21,0,0,1,.7-55.74,522.65,522.65,0,0,1,8.37-55c.24-1.25.33,0,.23.78a553.15,553.15,0,0,0-6.95,55.11,335.48,335.48,0,0,0,.43,55.36c.89,9.19,2.32,18.39,2.67,27.79.09,2.35.11,4.71,0,7.06l-.14,3.53c-.07,1.18-.23,2.35-.34,3.52s-.22,2.35-.39,3.51l-.58,3.49c-.33,2.33-.93,4.61-1.42,6.9-2.18,9.15-5.52,17.92-8.92,26.53-1.71,4.31-3.39,8.6-4.84,13A53.81,53.81,0,0,0,147.42,821.75Z"
         id="path4832" />
      <path
         class="cls-16"
         d="M164.69,882.15c-.1-.45.11,0,.2.23a3.64,3.64,0,0,1-.23,2.59,2.55,2.55,0,0,1-2.29,1.36,3.7,3.7,0,0,1-1.36-.22,2.59,2.59,0,0,1-1.19-.81,5.42,5.42,0,0,1-.9-2.57c-.13-.87-.21-1.72-.3-2.56a13.85,13.85,0,0,0-.48-2.44c-.44-1.63-.95-3.26-1.45-4.88l-1.5-4.9c-.48-1.65-1-3.24-1.56-4.83-1.19-3.17-2.59-6.29-3.93-9.43l-2-4.72a46,46,0,0,1-1.8-4.85,15.43,15.43,0,0,1-.48-5.19c.1-1.72.37-3.42.6-5.11l2.9-20.28c.07-.46.12,0,.09.28l-2.46,20.34c-.41,3.37-.91,6.81.15,10,.51,1.6,1.2,3.16,1.87,4.72l2.06,4.69c1.38,3.12,2.86,6.19,4.13,9.4.64,1.6,1.15,3.27,1.63,4.89l1.46,4.91c.47,1.65.94,3.29,1.33,5a13.47,13.47,0,0,1,.37,2.6c.06.85.1,1.71.2,2.53a3.91,3.91,0,0,0,.75,2.16,2.93,2.93,0,0,0,2.11.75,2.13,2.13,0,0,0,1.84-1.22A3.7,3.7,0,0,0,164.69,882.15Z"
         id="path4834" />
      <path
         class="cls-14"
         d="M175.83,887.51c-.27-.22.06-.1.26,0a1.75,1.75,0,0,1,.43,2,3.65,3.65,0,0,1-1.23,1.68,2.8,2.8,0,0,1-2.08.58,4.07,4.07,0,0,1-1.94-.92,8.91,8.91,0,0,1-2.32-3.39c-.54-1.24-1-2.48-1.41-3.73-1.74-5-3-10.09-4.45-15.16L159,853.31c-1.4-5.06-2.79-10.14-4.48-15.11-.11-.35.11-.05.18.15,1.85,4.93,3.37,10,4.9,15L164,868.48c1.49,5,3.09,10,4.66,15,.42,1.24.8,2.51,1.28,3.69a7.93,7.93,0,0,0,2,3.11,3.45,3.45,0,0,0,1.56.76,2.29,2.29,0,0,0,1.62-.49,3,3,0,0,0,1.11-1.43,1.7,1.7,0,0,0,.08-.89A1.31,1.31,0,0,0,175.83,887.51Z"
         id="path4836" />
      <path
         class="cls-14"
         d="M185.81,886.09c-.12-.37.11-.05.22.15a6.17,6.17,0,0,1-4.44,8.19l-.34.06-.14-.32a108.92,108.92,0,0,1-4.6-13.8l-3.72-14-3.71-14c-1.29-4.65-2.55-9.32-4.26-13.83-.13-.36.11,0,.2.16,1.83,4.46,3.2,9.08,4.6,13.69s2.69,9.24,4,13.87,2.61,9.26,4,13.86,2.65,9.24,4.31,13.7l-.48-.27a5.29,5.29,0,0,0,3.8-2.66A5.61,5.61,0,0,0,185.81,886.09Z"
         id="path4838" />
      <path
         class="cls-14"
         d="M193.49,843c.19.83-.11,0-.25-.43-1.06-3.41-3.15-6.36-4.59-9.66-.38-.8-.7-1.69-1-2.46a13.47,13.47,0,0,0-1.42-2.17,17,17,0,0,0-1.74-2,4.77,4.77,0,0,0-1-.72,1,1,0,0,0-.26-.09s0,0,0,.23a8.06,8.06,0,0,0,.43,2.45c.22,1,.31,1.81.45,2.7l.38,2.65c.06.43.13.87.22,1.28s.25.82.37,1.23c1.11,3.4,2.12,6.84,3,10.29a177.47,177.47,0,0,1,4.29,21c1,7.08,1.64,14.22,2,21.35v.22l-.17.13a3.35,3.35,0,0,1-2.05.71,4.26,4.26,0,0,1-2-.56,9.88,9.88,0,0,1-3-2.72,13.51,13.51,0,0,1-1.07-1.7c-.31-.59-.56-1.19-.84-1.79-.5-1.21-1-2.41-1.43-3.64-1.79-4.9-3.31-9.88-4.78-14.87s-2.84-10-4.16-15-2.57-10.08-3.58-15.19c-.17-.83.11,0,.21.45,1.09,5,2.44,10,3.78,15s2.8,9.93,4.3,14.86,3.08,9.85,4.9,14.66c.44,1.21.94,2.4,1.45,3.57a14.84,14.84,0,0,0,1.85,3.28,8.91,8.91,0,0,0,2.75,2.45,2.84,2.84,0,0,0,3.2-.11l-.16.34c-.44-7.16-1.11-14.3-2.22-21.37a205,205,0,0,0-4.47-21c-.93-3.46-1.91-6.91-3-10.33l-.2-.64c-.07-.27-.11-.5-.15-.73-.08-.45-.14-.9-.2-1.35l-.33-2.67a22.77,22.77,0,0,0-.42-2.6,11.86,11.86,0,0,1-.28-1.37,3.06,3.06,0,0,1,.1-1.59,2,2,0,0,1,.18-.25.91.91,0,0,1,.29-.19,1,1,0,0,1,.6,0,2.49,2.49,0,0,1,.73.37,7.53,7.53,0,0,1,1.06,1,18.7,18.7,0,0,1,1.74,2.14,10.74,10.74,0,0,1,1.36,2.42c.29.84.6,1.67,1,2.49C190.71,836.3,192.72,839.39,193.49,843Z"
         id="path4840" />
      <path
         class="cls-14"
         d="M148.09,1057.56c-.14,1-.34,0-.38-.62.41-14.88,1.34-29.73,2.44-44.55s2.82-29.6,4.26-44.4q4.32-44.38,9-88.74c.11-1,.34,0,.32.6q-3.16,44.51-6.65,89c-1.16,14.82-2,29.67-3.57,44.45S150.31,1042.83,148.09,1057.56Z"
         id="path4842" />
      <path
         class="cls-14"
         d="M149.53,1039.33c.3-2.16.34,0,.3,1.27q-2.1,23.61-3.54,47.23c-.94,15.75-1.58,31.51-2,47.28s-.53,31.53-.51,47.3.49,31.54,1.23,47.3,1.95,31.5,3.36,47.21c.79,7.85,1.52,15.71,2.42,23.55l2.75,23.52c1.84,15.69,3.61,31.41,4.73,47.18.53,7.89.93,15.78,1.07,23.69s0,15.81-.43,23.7c-.09,2.17-.34,0-.32-1.24,1.11-31.6-2.83-63-6.91-94.34l-3-23.5q-.73-5.88-1.37-11.78c-.43-3.93-.9-7.85-1.29-11.79-1.6-15.73-2.81-31.5-3.77-47.28s-1.52-31.6-1.83-47.41-.07-31.64.5-47.45,1.66-31.6,3.05-47.35S147.21,1055,149.53,1039.33Z"
         id="path4844" />
      <path
         class="cls-14"
         d="M193.82,1354.83c.14-.52.35.05.39.38-.35,7.94-1.16,15.78-1.31,23.56s-.06,15.46,1.86,23.12a26.94,26.94,0,0,1,.71,6.17,12.45,12.45,0,0,1-.52,3.24,8.81,8.81,0,0,1-.61,1.54,8.19,8.19,0,0,1-.83,1.43,11.83,11.83,0,0,1-5,4,22,22,0,0,1-6,1.61,60.62,60.62,0,0,1-12,0l-11.84-.7c-.54,0,0-.35.32-.36l11.86,0a57,57,0,0,0,11.65-.69,18.75,18.75,0,0,0,5.33-1.81,9.75,9.75,0,0,0,3.86-3.58,9.19,9.19,0,0,0,1.18-5,25.83,25.83,0,0,0-.92-5.55c-.5-1.87-1-3.85-1.41-5.83s-.73-4-.94-6a64.09,64.09,0,0,1-.18-12.07A122,122,0,0,1,193.82,1354.83Z"
         id="path4846" />
      <path
         class="cls-14"
         d="M193.81,1384.23c0,3-.35,0-.47-1.68-1.67-43.24-2.76-86.52-2-129.84.42-21.65,1.36-43.3,3.08-64.9s4.08-43.15,7-64.61a1085.39,1085.39,0,0,1,25.29-127.37q8.22-31.43,18.31-62.3a270.79,270.79,0,0,1,11.56-30.36,112.39,112.39,0,0,1,17.45-27.31c2-2.25.27.21-.82,1.52A115.77,115.77,0,0,0,256.62,905a288.68,288.68,0,0,0-11,30.45q-9.71,30.94-17.58,62.42a1110.68,1110.68,0,0,0-24.06,127.34q-4.14,32.14-6.25,64.5t-2.93,64.75C193.57,1297.69,194,1341,193.81,1384.23Z"
         id="path4848" />
      <path
         class="cls-14"
         d="M462,1204.16c0,1.67-.35,0-.48-.94-.24-3-.39-6.07-.68-9.09l-1.05-9-1.43-9c-.53-3-1.15-5.95-1.71-8.92-2.47-11.86-5.6-23.58-9-35.24-6.75-23.32-14.07-46.6-19.25-70.49s-7.34-48.25-10-72.41-5.83-48.37-13.36-71.54c-.49-1.6.32-.12.64.79,7.94,23.08,11.54,47.37,14.54,71.5s5.46,48.38,11,72,13.64,46.58,19.92,70.15a365.21,365.21,0,0,1,8,35.74A191.55,191.55,0,0,1,462,1204.16Z"
         id="path4850" />
      <path
         class="cls-14"
         d="M424.26,1420.37c-.8-1.4.3-.18.85.53a20.05,20.05,0,0,0,6.47,5.76,23.36,23.36,0,0,0,8.13,2.78,22.63,22.63,0,0,0,8.49-.32,18.67,18.67,0,0,0,7.49-3.62l-.48,1c.1-20.18.33-40.36.93-60.53l1-30.25.91-30.25q1.83-60.5,3.91-121c.05-1.59.34,0,.34.91q-.75,60.3-1.76,120.6l-.91,60.3c-.35,20.1-1.06,40.19-1.91,60.28l0,.61-.46.34a20.75,20.75,0,0,1-8.82,3.78A24.23,24.23,0,0,1,439,1431a24,24,0,0,1-8.55-3.76A19.75,19.75,0,0,1,424.26,1420.37Z"
         id="path4852" />
      <path
         class="cls-14"
         d="M406.15,1182.65c.3,1.91-.34.08-.63-1-5.89-27.43-12.46-54.67-20.38-81.52-3.85-13.46-8.11-26.79-12.42-40.11-2.27-6.62-4.41-13.29-6.84-19.85l-3.57-9.88-3.76-9.8-1.9-4.9-2-4.86-4-9.73-4.13-9.66-2.07-4.82-2.16-4.79-4.31-9.58-4.48-9.5-2.25-4.75L329,953.2l-4.66-9.42c-6.32-12.49-13-24.82-21-36.31s-17.3-22.12-28.51-30.55c-1.52-1.18.19-.28,1.09.37,11.32,8.36,20.81,19,28.93,30.45s15,23.79,21.51,36.23a830.46,830.46,0,0,1,35.14,76.55l3.88,9.79,3.72,9.86,1.87,4.93,1.77,5,3.54,9.92,3.34,10,1.65,5,1.55,5,3.08,10.09,2.84,10.14,1.41,5.08,1.32,5.11,2.6,10.21,2.39,10.26,1.18,5.13,1.09,5.16,2.13,10.31,1.91,10.36.94,5.18c.3,1.73.56,3.47.84,5.2Z"
         id="path4854" />
      <path
         class="cls-14"
         d="M424.13,1422.2c0,1.39-.35,0-.48-.77-1.9-20.15-3.27-40.34-4.48-60.53s-1.79-40.41-2.66-60.62-1.69-40.4-3.52-60.52-4.69-40.16-9.58-59.79c-.33-1.35.33-.09.55.67,5.35,19.54,8.61,39.6,10.81,59.73s3.36,40.37,4.51,60.56,2.6,40.37,3.34,60.59S424,1402,424.13,1422.2Z"
         id="path4856" />
      <path
         class="cls-14"
         d="M381.24,844.34c.09.36-.32.14-.48,0a96.47,96.47,0,0,1-7.38-14.23A154.72,154.72,0,0,1,368.19,815q-4.89-15.22-8.4-30.81c-.08-.35.33-.09.41.1q5,15.15,10.63,30c1.88,5,4.14,9.76,5.81,14.78S380,839.1,381.24,844.34Z"
         id="path4858" />
      <path
         class="cls-14"
         d="M298.55,777.51c.23-.44.31.15.32.4a4.27,4.27,0,0,0,1.95,3.93,7,7,0,0,0,4.3,1c1.57,0,3.23-.34,5-.57s3.41-.44,5.12-.64c6.84-.84,13.74-1,20.61-1.45a77.66,77.66,0,0,0,10.09-1.15,23.63,23.63,0,0,0,9.13-3.68,14.3,14.3,0,0,0,5.41-8,11.88,11.88,0,0,0,.26-4.93,8.71,8.71,0,0,0-2.16-4.44c-.3-.36.24-.25.45-.06a9.3,9.3,0,0,1,2.49,4.62,12.67,12.67,0,0,1,0,5.31,15.47,15.47,0,0,1-5.61,9,25.47,25.47,0,0,1-9.69,4.42A79.81,79.81,0,0,1,335.78,783c-6.85.74-13.66,1.79-20.54,2.14-1.72.1-3.44.19-5.17.26a32.18,32.18,0,0,1-5.36-.06,10.2,10.2,0,0,1-2.78-.73,6.47,6.47,0,0,1-2.41-1.72,6.09,6.09,0,0,1-1.32-2.56A3.88,3.88,0,0,1,298.55,777.51Z"
         id="path4860" />
      <path
         class="cls-14"
         d="M291.31,778.56c.05-.2.35,0,.44.11a4.8,4.8,0,0,0,.44.91,3.89,3.89,0,0,0,.6.73,3.51,3.51,0,0,0,1.38.89l-1.83.68a46.63,46.63,0,0,1,1.53-7.19c.37-1.17.8-2.32,1.18-3.49s.69-2.35,1-3.53c1.31-4.73,2.5-9.5,3.56-14.34,0-.19.34,0,.35.16a122.5,122.5,0,0,1-1.47,14.77l-.63,3.67c-.2,1.23-.38,2.46-.64,3.68a30,30,0,0,1-2.55,7l-.76,1.55-1.07-.87a4.81,4.81,0,0,1-1.53-2.24A4.31,4.31,0,0,1,291.31,778.56Z"
         id="path4862" />
      <path
         class="cls-14"
         d="M273.13,758.69c-.13-.06,0-.34.11-.43a15.66,15.66,0,0,1,6.37-.7c2.11.11,4.08,1,6.05,1.68a51.66,51.66,0,0,1,11.22,5.42c.12.07-.15.31-.23.3a91.2,91.2,0,0,0-11.77-3.1,55.48,55.48,0,0,1-5.93-1c-1-.25-1.93-.57-2.89-.92A19.18,19.18,0,0,1,273.13,758.69Z"
         id="path4864" />
      <path
         class="cls-14"
         d="M264.13,738.46c.17-.38.33.1.34.35-.41,2.81-1,5.57-1.49,8.32s-1.15,5.48-1.76,8.21-1.26,5.44-2,8.14-1.49,5.38-2.17,8.09l-.8-1.6A135.48,135.48,0,0,0,274,777.13a141,141,0,0,0,18.63,4.66c.41.07,0,.33-.28.33a121.36,121.36,0,0,1-19-3.31,124.12,124.12,0,0,1-18.3-6.24l-1-.44.22-1.17c.52-2.79,1-5.58,1.61-8.36s1.32-5.51,2.15-8.23,1.74-5.4,2.74-8.06S262.86,741,264.13,738.46Z"
         id="path4866" />
      <path
         class="cls-14"
         d="M193.59,750c-.3-.15.1-.32.31-.35A100.23,100.23,0,0,1,208,752.78c4.61,1.29,9,3.24,13.49,4.88s9,3.29,13.4,5.29a57.31,57.31,0,0,1,12.4,7.4c.26.2-.2.27-.37.19a62.8,62.8,0,0,0-12.84-6.07c-4.47-1.59-9.05-2.89-13.63-4.28s-9.26-2.47-13.71-4.22A98.42,98.42,0,0,1,193.59,750Z"
         id="path4868" />
      <path
         class="cls-14"
         d="M195,757.57c-.09.14-.33-.09-.39-.21a26,26,0,0,1,.61-7.2,44.51,44.51,0,0,1,2.35-6.68c1.61-4.44,3.35-8.85,5.18-13.22.06-.15.32.09.32.19q-1.29,7-2.91,13.9a42,42,0,0,1-1.69,6.87,30.68,30.68,0,0,1-1.49,3.25A19.52,19.52,0,0,1,195,757.57Z"
         id="path4870" />
      <path
         class="cls-14"
         d="M188.28,778.44c-.09.12-.33-.1-.39-.2a18.29,18.29,0,0,1,.38-6c.36-1.94,1.4-3.66,2.12-5.48,1.45-3.64,3-7.25,4.7-10.82,0-.13.33.1.33.18-.72,3.88-1.53,7.73-2.46,11.54a28.8,28.8,0,0,1-1.46,5.69,21.45,21.45,0,0,1-1.37,2.65A14.66,14.66,0,0,1,188.28,778.44Z"
         id="path4872" />
      <path
         class="cls-14"
         d="M257.51,335.47c-.16-.16.18-.3.33-.31a47.41,47.41,0,0,1,9.12,3.68,83.86,83.86,0,0,1,8.19,5.27q8.16,5.31,16.14,10.93c.18.13-.18.3-.3.25q-8.75-4.31-17.34-8.9a80.17,80.17,0,0,1-8.54-4.67A46.76,46.76,0,0,1,257.51,335.47Z"
         id="path4874" />
      <path
         class="cls-14"
         d="M162.81,1426.87c-.15-.16.2-.27.36-.28,3,1.09,5.73,2.14,8.55,3a70.64,70.64,0,0,0,8.49,2.42,36.94,36.94,0,0,0,17.84-1.46c.21-.06.14.31,0,.38a33.76,33.76,0,0,1-18.31,3.78,25.56,25.56,0,0,1-9.4-2A19.62,19.62,0,0,1,162.81,1426.87Z"
         id="path4876" />
      <path
         class="cls-14"
         d="M127.84,1527.54c-.38-.06,0-.34.24-.42a138,138,0,0,1,16.85-.85c5.6,0,11.18.64,16.78,1q16.77,1,33.54,2.44c.39,0,0,.35-.23.36q-16.83.12-33.63-.08c-5.61-.07-11.22.17-16.81-.3A134.45,134.45,0,0,1,127.84,1527.54Z"
         id="path4878" />
      <path
         class="cls-14"
         d="M190.33,1428.59c-.34.06-.37,0-.27-.13a1.62,1.62,0,0,1,.53-.41,5.45,5.45,0,0,1,4,.22,9,9,0,0,1,3.28,2.5,10.83,10.83,0,0,1,2,3.65,10.56,10.56,0,0,1,.45,2.11,16.11,16.11,0,0,1,.06,2.08,36.2,36.2,0,0,1-1.49,7.83c-.33,1.23-.64,2.44-.88,3.63-.12.59-.2,1.19-.27,1.78a17.75,17.75,0,0,0-.15,1.79c-.26,4.79.93,9.6,2.61,14.3s3.91,9.33,6.06,14a67.83,67.83,0,0,1,5.22,14.75,30.83,30.83,0,0,1,.62,7.91,26.34,26.34,0,0,1-1.64,7.78,27.36,27.36,0,0,1-3.76,6.93,31.67,31.67,0,0,1-2.5,3,30.27,30.27,0,0,1-2.91,2.64,26.91,26.91,0,0,1-14.17,6c-.71.1,0-.34.34-.43,10.12-1.7,18.53-9.62,21.52-19.08a26.35,26.35,0,0,0,1.14-7.3,30.63,30.63,0,0,0-.95-7.36,70,70,0,0,0-5.54-14c-2.25-4.58-4.76-9.11-6.73-14a41.52,41.52,0,0,1-2.3-7.65,28.35,28.35,0,0,1-.39-8.13c.5-5.6,3.28-10.2,3.75-14.93a9.35,9.35,0,0,0-.18-3.43,9.94,9.94,0,0,0-1.47-3.17,7.73,7.73,0,0,0-2.58-2.38A4.92,4.92,0,0,0,190.33,1428.59Z"
         id="path4880" />
      <path
         class="cls-14"
         d="M131.63,1526.94c.54-.36.22.27,0,.57-.88.87-1.78,1.71-2.68,2.56l-.43.4-.4-.53a13.58,13.58,0,0,1-1.78-3.1,15.55,15.55,0,0,1-.89-3.49,19.36,19.36,0,0,1,.53-7.15,22.79,22.79,0,0,1,1.18-3.4,30.62,30.62,0,0,1,1.65-3.17,46,46,0,0,1,4.13-5.65c1.48-1.76,3-3.42,4.54-5.06s2.9-3.33,4.36-5a83.82,83.82,0,0,0,7.43-11,98.16,98.16,0,0,0,5.53-12.12,96.55,96.55,0,0,0,3.61-12.86,94.38,94.38,0,0,0,1.58-13.32,91.59,91.59,0,0,0-.56-13.44c-.07-.64.33-.06.41.3A83.29,83.29,0,0,1,161,1445a87.82,87.82,0,0,1-1,13.54,90.49,90.49,0,0,1-3.19,13.24,92.46,92.46,0,0,1-5.28,12.6,100.83,100.83,0,0,1-7.2,11.67c-1.41,1.8-2.79,3.66-4.31,5.35l-4.48,5c-2.9,3.29-5.57,6.71-6.93,10.7s-1.65,8.47.46,12.26l-.84-.12C129.35,1528.42,130.48,1527.67,131.63,1526.94Z"
         id="path4882" />
      <path
         class="cls-14"
         d="M439.46,1536.3c.59.29-.11.33-.49.28a32.72,32.72,0,0,1-12.63-7,79.32,79.32,0,0,1-9.95-10.48c-.76-.93-1.49-1.84-2.24-2.81a15.6,15.6,0,0,1-2.1-3.37,8,8,0,0,1-.63-4.41,12.13,12.13,0,0,1,1.37-3.88c2.43-4.48,5.83-7.91,8.39-11.73a25.6,25.6,0,0,0,3.11-6,32.5,32.5,0,0,0,1.54-6.67,99.61,99.61,0,0,0,.42-14.07l-.28-28.48c0-.66.34,0,.38.35l1.63,28.44a93.33,93.33,0,0,1,.07,14.39,33.55,33.55,0,0,1-1.51,7.21,29.26,29.26,0,0,1-3.28,6.66c-2.67,4.08-5.77,7.72-7.61,11.73a8.15,8.15,0,0,0-.79,2.8,4.8,4.8,0,0,0,.57,2.52,17.09,17.09,0,0,0,1.74,2.68l2.13,2.82a106.1,106.1,0,0,0,9,10.76A39.81,39.81,0,0,0,439.46,1536.3Z"
         id="path4884" />
      <path
         class="cls-14"
         d="M430,1542.87c-.52,0,0-.35.29-.44,7.52-.94,15.05-1.36,22.57-1.6s15.06.16,22.56.16,15-.11,22.49-.61a164.75,164.75,0,0,0,22.31-2.93c.5-.11.08.33-.2.42a146.91,146.91,0,0,1-22.24,4.24c-7.51.9-15.06,1.35-22.6,1.62s-15.07.72-22.59.52S437.51,1543.74,430,1542.87Z"
         id="path4886" />
      <path
         class="cls-14"
         d="M459.85,1439.51c0-.71.35,0,.45.39a86.16,86.16,0,0,0,8.83,29.1c1.16,2.25,2.42,4.53,3.51,7a51,51,0,0,1,2.59,7.54,66.63,66.63,0,0,0,2.31,7.2,28,28,0,0,0,3.73,6.32,47.65,47.65,0,0,0,11.46,9.71c4.3,2.78,8.83,5.27,13.22,8.09,2.2,1.38,4.33,2.91,6.4,4.51,1,.86,2,1.65,3,2.59a21.22,21.22,0,0,1,2.58,3,18.14,18.14,0,0,1,3.22,7.19,8.79,8.79,0,0,1-1.75,7.51c-.44.57-.26-.22,0-.55a7.3,7.3,0,0,0,1.31-3.47,10.67,10.67,0,0,0-.31-3.73,18.29,18.29,0,0,0-3.53-6.62,22.37,22.37,0,0,0-2.62-2.71c-1-.8-2-1.6-3-2.35q-3.12-2.22-6.46-4.14c-4.43-2.6-9-4.92-13.52-7.63a47.82,47.82,0,0,1-12.29-10,30.92,30.92,0,0,1-2.35-3.31c-.35-.58-.71-1.16-1.05-1.75s-.62-1.22-.89-1.83a74.36,74.36,0,0,1-2.72-7.43,60.16,60.16,0,0,0-2.65-7c-1-2.27-2.25-4.54-3.36-6.93A64.54,64.54,0,0,1,459.85,1439.51Z"
         id="path4888" />
      <path
         class="cls-14"
         d="M430.05,1436.06c-.13-.11.14-.32.26-.36a61.35,61.35,0,0,1,7.09.81c2.27.31,4.45,1.12,6.75,1.44a52.09,52.09,0,0,0,7,.48,4.83,4.83,0,0,0,2.95-1c.85-.58,1.7-1.64.74-2.4-.12-.1.17-.29.28-.25a1.5,1.5,0,0,1,.69.77,1.7,1.7,0,0,1,0,1.09,4.26,4.26,0,0,1-1.09,1.68,6.56,6.56,0,0,1-1.59,1.16,5.76,5.76,0,0,1-.95.4,7.37,7.37,0,0,1-1,.21,38.85,38.85,0,0,1-7.32.52c-1.23,0-2.47,0-3.72-.12a15.17,15.17,0,0,1-3.64-.73,18.79,18.79,0,0,1-3.4-1.52A14.23,14.23,0,0,1,430.05,1436.06Z"
         id="path4890" />
      <path
         class="cls-14"
         d="M298.88,780.44c-.09.15-.33-.08-.4-.2a29.81,29.81,0,0,1,.24-7.4c.3-2.41,1.27-4.67,1.89-7l3.85-14.06c0-.16.34,0,.35.15-.32,4.88-.82,9.74-1.55,14.56a40.05,40.05,0,0,1-1.22,7.22,29.34,29.34,0,0,1-1.32,3.44A19.65,19.65,0,0,1,298.88,780.44Z"
         id="path4892" />
      <path
         class="cls-14"
         d="M359.52,774.41c0-.14.33-.08.43-.07a.93.93,0,0,0,.49.17.48.48,0,0,0,.33-.14l-1,.86a13.13,13.13,0,0,1-1.21-4.28,12.18,12.18,0,0,1,.07-2.17c.07-.72.11-1.45.12-2.17q.13-4.35.56-8.75c0-.11.34,0,.37,0,.65,2.84,1.22,5.7,1.68,8.58.1.72.24,1.43.4,2.15a12.31,12.31,0,0,1,.35,2.16,13.12,13.12,0,0,1-.65,4.38l-.36,1.13-.65-.26a1.61,1.61,0,0,1-.77-.73A1.25,1.25,0,0,1,359.52,774.41Z"
         id="path4894" />
      <path
         class="cls-14"
         d="M273.32,759.31c0-.16.34,0,.43.08a9,9,0,0,1,.34.86c.1.29.22.58.31.87.18.57.32,1.15.46,1.73l-.46-.93a18.35,18.35,0,0,0,4.8,1.14c1.76.34,3.77.57,5.7.74q5.82.6,11.63,1.45c.16,0,0,.34-.1.36q-5.83.46-11.66.69c-1,0-1.94.05-2.91.11a29.74,29.74,0,0,1-3,.12,9.2,9.2,0,0,1-3.19-.69,7.56,7.56,0,0,1-2.84-2l-.51-.6.06-.34c.1-.6.23-1.2.38-1.8.08-.3.19-.6.28-.9A8,8,0,0,1,273.32,759.31Z"
         id="path4896" />
      <path
         class="cls-14"
         d="M275.63,762.47a2.09,2.09,0,0,1-.41.09,6.17,6.17,0,0,1-.62-.11l-.44-.19a1.83,1.83,0,0,1-.34-.23l-.21-.27c-.26-.38.22-.76.39-1.09a3.46,3.46,0,0,1,.7-.91,3.56,3.56,0,0,1,1-.62,1.41,1.41,0,0,1,.32.17,6,6,0,0,0,.35.94c.13.28.25.53.37.75s.56.41.32.59a3.16,3.16,0,0,1-.48.35,3.73,3.73,0,0,0-.37.23C276,762.26,275.81,762.36,275.63,762.47Z"
         id="path4898" />
      <path
         class="cls-14"
         d="M277.5,763.46a1.49,1.49,0,0,1-.42,0l-.59-.23-.41-.23a1.71,1.71,0,0,1-.49-.47c-.24-.31.22-.62.35-.94a7.13,7.13,0,0,1,.51-.93c.23-.31.4-.62.67-.93a1.53,1.53,0,0,1,.37,0,10.8,10.8,0,0,1,.67.93,7.24,7.24,0,0,1,.51.94c.14.31.59.62.34.93a1.69,1.69,0,0,1-.51.47l-.4.23Z"
         id="path4900" />
      <path
         class="cls-14"
         d="M278.87,763.07a1.86,1.86,0,0,1-.37-.19l-.47-.4-.32-.29a2.34,2.34,0,0,1-.37-.41c-.19-.21.29-.24.46-.4s.36-.31.56-.5a8.36,8.36,0,0,0,.64-.67,2.21,2.21,0,0,1,.37,0,3.42,3.42,0,0,1,.7.77,3,3,0,0,1,.41.92c.09.31.45.75.11,1a1.41,1.41,0,0,1-.64.26l-.46,0Z"
         id="path4902" />
      <path
         class="cls-14"
         d="M280.71,763.48a2.45,2.45,0,0,1-.42-.07l-.55-.29-.37-.27a1.37,1.37,0,0,1-.42-.48c-.2-.3.29-.51.46-.76a6,6,0,0,1,.63-.74,9.28,9.28,0,0,1,.79-.72,1.21,1.21,0,0,1,.36.07c.22.31.36.61.54.91a6.1,6.1,0,0,1,.38.89c.1.3.51.63.21.87a1.5,1.5,0,0,1-.56.33l-.43.15Z"
         id="path4904" />
      <path
         class="cls-14"
         d="M282.13,764.42a1.6,1.6,0,0,1-.41-.07l-.56-.29-.37-.26a1.65,1.65,0,0,1-.43-.48c-.2-.31.3-.51.47-.77a8.11,8.11,0,0,1,.62-.74c.27-.24.49-.48.79-.72a1.53,1.53,0,0,1,.36.07,10,10,0,0,1,.55.91,7.43,7.43,0,0,1,.38.89c.1.29.51.63.22.87a1.64,1.64,0,0,1-.57.33l-.43.15Z"
         id="path4906" />
      <path
         class="cls-14"
         d="M284.09,763.94a3,3,0,0,1-.42,0l-.59-.15-.41-.14a1.69,1.69,0,0,1-.49-.29c-.24-.2.22-.39.35-.59a4.41,4.41,0,0,1,.51-.58c.23-.19.41-.39.68-.58a2.16,2.16,0,0,1,.36,0,8,8,0,0,1,.67.59,4.41,4.41,0,0,1,.51.58c.14.2.59.39.34.58a1.62,1.62,0,0,1-.51.3l-.4.14Z"
         id="path4908" />
      <path
         class="cls-14"
         d="M285.43,764a2.27,2.27,0,0,1-.41-.08l-.56-.28-.36-.24a1.45,1.45,0,0,1-.43-.44c-.2-.27.3-.42.47-.64a7.19,7.19,0,0,1,.62-.61c.27-.19.48-.39.79-.58a1.63,1.63,0,0,1,.36.07c.22.28.36.54.54.81a6.29,6.29,0,0,1,.38.79c.1.26.5.57.21.76a1.63,1.63,0,0,1-.56.26l-.43.11Z"
         id="path4910" />
      <path
         class="cls-14"
         d="M287.38,763.51a3.85,3.85,0,0,1-.41-.09l-.55-.27-.37-.22a1.54,1.54,0,0,1-.43-.39c-.19-.24.3-.35.47-.51a4.5,4.5,0,0,1,.61-.49c.26-.15.48-.31.78-.45a2.61,2.61,0,0,1,.36.08c.22.25.36.48.54.72a5.22,5.22,0,0,1,.38.68c.1.22.5.5.22.65a1.56,1.56,0,0,1-.56.19l-.43.07Z"
         id="path4912" />
      <path
         class="cls-14"
         d="M288.79,764.41a3.08,3.08,0,0,1-.42,0l-.59-.11-.4-.12a2,2,0,0,1-.5-.23c-.24-.16.22-.31.36-.47a4.58,4.58,0,0,1,.5-.47c.23-.15.41-.31.68-.46h.36c.27.16.45.31.68.47a4.58,4.58,0,0,1,.5.47c.15.15.6.31.34.46a1.62,1.62,0,0,1-.51.24l-.4.11Z"
         id="path4914" />
      <path
         class="cls-14"
         d="M290.22,764.93l-.4-.1-.55-.26-.36-.22a1.85,1.85,0,0,1-.42-.35c-.19-.22.29-.26.46-.38a4.91,4.91,0,0,1,.61-.35c.26-.1.47-.21.77-.3a1.54,1.54,0,0,1,.35.1c.22.22.36.42.54.63a3.91,3.91,0,0,1,.38.59c.09.19.49.45.21.54a1.59,1.59,0,0,1-.55.11l-.42,0Z"
         id="path4916" />
      <path
         class="cls-14"
         d="M292.36,764.69v.42l0,.59,0,.4a4.5,4.5,0,0,1-.06.5c0,.24-.08-.22-.12-.35s-.07-.31-.11-.51l-.12-.68v-.36L292,764c0-.19.08-.36.12-.5s.07-.6.11-.34a4.78,4.78,0,0,1,.06.51l0,.4Z"
         id="path4918" />
      <path
         class="cls-14"
         d="M196.35,753.12c0,.14-.34,0-.44,0a12.21,12.21,0,0,1-1.5-6.13c0-2.12.83-4.12,1.54-6.05a27,27,0,0,1,6.68-10.18c.09-.1.26.22.23.29a34.3,34.3,0,0,0-4.31,10.74c-.41,1.87-.32,3.78-.74,5.6-.09.46-.18.92-.29,1.39s-.19.94-.33,1.41A25.77,25.77,0,0,1,196.35,753.12Z"
         id="path4920" />
    </g>
    <g
       id="newdad_torso_neutral_watch">
      <path
         class="cls-17"
         d="M431.1,792.82V795c-.42,2.63-.82,5.27-1.27,7.9s-1.83,5-4.48,5.59c-3.05.7-5.56-.38-7-3.62-1.17-2.65-3.06-4.61-6.5-4a29.9,29.9,0,0,1-4,0c-3.4.16-7.16-1.13-9.7,2.59-.34.5-2.28.91-2.43-.5-.63-5.93-.89-11.89.36-17.79a3.33,3.33,0,0,1,3.21-2.76c1.28-.1,1.34,1.11,1.74,1.93.08.17.5.25.74.23a94.11,94.11,0,0,1,15.11.24c1.61.1,2.61-.24,3.38-1.78,1.24-2.48,3.62-3.31,6.18-3.05s3.36,2.53,3.72,4.73C430.58,787.42,430.79,790.13,431.1,792.82Zm-4.21,4.3.1-.54.07-.89.1-.72,0-4.83a7.09,7.09,0,0,0-.62-5l-.3-.07-.14-.13c-.17-.31-.32-.86-.52-.88a1.74,1.74,0,0,0-1.85,1,24.86,24.86,0,0,0-1.54,17.08,1.49,1.49,0,0,0,1.65,1.26c1,0,1.62-.21,1.85-1.23C426.09,800.47,426.49,798.8,426.89,797.12Z"
         id="path4923" />
      <path
         class="cls-18"
         d="M427.06,795.69l-.07.89-.1.54c-.4,1.68-.8,3.35-1.18,5-.23,1-.89,1.25-1.85,1.23a1.49,1.49,0,0,1-1.65-1.26,24.86,24.86,0,0,1,1.54-17.08,1.74,1.74,0,0,1,1.85-1c.2,0,.35.57.52.88l.14.13.3.07c.21,1.66.41,3.33.62,5l0,4.83Z"
         id="path4925" />
      <path
         class="cls-19"
         d="M427.18,790.14c-.21-1.66-.41-3.33-.62-5A7.09,7.09,0,0,1,427.18,790.14Z"
         id="path4927" />
      <path
         class="cls-19"
         d="M427.06,795.69l.1-.72Z"
         id="path4929" />
      <path
         class="cls-19"
         d="M426.89,797.12l.1-.54Z"
         id="path4931" />
      <path
         class="cls-19"
         d="M426.26,785.08l-.14-.13Z"
         id="path4933" />
    </g>
  </g>
</svg>
