<?xml version="1.0" encoding="UTF-8" standalone="no"?>
<svg
   xmlns:dc="http://purl.org/dc/elements/1.1/"
   xmlns:cc="http://creativecommons.org/ns#"
   xmlns:rdf="http://www.w3.org/1999/02/22-rdf-syntax-ns#"
   xmlns:svg="http://www.w3.org/2000/svg"
   xmlns="http://www.w3.org/2000/svg"
   id="newdad_eyes_right"
   viewBox="0 0 570 1560"
   version="1.1">
  <metadata
     id="metadata987">
    <rdf:RDF>
      <cc:Work
         rdf:about="">
        <dc:format>image/svg+xml</dc:format>
        <dc:type
           rdf:resource="http://purl.org/dc/dcmitype/StillImage" />
        <dc:title></dc:title>
      </cc:Work>
    </rdf:RDF>
  </metadata>
  <defs
     id="defs985" />
  <g
     id="_Group_Image"
     data-name="&lt;Group&gt; Image">
    <path
       d="M333,150.24c1.43.08,2.86.2,4.3.21a21.59,21.59,0,0,1,8.91,2c3.51,1.63,7,3.27,10.49,5a23.79,23.79,0,0,1,2.52,1.66l-.06.22-1.64.17,1.36,2.54c.35.67.26.88-.48.75-2.1-.37-4.19-.8-6.27-1.26a72.54,72.54,0,0,0-16.85-1.92c-3.3.06-6.6.61-9.89,1a53.31,53.31,0,0,1-6,.65,5.34,5.34,0,0,1-4.55-2.35c-.88-1.32.16-3.39,1.85-3.86.88-.25,1.81-.35,2.68-.62a28.85,28.85,0,0,0,3.65-1.32,29,29,0,0,1,9-2.78,1,1,0,0,0,.23-.07Z"
       id="path971" />
    <path
       d="M253.49,178.3l-.27.23a26,26,0,0,0,8.41,3.94c5.88,1.88,11.83,1.58,17.81,1.19,1.21-.08,2.42-.22,3.63-.41a3.83,3.83,0,0,0,2.53-1.45,1.71,1.71,0,0,1,.11-.14,7.69,7.69,0,0,1,4.38-.37,11.74,11.74,0,0,1-6.4,2.79c-2.86.25-5.73.45-8.59.67l-.23,0c0,.77,0,1.53,0,2.28,0,.55-.22.93-.84.92s-1.29.12-1.44-.76a19.07,19.07,0,0,0-.38-2,1,1,0,0,0-.69-.61c-1.31-.11-2.63-.12-3.95-.19-.38,0-.58,0-.63.48-.07.63-.25,1.25-.3,1.89s-.3.57-.7.57-.78-.05-.81-.57c-.05-.73-.05-1.47-.14-2.2,0-.23-.21-.58-.39-.63-1.9-.53-3.81-1-5.75-1.51-.25.62-.47,1.23-.73,1.83s-.53,1-1.07.69a1.3,1.3,0,0,1-.59-1.07c.37-1.88-.51-2.89-2.17-3.49a11.86,11.86,0,0,1-1.57-.82c-.38.66-.71,1.3-1.11,1.88a1.58,1.58,0,0,1-.82.6c-.63.18-.84-.11-.7-.73.19-.87.33-1.75.5-2.65-.9-.47-.91-.47-.76-1.65a12.44,12.44,0,0,1,6.36-9.21,14.08,14.08,0,0,1,4.8-1.35,100.86,100.86,0,0,1,10.76-1.62,65.51,65.51,0,0,1,8.72.41,20.85,20.85,0,0,1,6.66,1.35,11,11,0,0,1,5.32,4.73c.63,1,.47,1.45-.64,1.75a8.45,8.45,0,0,0-.56-1,12.75,12.75,0,0,0-1.58-1.85,1.48,1.48,0,0,0-1.28-.29c-.29.12-.47.73-.54,1.14-.17,1-.15,2-.37,3-.84,3.84-3.41,6-7.13,6.78-4.68,1-9,.31-12.35-3.4a15.79,15.79,0,0,1-3.53-7.29c0-.13-.07-.27-.1-.4-.25-1.2-.24-1.12-1.49-1-3,.29-5.68,1.66-8.33,3a3.84,3.84,0,0,0-1.41,1.42,12,12,0,0,0-1.21,2.71C251.57,177.2,253.07,177.38,253.49,178.3Zm26.45-7.48c0-1.1-.38-1.76-1.45-2a9.51,9.51,0,0,0-3-.08,2.3,2.3,0,0,0-2,2.6,3.13,3.13,0,0,0,2.08,3.16A3.77,3.77,0,0,0,279.94,170.82Zm-13.11,1.31a1.88,1.88,0,0,0,2.81,1.78,3.19,3.19,0,0,0,1.72-2,2.06,2.06,0,0,0-.61-2.18,1.79,1.79,0,0,0-1.89-.39A3.16,3.16,0,0,0,266.83,172.13Z"
       id="path973" />
    <path
       d="M247.5,160l-1.93-.17a20.92,20.92,0,0,1,2.29-1.7c1.78-.94,3.59-1.84,5.43-2.65,2.93-1.28,5.87-2.58,8.88-3.68a19.48,19.48,0,0,1,7-.9c1.42,0,2.84-.17,4.24-.08a20.24,20.24,0,0,1,6.53,1.89,37.27,37.27,0,0,0,8.13,2.75,3.2,3.2,0,0,1,2.43,2.62,1.7,1.7,0,0,1-.6,1.71c-2,1.93-4.29,2-6.89,1.71a128.72,128.72,0,0,0-14.23-1.35,72.4,72.4,0,0,0-20,2.83,15.12,15.12,0,0,1-2.24.33c-.59.08-.73-.15-.44-.68C246.52,161.75,247,160.89,247.5,160Z"
       id="path975" />
    <path
       d="M354.51,173.09c-.61-.85-1.16-1.68-1.78-2.45a2.91,2.91,0,0,0-.94-.72.84.84,0,0,0-1.28.62,2.78,2.78,0,0,0-.09.76c-.05,5.77-3.61,9.52-9.4,9.92-3.56.24-6.85-.39-9.57-2.88a15.36,15.36,0,0,1-4.39-8.13c-.38-1.59-.36-1.51-2-1.35-2.95.3-5.49,1.66-8,3-.81.43-1.28,1.52-1.9,2.31,0,0,0,.07-.05.11-.94,2.09-.94,2.09.71,3.67a3.22,3.22,0,0,0,.51.3,5.29,5.29,0,0,1-3.69.21.82.82,0,0,1-.33-.65,12.67,12.67,0,0,1,6.38-9.93A12.44,12.44,0,0,1,323,166.6c3.77-.66,7.54-1.43,11.35-1.73a50.68,50.68,0,0,1,8.6.42,34,34,0,0,1,5.75,1,10.47,10.47,0,0,1,6.27,5C355.66,172.38,355.54,172.76,354.51,173.09Zm-15.1-4.53c-.37,0-.77.06-1.16.13a2.47,2.47,0,0,0-2.21,2.67,3.1,3.1,0,0,0,2.25,3.21,3.59,3.59,0,0,0,3.89-2.25c.87-2.1.25-3.48-2.08-3.69Zm-10,3.53a1.89,1.89,0,0,0,2.88,1.78,3.14,3.14,0,0,0,1.65-2,2.08,2.08,0,0,0-.57-2.19,1.8,1.8,0,0,0-1.88-.44A3.22,3.22,0,0,0,329.41,172.09Z"
       id="path977" />
    <path
       d="M354.3,174a2.07,2.07,0,0,1,.61,2.2c-.6,1.55-.24,3.06-.06,4.59a3.4,3.4,0,0,1,0,.78c-.31,0-.72,0-.91-.11a6.26,6.26,0,0,1-1-1.22c-.23-.33-.4-.69-.64-1.11-1.17.64-2.33,1.25-3.45,1.92-.18.11-.25.53-.26.8,0,.64.07,1.29,0,1.91,0,.29-.35.74-.57.76a1.27,1.27,0,0,1-1-.45,5.42,5.42,0,0,1-.67-1.58c-.12-.41-.29-.49-.68-.38-1.66.45-3.31.89-5,1.3a.84.84,0,0,0-.72.92,16.16,16.16,0,0,1-.14,2,.77.77,0,0,1-.48.55c-.41,0-1,.25-1.08-.47s-.11-1.31-.22-2a.64.64,0,0,0-.45-.41c-1.37,0-2.75.06-4.12.17a1,1,0,0,0-.67.58,7,7,0,0,0-.36,1.75c-.06.76-.42,1.07-1.16,1-.32,0-.63,0-1,0,0-.78,0-1.51,0-2.24,0-1.18.26-1.11-1.13-1a35.2,35.2,0,0,1-8.81-.75,12.71,12.71,0,0,1-5.48-2.83,11.44,11.44,0,0,1,1.57-.13,4.6,4.6,0,0,1,3.47,1.26c.95,1,2.37,1.15,3.72,1.22,3.17.16,6.34.33,9.51.48A34.19,34.19,0,0,0,344,181.76a21.53,21.53,0,0,0,7.29-3.36,6.19,6.19,0,0,0,2.54-3.57A4,4,0,0,1,354.3,174Z"
       id="path979" />
  </g>
</svg>
