<?xml version="1.0" encoding="UTF-8" standalone="no"?>
<svg
   xmlns:dc="http://purl.org/dc/elements/1.1/"
   xmlns:cc="http://creativecommons.org/ns#"
   xmlns:rdf="http://www.w3.org/1999/02/22-rdf-syntax-ns#"
   xmlns:svg="http://www.w3.org/2000/svg"
   xmlns="http://www.w3.org/2000/svg"
   id="newdad_eyes_left"
   viewBox="0 0 570 1560"
   version="1.1">
  <metadata
     id="metadata911">
    <rdf:RDF>
      <cc:Work
         rdf:about="">
        <dc:format>image/svg+xml</dc:format>
        <dc:type
           rdf:resource="http://purl.org/dc/dcmitype/StillImage" />
        <dc:title></dc:title>
      </cc:Work>
    </rdf:RDF>
  </metadata>
  <defs
     id="defs909" />
  <g
     id="_Group_Image"
     data-name="&lt;Group&gt; Image">
    <path
       d="M272.61,150.24a25.71,25.71,0,0,1,8.12,2.35,27.55,27.55,0,0,0,7.19,2.35,3,3,0,0,1,2.43,2.57,2.51,2.51,0,0,1-1.43,2.54,7.26,7.26,0,0,1-5.29,1.06c-4.11-.58-8.24-1-12.37-1.45a48.75,48.75,0,0,0-9.73.44,91.69,91.69,0,0,0-13.16,2.49,14.9,14.9,0,0,1-2,.23c-.55.05-.65-.19-.41-.64.37-.7.75-1.4,1.13-2.1.09-.17.16-.35.27-.57l-1.71-.18v-.12a31,31,0,0,1,3.19-2.07q5.1-2.5,10.29-4.83a20.45,20.45,0,0,1,8.41-1.85c1.46,0,2.91-.14,4.36-.22Z"
       id="path895" />
    <path
       d="M351.74,178.54l-.38-.28a13.28,13.28,0,0,0,1.32-1.27,1.47,1.47,0,0,0,.3-1.1,12.26,12.26,0,0,0-.94-2.32,4.23,4.23,0,0,0-2.27-2.11,8.65,8.65,0,0,1-.87-.41,20.86,20.86,0,0,0-7.53-2.38c-.44,0-.62,0-.7.49a18.46,18.46,0,0,1-2,5.85c-2.43,4.37-6.19,6.37-11.15,6.26a12.65,12.65,0,0,1-6.07-1.6,7.61,7.61,0,0,1-3.56-4.19,10.78,10.78,0,0,1-.82-4.24c0-.44-.24-1.18-.55-1.29a1.68,1.68,0,0,0-1.41.42c-.77.81-1.4,1.75-2.13,2.69-.94-.2-1.13-.64-.49-1.69a11,11,0,0,1,4.39-4.29,16.21,16.21,0,0,1,6.38-1.68,87.11,87.11,0,0,1,10.69-.49A63.54,63.54,0,0,1,348,167.47c1.9.55,3.18,2.09,4.42,3.55a11.81,11.81,0,0,1,2.8,6.61c.08.78-.35.91-.88,1a26.23,26.23,0,0,0,.54,2.75c.21.69-.18.79-.6.72a1.69,1.69,0,0,1-.94-.61,19.85,19.85,0,0,1-1.12-1.9c-1.18.64-2.32,1.24-3.43,1.89a.92.92,0,0,0-.28.67c0,.65.06,1.32,0,2a1.26,1.26,0,0,1-.63.86c-.23.07-.72-.22-.88-.48a15.81,15.81,0,0,1-.72-1.63c-.08-.16-.37-.35-.51-.31-1.77.43-3.52.88-5.27,1.38a.93.93,0,0,0-.51.64,18.18,18.18,0,0,0-.12,2.09c0,.54-.31.71-.82.71s-.69-.17-.73-.69c-.19-2.3-.21-2.29-2.52-2.16-.78,0-1.57,0-2.33.09a1,1,0,0,0-.7.6,17.26,17.26,0,0,0-.39,2.05c-.15.8-.8.71-1.37.73a.78.78,0,0,1-.91-.86c0-.77,0-1.54,0-2.3-1.49-.09-3-.14-4.51-.28-1.85-.19-3.69-.43-5.52-.69a12.1,12.1,0,0,1-5.19-2.55s0,0,0-.06c.72-.46,4,0,4.56.66a4.92,4.92,0,0,0,3.77,1.54c4.44.17,8.9.49,13.34.32,2.54-.1,5-1,7.58-1.59A19.77,19.77,0,0,0,351.74,178.54Zm-23.77-10a14.94,14.94,0,0,0-1.58.31,1.76,1.76,0,0,0-1.4,2,4,4,0,0,0,2.74,3.68,2.74,2.74,0,0,0,3.62-2.17c.46-1.93-.34-3.33-2.12-3.64C328.87,168.62,328.51,168.6,328,168.54Zm10.13,3.38a3,3,0,0,0-1.82-2.53,2,2,0,0,0-2.79,1.67,3.11,3.11,0,0,0,1.76,2.83C336.68,174.61,338.1,173.73,338.1,171.92Z"
       id="path897" />
    <path
       d="M359.11,159.83l-1.68.15c.51.91,1,1.77,1.47,2.63.29.51.16.79-.44.68q-2.74-.54-5.49-1.14a75.32,75.32,0,0,0-17.56-2.05c-3,.06-5.92.54-8.87.85-2.23.23-4.44.54-6.67.74a6.12,6.12,0,0,1-5.11-2.28,1.88,1.88,0,0,1-.29-1.34,3.34,3.34,0,0,1,2.47-2.66,32.31,32.31,0,0,0,7.53-2.49,20.14,20.14,0,0,1,6.77-2.07c5.56-.27,11.05.08,16.18,2.61,2.55,1.27,5.19,2.35,7.74,3.62,1.42.71,2.72,1.63,4.07,2.45Z"
       id="path899" />
    <path
       d="M288.81,178.21A10.76,10.76,0,0,0,290.1,177a1.36,1.36,0,0,0,.31-1,14,14,0,0,0-1-2.47,4.11,4.11,0,0,0-2.16-2,11.81,11.81,0,0,1-1.57-.74,19.54,19.54,0,0,0-7-2.08,2.4,2.4,0,0,0-.38,0c-.37,1.33-.66,2.68-1.13,4-1.33,3.66-3.5,6.63-7.35,7.91a13.07,13.07,0,0,1-11.5-1.22,6.88,6.88,0,0,1-2.84-3.45,10.55,10.55,0,0,1-1-4.57c0-.46-.25-1.24-.57-1.34a1.74,1.74,0,0,0-1.45.47,30.48,30.48,0,0,0-2.07,2.63c-.77-.07-1-.41-.67-1.23a9.92,9.92,0,0,1,3.68-4.23,13.32,13.32,0,0,1,6.37-2.08,89.93,89.93,0,0,1,11.58-.59,62.49,62.49,0,0,1,14,2.55,6.68,6.68,0,0,1,2.21,1.37,12.68,12.68,0,0,1,5,8.67c.08.69-.09,1.07-.79,1.08-1,0-2,0-3-.06Zm-26.41-7.38a3.88,3.88,0,0,0,3.71,3.8,3,3,0,0,0,2.78-3.27c0-1.85-1.17-2.8-3.41-2.79C263.41,168.58,262.4,169.32,262.4,170.83Zm13.11,1.31a3.18,3.18,0,0,0-1.75-2.72,2,2,0,0,0-2.85,1.63,3.09,3.09,0,0,0,1.79,2.86A1.88,1.88,0,0,0,275.51,172.14Z"
       id="path901" />
    <path
       d="M252.67,179.12c-.33.58-.63,1.12-1,1.64a1.53,1.53,0,0,1-.54.61,4.28,4.28,0,0,1-1,.19,3.79,3.79,0,0,1-.07-.82c.2-1.53.53-3-.06-4.59a2,2,0,0,1,.61-2.16,4.48,4.48,0,0,1,.45.86,6,6,0,0,0,2.45,3.49,20.25,20.25,0,0,0,6.92,3.29c3.45,1,6.89,2,10.51,1.85,3.83-.13,7.65-.36,11.48-.59a4,4,0,0,0,2.83-1.28,2.84,2.84,0,0,1,2-1,13.5,13.5,0,0,1,2.62,0c-4.44,3.83-9.82,3.49-15.18,3.61v3.16a2,2,0,0,1-.31.06c-1.66.12-1.7.06-2-1.56-.38-2-.09-1.76-2.09-1.85-.94,0-1.88-.05-2.82-.12-.49,0-.61.15-.63.6s-.1,1.14-.16,1.72c-.06.74-.62.56-1.08.58s-.51-.32-.53-.67c0-.64-.1-1.28-.11-1.91a.84.84,0,0,0-.76-.9q-2.46-.62-4.91-1.29c-.43-.11-.59,0-.72.41a5.83,5.83,0,0,1-.67,1.58,1.15,1.15,0,0,1-.93.42c-.23,0-.54-.45-.58-.73-.08-.63.07-1.28,0-1.91a1.57,1.57,0,0,0-.59-1C254.79,180.21,253.73,179.69,252.67,179.12Z"
       id="path903" />
  </g>
</svg>
