<?xml version="1.0" encoding="UTF-8" standalone="no"?>
<svg
   xmlns:dc="http://purl.org/dc/elements/1.1/"
   xmlns:cc="http://creativecommons.org/ns#"
   xmlns:rdf="http://www.w3.org/1999/02/22-rdf-syntax-ns#"
   xmlns:svg="http://www.w3.org/2000/svg"
   xmlns="http://www.w3.org/2000/svg"
   id="newmum_eyes_left"
   viewBox="0 0 570 1560"
   version="1.1">
  <metadata
     id="metadata40">
    <rdf:RDF>
      <cc:Work
         rdf:about="">
        <dc:format>image/svg+xml</dc:format>
        <dc:type
           rdf:resource="http://purl.org/dc/dcmitype/StillImage" />
        <dc:title></dc:title>
      </cc:Work>
    </rdf:RDF>
  </metadata>
  <defs
     id="defs38" />
  <g
     id="_Group_Image"
     data-name="&lt;Group&gt; Image">
    <path
       d="M252.4,216.18c-1.36-.2-2.72-.38-4.07-.61A2.91,2.91,0,0,1,247,215h3.75l.17-.18c-4-2.73-4.34-7-4.88-11.33a6.18,6.18,0,0,0-1.12.48,10,10,0,0,0-1.45,1.15c-1.32,1.3-2,2.66-.87,4.54a21.61,21.61,0,0,1,1.34,3.72l-.23.14-.88-.65a24.62,24.62,0,0,1-5.72-5.39c-1-1.39-1-2,.26-3.16a17.36,17.36,0,0,1,2.2-1.72,2,2,0,0,0,1-2.5c-.2-.75-.41-1.5-.54-2.26,0-.25.2-.54.3-.8.25.1.61.13.73.32a17.93,17.93,0,0,1,.93,1.73c.53,1,1.1,1.17,2.08.61a13.46,13.46,0,0,1,1.66-.82,2.81,2.81,0,0,0,1.89-2.59c.06-.88,0-1.77,0-2.65l.37-.14a6.57,6.57,0,0,1,.8,1c.34.63.61,1.29.91,1.94a1.26,1.26,0,0,0,1.72.73,19.31,19.31,0,0,1,7.69-.85c2.78.29,5.52.81,8.29,1.21,2.13.31,4.28.52,6.39.93a14.16,14.16,0,0,1,5.92,3.14,10.37,10.37,0,0,1-1.55.54c-1.61.26-1.64.27-1.05,1.74.37.92.77,1.83,1.14,2.76a2.63,2.63,0,0,1,0,.72c-4.87-3-10.26-3.5-15.61-4.29-.07,1.23-.09,2.39-.23,3.55a12.91,12.91,0,0,1-3.28,7.35,6.5,6.5,0,0,1-.65.49,2.88,2.88,0,0,0-.33.43,1.71,1.71,0,0,0,.48.29c.47.13,1,.22,1.44.33v.23l-4.11.51ZM257,202.39c0,.44.07.78.06,1.11a25.42,25.42,0,0,1-.1,4.1,4,4,0,0,1-3,3.45,4.27,4.27,0,0,1-4.34-2.41l-1.53.24c.36.6.61,1.14.95,1.61a5.85,5.85,0,0,0,5.63,2.71,5.07,5.07,0,0,0,4.43-3.69,28.17,28.17,0,0,0,1.06-4.92,1.6,1.6,0,0,0-1.42-2C258.17,202.48,257.61,202.46,257,202.39Zm-9.43,2.12-.12,0c.16.84.25,1.69.48,2.5a1.18,1.18,0,0,0,1.39.88c.67-.11,1.38-.29,1.55-1.09a19.91,19.91,0,0,0,.36-2.54c.06-.7,0-1.61-.8-1.7a8.4,8.4,0,0,0-2.68.41c-.12,0-.2.45-.23.69A4.63,4.63,0,0,0,247.52,204.51Z"
       id="path26" />
    <path
       d="M344.94,192.38c-.43.83-.69.91-1.76.52-5-1.82-10-3.73-15-5.44a75,75,0,0,0-9.38-2.61,8.71,8.71,0,0,0-7.11,1.71c-1.3,1-2.79,1.7-4.18,2.56-.55.33-1,.33-1.27-.35a8.27,8.27,0,0,1,3.78-3c.24-.08.38-.47.59-.69a10.19,10.19,0,0,1,10.16-3c7,1.7,13.59,4.58,20.1,7.62,1,.46,2,.87,2.92,1.38a7,7,0,0,1,1.15,1Z"
       id="path28" />
    <path
       d="M337.62,213.86a7.47,7.47,0,0,1,1.14-4.1,2.76,2.76,0,0,0-.21-3.3c-.9-1.23-1.79-2.42-3.46-2.59-.61-.06-1.23-.08-1.85-.11-2.64-.11-5.27-.22-7.9-.31-.64,0-.52.51-.55.91a34.54,34.54,0,0,1-.43,4.2,9.92,9.92,0,0,1-3.64,5.61c-.22.18-.51.43-.54.67-.09.66-.5.71-1,.69l-5-.17a1.79,1.79,0,0,1-1.51-1c-.43-.7-.86-1.39-1.35-2a10.86,10.86,0,0,1-2.05-9.46,3.59,3.59,0,0,0-3.54,1.78,27.33,27.33,0,0,1-2.38,3.33c-.22-1.85,1-3.24,1.39-4.94l-2.12-.57c-.55-.14-.68-.47-.32-.92a2,2,0,0,1,.62-.46,30.15,30.15,0,0,1,13.49-3.67c2.92-.09,5.82-.41,8.73-.56a15.4,15.4,0,0,1,2.62.19,2,2,0,0,0,2.14-1,31.71,31.71,0,0,1,1.73-2.79,3.73,3.73,0,0,1,1.44-1.09c.51-.23,1,.45.86,1.14-.25,1.19-.53,2.37-.85,3.54a1,1,0,0,0,.62,1.39c1.33.64,2.62,1.35,3.91,2.07.4.23.57.15.81-.2.67-1,1.37-2,2.1-3,.15-.2.46-.28.7-.42.13.32.39.64.37,1a7.92,7.92,0,0,1-.38,1.62,10.34,10.34,0,0,1-.36,1.07,3,3,0,0,0,1.07,3.7,15.36,15.36,0,0,1,2.15,2.46,1.21,1.21,0,0,1,0,1.61A31.54,31.54,0,0,1,337.62,213.86Zm-14.85-5c-.51,0-1,0-1.42,0a1.57,1.57,0,0,1-.66-.19.8.8,0,0,0-1.22.19c-1.52,1.85-3.71,2.19-5.24.78a6.36,6.36,0,0,1-2-6c.15-1,0-1.28-1-1a.76.76,0,0,0-.42.57c0,.83.07,1.67.06,2.5a9.11,9.11,0,0,0,2.86,6.73,3.32,3.32,0,0,0,2.7,1.16A7.58,7.58,0,0,0,322.77,208.85Zm.72-3.9c0-2.15,0-2.22-2.15-2.49a5,5,0,0,0-.95,0,2.08,2.08,0,0,0-1.86,2.79,3.79,3.79,0,0,0,2.53,2.51c1.43.46,2.31-.15,2.43-1.64C323.52,205.71,323.49,205.33,323.49,205Z"
       id="path30" />
    <path
       d="M272.87,187a4.53,4.53,0,0,1-.74-.34,17.11,17.11,0,0,0-5.23-2,9.42,9.42,0,0,0-5,.15c-7.23,1.79-14.07,4.69-21,7.19a26,26,0,0,1-2.5.81c-.29.07-.85,0-.91-.21a1.73,1.73,0,0,1,.06-1.14c.07-.21.4-.37.64-.5a132,132,0,0,1,22-8.88,11.11,11.11,0,0,1,11.53,2.83,13.06,13.06,0,0,1,1.42,1.92Z"
       id="path32" />
  </g>
</svg>
