<?xml version="1.0" encoding="UTF-8" standalone="no"?>
<svg
   xmlns:dc="http://purl.org/dc/elements/1.1/"
   xmlns:cc="http://creativecommons.org/ns#"
   xmlns:rdf="http://www.w3.org/1999/02/22-rdf-syntax-ns#"
   xmlns:svg="http://www.w3.org/2000/svg"
   xmlns="http://www.w3.org/2000/svg"
   id="newmum_head_neutral"
   viewBox="0 0 570 1560"
   version="1.1">
  <metadata
     id="metadata212">
    <rdf:RDF>
      <cc:Work
         rdf:about="">
        <dc:format>image/svg+xml</dc:format>
        <dc:type
           rdf:resource="http://purl.org/dc/dcmitype/StillImage" />
        <dc:title></dc:title>
      </cc:Work>
    </rdf:RDF>
  </metadata>
  <defs
     id="defs162">
    <style
       id="style160">.cls-1{fill:#f1ded0;}.cls-2{fill:#f6ece4;}.cls-3{fill:#f2e0d2;}.cls-4{fill:#f7ede5;}.cls-5{fill:#bd4f36;}.cls-6{fill:#c5a295;}.cls-7{fill:#c49e90;}.cls-8{fill:#c49c8e;}</style>
  </defs>
  <g
     id="_Group_Image"
     data-name="&lt;Group&gt; Image">
    <path
       class="cls-1"
       d="M286.08,362.58a3.8,3.8,0,0,0-2.12-.46,32.5,32.5,0,0,1-7.86-.93l-4.91-.89a1.76,1.76,0,0,1-1.09-.42.28.28,0,0,0-.21-.11c-.9.13-1.64-.42-2.48-.57a6.13,6.13,0,0,1-1.47-.64c-.8-.4-1.58-.86-2.4-1.22a2.2,2.2,0,0,1-.69-.42c-.28-.28-.51-.63-1-.61-.1,0-.2-.11-.29-.19a3.16,3.16,0,0,1,1-5.11,2.15,2.15,0,0,0,.76-.74,2.7,2.7,0,0,1,1-.81c.21-.12.42-.22.64-.33a1.51,1.51,0,0,0,.95-1.63,31.62,31.62,0,0,1,.11-5.15c.11-1,.34-2,.47-2.93.14-1.13.26-2.25.35-3.38.1-1.33.36-2.64.51-4l.45-3.78q.27-2.19.51-4.38c.12-1,.24-2,.33-3,.12-1.44.26-2.88.45-4.32.14-1.08.21-2.18.26-3.27.07-1.57.06-3.15.14-4.72a26.63,26.63,0,0,0,.31-3.85c-.29-3.1-.07-6.21-.32-9.31-.16-2-.39-4.08-.5-6.12,0-.43-.1-.87-.1-1.31a.56.56,0,0,0-.32-.59,4.76,4.76,0,0,1-2.4-2.15,5.23,5.23,0,0,0-1.48-1.37c-.53-.35-1-.86-1.44-1.22s-1.21-.83-1.73-1.28-1.68-.19-1.78-1.27c0-.11-.16-.13-.25-.11-.57.11-.82-.39-1.23-.58-.78-.38-1.33-1.11-2.19-1.38-.44-.14-.64-.66-1-.9a13,13,0,0,0-2.34-1.48s-.09,0-.1-.05a5.44,5.44,0,0,0-2.08-1.49c-1.76-1.06-3-2.67-4.41-4s-2.74-2.94-4.29-4.18c-.79-.64-1.61-1.24-2.34-2a1,1,0,0,1-.35-.66,1.19,1.19,0,0,0-.6-.91,3.56,3.56,0,0,1-1.57-1.52c-.31-.8-1.2-1.21-1.27-2.14a.82.82,0,0,0-.44-.6,4.1,4.1,0,0,1-1.61-1.5c-.94-1.78-2.81-2.72-3.83-4.34s-2.41-2.42-3.33-3.82a9.94,9.94,0,0,1-1.31-2,14.1,14.1,0,0,0-.67-1.35,3.55,3.55,0,0,1-.7-1.74c0-.12,0-.28.05-.35a3,3,0,0,0,.42-2.18c0-1.72,0-3.43,0-5.15,0-.2.05-.45,0-.59-.61-.84-.4-1.8-.42-2.72a1.57,1.57,0,0,0-.38-1.27c-.16-.15-.1-.37-.1-.57,0-.49.07-1-.38-1.38-.25-.24-.09-.65-.1-1,0-.5.05-1-.38-1.39-.15-.13-.1-.33-.1-.51q0-6.75,0-13.49a1.58,1.58,0,0,1,.2-.8,1.13,1.13,0,0,0,.05-1.15c-.21-.36,0-.49.28-.58a5.87,5.87,0,0,0,1.87-.69,8.65,8.65,0,0,0,1-.79,28.85,28.85,0,0,1,3.57-2.39c1.29-.9,2.7-1.6,4-2.55.43-.32.79-.82,1.51-.75.27,0,.7-.37,1-.68s.52-.79,1.09-.7a.29.29,0,0,0,.35-.25.26.26,0,0,1,.26-.21c.61.07.81-.49,1.2-.77a3.85,3.85,0,0,1,1.14-.66,1.59,1.59,0,0,0,.7-.41,5.05,5.05,0,0,1,1.92-1.07c.07,0,.18,0,.21-.09.41-.65,1.15-.84,1.73-1.25a12.1,12.1,0,0,1,2.4-1.54s.09,0,.11-.05a5,5,0,0,1,2.13-1.52c1-.49,1.5-1.6,2.63-1.82a.07.07,0,0,0,.05,0c.6-.82,1.64-1,2.33-1.79,1.53-1.66,3.23-3.16,4.74-4.84a8.81,8.81,0,0,0,1.5-2.26,3.18,3.18,0,0,1,.95-1.05,1.23,1.23,0,0,0,.38-.44,4.63,4.63,0,0,1,1.28-2.18c.34-.29.43-.89.66-1.34s.53-1.1.83-1.64a12.16,12.16,0,0,1,.61-1.19,4.18,4.18,0,0,1,.82-1s.13-.07.13-.1a1.37,1.37,0,0,1,.49-1.09c.17-.17-.05-.71.45-.8-.18-.62.53-.89.57-1.47a4.2,4.2,0,0,1,.6-1.36c.82-1.75,2-3.31,2.61-5.19a.73.73,0,0,1,.6-.56,17.64,17.64,0,0,1,2-.49,1.57,1.57,0,0,0,1.2-.89c.26-.52.57-1,.87-1.5.11-.18.2-.38.45-.45a16.84,16.84,0,0,0,5.81-3.22c1.82-1.39,3.66-2.75,5.37-4.28.91-.05,1.23-1.15,2.16-1.22.43,0,.69-.43.88-.8a.29.29,0,0,1,.17.32,23.69,23.69,0,0,0,.13,2.92c.13,2.5,0,5,.15,7.48s.05,5,.08,7.55a11,11,0,0,1-.44,3.47,2.55,2.55,0,0,0,0,.83,2.1,2.1,0,0,1-.33,1.31c-.32.45-.13,1-.24,1.51-.85,3.76-1.33,7.59-2,11.39-.21,1.27-.67,2.49-.88,3.77-.71,4.25-1.92,8.37-2.89,12.55-.71,3.06-1.36,6.13-1.82,9.24a7.24,7.24,0,0,0-.05,3c.07.25.06.59.34.64s.34-.33.5-.52a.76.76,0,0,0,.14-.52,2.47,2.47,0,0,0,3-.73,32.81,32.81,0,0,0,3.34-5.3,10.35,10.35,0,0,0,.75-2,4.48,4.48,0,0,1,1.13-1.74c.13-.17.26-.16.32.08a2.18,2.18,0,0,0,.16.45,1.33,1.33,0,0,0,1.3.88c.44,0,.88,0,1.32,0,.25,0,.54.07.59-.32,0,0,.05-.1.06-.09.63.17.89-.62,1.47-.56.09,0,.26,0,.28-.06.2-.78.94-1.09,1.42-1.63a11.64,11.64,0,0,1,2.43-2.38,13.35,13.35,0,0,0,2.5-2.16c.53-.5.85-1.2,1.42-1.67s.79-.87,1.25-1.24a2.47,2.47,0,0,0,.58-.85,2.43,2.43,0,0,1,.92-1.08.27.27,0,0,0,.11-.2c0-.86.82-1.09,1.18-1.67,0,0,.2-.08.2-.09-.17-.61.53-.87.56-1.41s.46-.61.71-.89c.11-.11.25-.18.23-.35-.08-.57.46-.74.71-1.09.07-.09.25-.1.25-.27,0-.33-.07-.71.41-.78-.18-.61.58-.85.56-1.4,0-.17,0-.35.19-.4s.29-.28.28-.51,0-.4.26-.48.21-.07.2-.19c0-.67.43-1,.9-1.33.17-.12.07-.38.08-.57s-.11-.7.36-.84c.16-.05.12-.24.12-.37s0-.5.33-.6.11-.38.15-.58-.18-.74.37-.87c.18,0,.09-.32.11-.49,0-.35-.15-.79.39-.94a.15.15,0,0,0,.07-.15c-.26-.88.33-1.62.58-2.35s.19-1.48.72-2.05a.34.34,0,0,0,.1-.22c-.18-1.09.73-2,.54-3.09a1.06,1.06,0,0,1,.29-1,1,1,0,0,0,.19-.74c0-.81-.22-1.67.42-2.39.08-.1.05-.31.06-.47v-2a1.48,1.48,0,0,1,.3-1.17,1.23,1.23,0,0,0,.18-.8c0-2.74,0-5.48,0-8.22a1.07,1.07,0,0,0-.11-.64,3.06,3.06,0,0,1-.37-2.11q0-.81,0-1.62a1.12,1.12,0,0,0-.15-.69,3.24,3.24,0,0,1-.21-2.58c.09-.55.93-1,1.35-.65a2.43,2.43,0,0,0,1.58.35c.54,0,1.12-.16,1.59.3a.34.34,0,0,0,.49-.06.79.79,0,0,1,1-.22c.72.3,1.55.36,2.1,1a13.88,13.88,0,0,0,1,1,.58.58,0,0,0,.76.1c1.53-.8,1.86-.72,3.2.38s2.44,2.28,3.65,3.44a39.14,39.14,0,0,1,2.63,3.24,1.21,1.21,0,0,1,.19.5,1.14,1.14,0,0,0,1,.93A8.45,8.45,0,0,1,343,159a1.51,1.51,0,0,1,.42.49c1.1,2.37,2.2,4.74,3.32,7.1a59.31,59.31,0,0,1,2.44,6.68c.83,2.54,1.6,5.09,2.21,7.69a52.94,52.94,0,0,0,1.32,5.63,17.35,17.35,0,0,1,.68,6.06,37,37,0,0,0,.77,7c.13.68.22,1.37.31,2.06.05.41-.15.88.4,1.12.14.06.08.3.08.45v1.62c0,.29-.08.6.33.73.19.07.15.31.15.49,0,.79,0,1.59,0,2.39a6.19,6.19,0,0,0,.32,2.51c.35.78.12,1.76.54,2.54a7,7,0,0,1,.58,3.61c0,2.22.06,4.44,0,6.65a16.33,16.33,0,0,0,.77,4.57,7.41,7.41,0,0,1,.2,2.25.57.57,0,0,1-.07.35c-.61.65-.37,1.46-.4,2.22a1.3,1.3,0,0,1-.33,1c-.2.19-.14.45-.15.68a2.7,2.7,0,0,1-.4,1.88c-.25.27-.07.77-.08,1.17a1.06,1.06,0,0,1-.28.93.38.38,0,0,0-.14.26c.14.9-.45,1.65-.54,2.5a.59.59,0,0,1-.15.44s-.07.05-.08.09a6.54,6.54,0,0,1-1.19,2.46c-.35.47-.51,1.06-.82,1.56a8.28,8.28,0,0,0-.46,1c-.5,1-1.33,1.85-1.74,3a3.11,3.11,0,0,1-1.05,1.67c-.4.27-.42.93-.72,1.38-.43.64-.5,1.48-1.22,2-.35.23-.37.73-.53,1.08a13.71,13.71,0,0,0-.74,1.75c-.27.95-.56,2-1.81,2.41a2.91,2.91,0,0,0-1.68,1,.74.74,0,0,1-.64.36,1.73,1.73,0,0,0-1.68,1.38,1.67,1.67,0,0,1-.43.78,1.19,1.19,0,0,0-.38.72,1.26,1.26,0,0,1-.64,1,.7.7,0,0,0-.29.37,4.2,4.2,0,0,1-1.3,2.17.47.47,0,0,0-.17.37,1,1,0,0,1-.6.9.69.69,0,0,0-.36.52,1.15,1.15,0,0,1-.57.93c-1.32,1.1-2.55,2.29-3.81,3.46-2,1.85-4.07,3.61-6.21,5.31a103.83,103.83,0,0,1-10.89,7.35c-.54.33-1.19.49-1.56,1.07-.89-.05-1.12,1.09-2,1.12-.35,0-.4.43-.16.65a1,1,0,0,1,.24.81c0,.32-.11.67.35.85.22.08.13.39.13.6v7.32a1.33,1.33,0,0,0,.27.95,1.22,1.22,0,0,1,.21.85v5.4a1,1,0,0,0,.11.7,2.5,2.5,0,0,1,.37,1.76v4.26c0,.18,0,.4.05.53.71,1,.34,2.16.43,3.25,0,.29-.09.6.32.74.22.07.16.34.16.54v3.11c0,.18,0,.41.05.53.65.88.38,1.88.43,2.84,0,.24,0,.5.12.69a2.26,2.26,0,0,1,.36,1.65v6.78a1.2,1.2,0,0,0,.29.94c.07.07.17.17.16.24-.25,1.19.51,2.21.51,3.36,0,4.38,0,8.76,0,13.13,0,.54.14.74.67.66a2.89,2.89,0,0,1,2,.69,28.75,28.75,0,0,1,2.46,2,4.2,4.2,0,0,0,1.25.63,13.14,13.14,0,0,1,2.11,1.09,4.8,4.8,0,0,1,1.3,1,1.19,1.19,0,0,1,.27,1.16c-.11.4-.51.51-.82.74-.64.46-1.49.25-2,.81-.13.14-.3.09-.46.1s-.46,0-.58.08c-.65.58-1.42.38-2.16.39a1.28,1.28,0,0,0-1,.33.71.71,0,0,1-.56.16h-1.91a.88.88,0,0,0-.58.1,2.73,2.73,0,0,1-1.89.38c-1.16,0-2.32,0-3.47,0a4.45,4.45,0,0,0-2.12.47Z"
       id="path164" />
    <path
       class="cls-2"
       d="M373.5,199.23h.12v18.83h-.12Z"
       id="path166" />
    <path
       class="cls-1"
       d="M210.05,202a43.08,43.08,0,0,0,.15,5.21c.11,1.84.34,3.67.54,5.51.26,2.33.58,4.65.88,7,.23,1.77.58,3.52.79,5.3.12,1.08.2,2.17.31,3.26.25,2.49.19,5,.21,7.47a1.28,1.28,0,0,1-.28.94c-.37.45-.18,1-.19,1.56a1,1,0,0,1-.38.89c-.3.24-.53.5-.87,0a1,1,0,0,0-1.4-.07c-.84.83-2,1-3,1.58a2.37,2.37,0,0,1-3.25-1.22,3.52,3.52,0,0,1-.35-1.56c0-.18,0-.39-.1-.52-.5-.49-.38-1.1-.38-1.69v-4.37c0-.22.06-.48-.1-.64-.49-.51-.38-1.14-.38-1.75v-9.65a1.64,1.64,0,0,0-.22-.91,5,5,0,0,1-.37-1.85c-.59-3.45-.31-6.92-.37-10.39,0-.16,0-.35.08-.46.48-.44.39-1,.41-1.56,0-1.08-.25-2.21.15-3.21.53-1.34.86-2.73,1.3-4.09a4.27,4.27,0,0,1,2.67-2.81,2.18,2.18,0,0,1,2.71.87,7.09,7.09,0,0,1,1.44,4.58C210,200.13,210.05,200.9,210.05,202Z"
       id="path168" />
    <path
       class="cls-1"
       d="M373.5,199.23v18.83a1.17,1.17,0,0,0-1.08,1.27c0,.88,0,1.76,0,2.64a61.58,61.58,0,0,1-.44,6.36,33.72,33.72,0,0,0-.29,3.63,9.47,9.47,0,0,0,0,2.55.34.34,0,0,1-.2.39,7.62,7.62,0,0,1-3,1.44c-.14,0-.27.09-.4,0a4.29,4.29,0,0,1-1.82-2.8,25.29,25.29,0,0,1-.46-5.28.92.92,0,0,0-.14-.57c-.53-.72-.27-1.51-.26-2.29,0-1.13,0-2.27-.11-3.4s-.2-2.33-.33-3.5a35.58,35.58,0,0,1-.12-3.58,1.17,1.17,0,0,0-.12-.52,11.85,11.85,0,0,1-.85-3.8,6.69,6.69,0,0,0-.38-2.09,4,4,0,0,1-.08-1.71,2,2,0,0,0-.4-1.57c-.14-.14-.08-.35-.08-.52,0-3.4,0-6.8,0-10.2a4.9,4.9,0,0,1,1.43-3.51,2.54,2.54,0,0,1,2.7-.56,7.57,7.57,0,0,1,4,3,6.54,6.54,0,0,1,1.18,2.19c.21.7.76,1.26,1,2A4.94,4.94,0,0,1,373.5,199.23Z"
       id="path170" />
    <path
       class="cls-1"
       d="M242.52,170.09h.06c1.79,0,1.49-.3,1.54,1.56a.56.56,0,0,1-.43.62c-.47.14-.58.45-.56.92,0,.32.24.8-.36.9a.15.15,0,0,0-.07.1,19.58,19.58,0,0,1-1.8,3.75c-.61,1.28-1.27,2.54-1.9,3.81a2.64,2.64,0,0,1-.59.81,1.35,1.35,0,0,0-.57.94c0,.27-.3.45-.54.6a1.68,1.68,0,0,0-.89,1.26,2.82,2.82,0,0,1-.54,1.08c-.59.9-.75,2.07-1.69,2.76,0,.87-1.11,1.17-1.15,2.05a.05.05,0,0,1,0,.05c-.77.51-1,1.43-1.54,2.13s-1.07,1.53-1.6,2.3-1.12,1.24-1.57,2a1.61,1.61,0,0,1-1.09.56c-.26.07-.31-.16-.37-.36a7.23,7.23,0,0,1-.1-2,1.65,1.65,0,0,0-.52-1.34.78.78,0,0,1-.32-.62,10.79,10.79,0,0,0-.54-3,2.27,2.27,0,0,1,.74-2.13c0-.05.13-.11.14-.17.14-1.31,1.12-2.27,1.5-3.48.05-.15.21-.23.35-.31a.92.92,0,0,0,.43-.48,28.52,28.52,0,0,1,1.16-2.66c.15-.4.6-.69.94-1,.16-.13.36-.25.37-.44,0-.6.47-.89.81-1.26a6.52,6.52,0,0,0,1.65-2.91.85.85,0,0,1,.78-.71,1.34,1.34,0,0,0,1.09-.72c.42-.6.81-1.32,1.75-1.2.32,0,.39-.22.49-.44a2.08,2.08,0,0,1,1.21-1.09c.71-.3,1.64-.4,2-1.36a.83.83,0,0,1,.94-.48A5.89,5.89,0,0,0,242.52,170.09Z"
       id="path172" />
    <path
       class="cls-3"
       d="M300.23,166.73a27.9,27.9,0,0,1,.71-5.06,1.76,1.76,0,0,1,.19,1.46c-.25,1.4-.52,2.8-.78,4.19C300.15,167.16,300.26,166.93,300.23,166.73Z"
       id="path174" />
    <path
       class="cls-4"
       d="M300.23,166.73c0,.2-.08.43.12.59a13.34,13.34,0,0,1-.48,2.17h0A14.19,14.19,0,0,1,300.23,166.73Z"
       id="path176" />
    <path
       class="cls-4"
       d="M299.87,169.49v.61c-.14-.31-.16-.47,0-.61Z"
       id="path178" />
  </g>
  <g
     id="_Group_Image-2"
     data-name="&lt;Group&gt; Image">
    <path
       class="cls-5"
       d="M290.17,149.45a2.22,2.22,0,0,1-1.71,2.26,12,12,0,0,0-2.88,1.84,75.64,75.64,0,0,1-7.47,5.51,17.57,17.57,0,0,1-4.45,1.73,3.45,3.45,0,0,1-.72,0,.67.67,0,0,1-.74-.73,4.25,4.25,0,0,1,.55-2.1c1.32-2.6,2.79-5.12,4.34-7.59a56.73,56.73,0,0,1,4.2-5.86,52.2,52.2,0,0,1,3.87-4,1.26,1.26,0,0,0,.39-1.47c-.18-.5-.27-.53-.65-.19a42.88,42.88,0,0,0-5.46,5.81,83.46,83.46,0,0,0-6.57,10.09c-2.53,4.45-4.52,9.17-6.85,13.71-1.53,3-3.06,6-4.62,9a50.91,50.91,0,0,1-4.45,7c-.35.47-5.38,4.5-5.31,4.74a.51.51,0,0,1-.22.62c-.63.44-1.23.93-1.84,1.39-2.69,2-5.44,4-8.29,5.78-2.28,1.44-4.24,3.28-6.41,4.87s-4.58,3.41-6.9,5.08c-.88.64-1.95,1-2.87,1.54s-2,1.17-2.93,1.78a2.09,2.09,0,0,1-1.45.16c-.49-.07-.66-.55-.5-1.14a8.25,8.25,0,0,1,1.05-1.85c.71-1.24,1.43-2.49,2.17-3.73a9.92,9.92,0,0,1,1.47-1.7c1.29-1.4,2.46-2.9,3.72-4.32a100.27,100.27,0,0,0,6.33-8.07,74.49,74.49,0,0,0,7.13-11.34q1.78-3.78,3.59-7.54a53.65,53.65,0,0,0,2.16-5.61,13.42,13.42,0,0,1,1.75-3.41,44.79,44.79,0,0,0,2.47-4c1.56-2.69,3.07-5.41,4.65-8.1,1.91-3.24,3.87-6.45,6-9.56,1.66-2.42,3.39-4.79,5.27-7.06a58.41,58.41,0,0,1,4.36-4.8,31.53,31.53,0,0,1,9-6.55,23.2,23.2,0,0,1,3.61-1.3c.31-.08.79-.08.66-.59-.19-.78-.52-.94-1.14-.73a30.43,30.43,0,0,0-5.53,2.22,31.06,31.06,0,0,0-4.85,3.36,45.37,45.37,0,0,0-3.36,3.14,73.1,73.1,0,0,0-6.55,7.82,152.71,152.71,0,0,0-8.48,13.16c-1.87,3.15-3.64,6.37-5.37,9.6-1.19,2.22-2.4,4.44-3.66,6.62a9.18,9.18,0,0,1-3.17,2.83c-1.94,1.27-3.91,2.51-5.83,3.82a15.39,15.39,0,0,0-4.81,5.39,31.74,31.74,0,0,1-4.23,6,.81.81,0,0,1-.46.34c-.71.14-1.15-.43-.91-1.24a91.07,91.07,0,0,1,3-8.94c1-2.44,1.93-4.91,2.92-7.35q1.59-3.91,3.27-7.78c2-4.46,4-8.88,6.22-13.22a97.92,97.92,0,0,1,6.77-11.37,68,68,0,0,1,5.16-6.56,62.88,62.88,0,0,1,4.43-4.51,47.85,47.85,0,0,1,8.7-6.32,10,10,0,0,0,2.28-1.57c.14-.14.35-.28.21-.5s-.32-.13-.53-.11a9.2,9.2,0,0,0-3.63,1.49,52.09,52.09,0,0,0-6.47,4.67,57.78,57.78,0,0,0-5.88,5.83,77.37,77.37,0,0,0-6.18,8.16c-1.62,2.45-3.11,5-4.5,7.57-1.17,2.19-2.3,4.41-3.36,6.66q-2.4,5.1-4.53,10.33c-1.56,3.85-3.21,7.66-4.76,11.51a97.85,97.85,0,0,0-4.22,12.4c-.39,1.54-.74,3.1-1.07,4.66a5.43,5.43,0,0,1-1,2,16,16,0,0,0-2.36,5c-.17.56.11.81.68.69.08,0,.15-.07.22-.09.67-.11,1,.17,1,.85a33.79,33.79,0,0,1-.44,4.14c-.07.55-.16,1.1-.23,1.65a6.82,6.82,0,0,1-1.34,2.79,29.31,29.31,0,0,0-3.6,8.18c-.16.56.18.94.58,1.26.17.14.31,0,.48-.07.34-.19.59-.51,1-.6.66-.15,1,0,1,.72,0,.92-.06,1.83-.13,2.74-.1,1.33-.24,2.65-.34,4q-.24,3-.46,5.94c-.1,1.43-.19,2.86-.26,4.29-.14,3-.28,5.93-.39,8.9-.16,4.67-.08,9.34-.05,14,0,2,.13,4,.22,6,.11,2.79.24,5.57.36,8.36.08,1.55.16,3.1.23,4.65.13,2.44.25,4.89.37,7.33.12,2.19.23,4.38.35,6.56.12,2.49.25,5,.37,7.46l.36,6.85.36,6.92.36,6.68.36,6.61c.12,2.15.23,4.3.35,6.44q.24,4.23.49,8.46c.06,1.05.14,2.1.21,3.16,0,.18,0,.36.16.39,0-1.07.08-2.17,0-3.25-.08-.93-.1-1.87-.16-2.8-.19-2.7-.28-5.41-.41-8.11-.11-2.27-.24-4.53-.35-6.8-.13-2.6-.25-5.21-.37-7.81q-.18-3.64-.35-7.28c-.13-2.57-.25-5.13-.37-7.7s-.24-5-.35-7.46c-.13-2.66-.25-5.33-.37-8l-.36-7.76c-.12-2.73-.22-5.45-.36-8.18-.12-2.13-.15-4.26-.26-6.39-.09-1.82,0-3.63-.12-5.44-.13-2.12-.09-4.24-.05-6.35s.05-4.11.11-6.17c.06-1.91.15-3.82.26-5.73a29.89,29.89,0,0,1,.2-3.27c0-.28,0-.58.39-.6s.72-.05.87.41a10.05,10.05,0,0,1,.22,1.89c.2,1.67.34,3.35.48,5,.1,1.09.18,2.18.25,3.27a8.53,8.53,0,0,0,1.7,4.47c1.75,2.39,3.37,4.87,5,7.33a3.24,3.24,0,0,1,.51,1.86c0,1.9,0,3.8,0,5.7,0,3.11-.13,6.23-.06,9.34,0,2.4,0,4.79.09,7.19s.14,4.66.24,7c.1,2.53.22,5.05.36,7.58q.15,2.94.35,5.9c.15,2.4.32,4.8.48,7.2s.31,4.56.48,6.84c.2,2.69.34,5.4.49,8.1s.26,5.53.36,8.3c.12,3.08.15,6.18.26,9.27.07,2,0,4,.11,6s0,4,.12,6.05c.05.79,0,1.58.1,2.39.32,0,.28-.25.28-.44,0-3.45,0-6.91-.05-10.37-.05-1.92,0-3.83-.08-5.75s-.08-4-.13-6q-.1-3.74-.24-7.47-.11-3.1-.24-6.22-.1-2.75-.24-5.49c-.11-2.48-.24-5-.35-7.45-.09-1.8-.15-3.59-.25-5.38-.12-2.09-.16-4.18-.25-6.27-.11-2.57-.14-5.14-.25-7.71-.07-1.73,0-3.47-.1-5.21-.2-5-.08-10.1-.06-15.16,0-1.51,0-3,.07-4.54a1.07,1.07,0,0,1,.47-1c.42-.19.8.08,1.09.42l3.32,3.88c.68.8,1.38,1.59,2.09,2.36,2.18,2.36,4.46,4.62,6.76,6.87,1,1,2,1.87,3,2.8a2.08,2.08,0,0,1,.68,1.94,20.18,20.18,0,0,0-.16,2.68c-.18,4.11-.24,8.23-.14,12.34q.08,3.11.24,6.21.19,3.66.47,7.32t.59,7.61c.19,2.31.39,4.63.6,6.94.23,2.65.49,5.3.72,7.95.17,1.89.31,3.8.48,5.69.2,2.16.34,4.32.49,6.48s.27,4.29.37,6.44q.17,3.94.24,7.89a.89.89,0,0,1-.63,1c-1.53.68-3,1.45-4.52,2.17l-11.08,5.29c-2,.94-3.95,1.85-5.92,2.8a3.84,3.84,0,0,1-2.12.45,5.87,5.87,0,0,0-2.7.71c-1.33.48-2.64,1-4,1.48-.7.26-.86.14-.94-.6-.24-2.33-.47-4.66-.72-7q-.42-3.89-.72-7.77c-.15-2-.31-3.92-.46-5.88-.2-2.64-.41-5.27-.59-7.91-.11-1.49-.16-3-.25-4.47-.15-2.5-.33-5-.47-7.5,0-.78-.07-1.55-.12-2.33-.16-2.66-.25-5.33-.4-8-.08-1.31-.16-2.62-.22-3.93-.1-2.73-.25-5.45-.38-8.18-.07-1.71-.15-3.42-.23-5.13q-.12-3.11-.25-6.21-.11-2.93-.23-5.85-.18-4.27-.37-8.54c-.11-2.45-.23-4.89-.35-7.34l-.36-7-.36-6.79-.36-6.86c-.12-2.17-.23-4.33-.36-6.5-.11-1.76-.16-3.54-.36-5.29a54.15,54.15,0,0,0-.89-5.8,9.08,9.08,0,0,1-.2-1.65c-.08-2-.36-4-.54-6-.11-1.29-.27-2.57-.38-3.85-.13-1.52-.38-3-.64-4.52a14,14,0,0,1-.14-4c0-.12,0-.24,0-.36,0-6.06.14-12.12,0-18.17-.12-4.78-.49-9.56-.4-14.34q.08-4.32.24-8.62c.09-2.17.2-4.34.37-6.5.2-2.47.62-4.91,1-7.35s.82-5.07,1.45-7.56a87.67,87.67,0,0,1,2.62-9.46c1-2.74,2-5.48,3.25-8.13a8.63,8.63,0,0,1,1.76-2.44c1.5-1.53,3-3.06,4.54-4.54a91.85,91.85,0,0,1,7.68-6.66,81,81,0,0,1,11.33-7.34,65.78,65.78,0,0,1,15.25-5.86A50.37,50.37,0,0,1,273,103a44.8,44.8,0,0,1,7.9,1,27.81,27.81,0,0,1,6,1.87,39.58,39.58,0,0,1,3.82,2.13,51.17,51.17,0,0,1,10.68,8.89c1.39,1.49,2.61,3.13,3.87,4.74,1,1.25,2.08,2.39,3,3.67a37.15,37.15,0,0,1,2.67,4.34c.34.64.71,1.25,1.07,1.88l0,.22a5.86,5.86,0,0,0,.85,1.55l0,.16,0,0-.09-.12a2.52,2.52,0,0,0-.48-1.32h0c0-.1,0-.2-.11-.25h-.12c0-.11,0-.22-.1-.26a4.64,4.64,0,0,0-.64-1.64,54.19,54.19,0,0,0-4.73-8.27,58.1,58.1,0,0,0-4-5c-1.06-1.19-2.19-2.32-3.35-3.42a54.91,54.91,0,0,0-8.4-6.47,5.53,5.53,0,0,1-.68-.48c-.53-.49-.35-1.27.4-1.65a19.87,19.87,0,0,1,5.35-1.86,24.24,24.24,0,0,1,5.95-.35,36.62,36.62,0,0,1,7.69,1.38,100.67,100.67,0,0,1,10.63,4A105.55,105.55,0,0,1,331,113.12c2.12,1.19,4.27,2.31,6.39,3.5a56.3,56.3,0,0,1,7.9,5,26.27,26.27,0,0,1,6.16,7.27,29.88,29.88,0,0,1,2.81,8.07q1.15,4.72,1.9,9.53c.4,2.5.74,5,1,7.54s.52,5.18.72,7.78q.27,3.42.47,6.85c.15,2.62.3,5.24.5,7.86.2,2.82.45,5.63.71,8.45s.54,5.45.82,8.18.57,5.45.85,8.17c.24,2.37.48,4.75.71,7.12.28,2.71.57,5.41.82,8.12.19,2,.32,4.08.5,6.12s.41,4.36.57,6.54c.08,1.11.19,2.22.25,3.33s0,1.19-1,2a7.82,7.82,0,0,1,.69.53,2,2,0,0,1,.61,1.42c.13,1.87.31,3.73.46,5.59.1,1.31.16,2.62.25,3.94q.24,3.57.47,7.15c.1,1.51.16,3,.25,4.53.15,2.44.33,4.89.47,7.33,0,.8.07,1.59.12,2.39.15,2.78.29,5.57.48,8.35.13,2.05.18,4.1.28,6.15.11,2.43.24,4.86.36,7.28s.24,4.66.35,7,.25,4.93.37,7.4.24,4.73.35,7.1.24,4.94.37,7.4q.17,3.31.35,6.63c.12,2.31.24,4.61.37,6.92.11,2.09.22,4.18.35,6.26.15,2.71.33,5.41.48,8.11.13,2.13.24,4.26.35,6.38q.19,3.88.38,7.77c.09,2.09.17,4.18.26,6.27,0,1,0,1.93,0,2.89v.12h-.84a7.38,7.38,0,0,0-1.95-.86c-1.84-.78-3.7-1.53-5.55-2.27a.84.84,0,0,1-.62-1c.23-1.61.45-3.21.65-4.82.16-1.24.3-2.48.43-3.73.16-1.44.31-2.87.45-4.31s.26-2.81.39-4.22c.15-1.6.31-3.19.45-4.8.09-1.08.18-2.17.25-3.26a72.5,72.5,0,0,0,.22-8.07c-.1-2.29-.17-4.57-.42-6.85-.23-2-.33-4-.51-6.05q-.35-4-.49-7.92c-.07-1.59-.16-3.18-.24-4.77l-.36-7.46-.36-7.34-.36-7.4-.36-7-.36-6.62c-.11-1.93-.23-3.85-.34-5.78-.17-2.72-.33-5.44-.5-8.16-.11-1.66-.22-3.33-.35-5-.18-2.38-.39-4.75-.58-7.13-.13-1.68-.23-3.37-.37-5-.18-2.06-.39-4.11-.58-6.17-.13-1.4-.24-2.81-.38-4.21-.17-1.73-.38-3.47-.57-5.2-.13-1.2-.25-2.41-.39-3.61-.18-1.55-.39-3.1-.56-4.66-.15-1.36-.29-2.72-.39-4.09-.18-2.6-.35-5.2-.47-7.8,0-1.21-.15-2.42-.24-3.63-.12-1.53-.34-3-.53-4.55-.13-1-.22-2-.31-3.07-.19-2.2-.35-4.39-.59-6.59s-.47-4.09-.76-6.13-.66-4.13-1-6.19c-.65-3.52-1.36-7-2.27-10.5a79,79,0,0,0-3.81-11.1,66.13,66.13,0,0,0-5.78-10.7c-1.48-2.22-3.12-4.32-4.8-6.38a65.46,65.46,0,0,0-6.07-6.49,41.21,41.21,0,0,0-7.91-5.79,27,27,0,0,0-7.16-2.85,17.93,17.93,0,0,0-4.61-.43.67.67,0,0,0-.71.59c0,.41.27.61.67.69.92.19,1.86.08,2.79.21a24.27,24.27,0,0,1,5.67,1.59,31.71,31.71,0,0,1,8.45,5.15,59.57,59.57,0,0,1,5.43,5.11,70.69,70.69,0,0,1,8.42,10.7,64.82,64.82,0,0,1,6.56,13.47,114.12,114.12,0,0,1,4,15c.55,2.75,1,5.52,1.4,8.29.21,1.31.34,2.63.49,4,.09.8-.17,1.14-.74,1a.91.91,0,0,1-.62-.79c-.52-2.41-1-4.81-1.68-7.18a63.88,63.88,0,0,0-3.11-9,59.94,59.94,0,0,0-4-7.49,37.66,37.66,0,0,0-3.46-4.46,33.06,33.06,0,0,0-7.46-6.39,44,44,0,0,0-7.92-3.81c-.28-.12-.48-.07-.49.33,0,.74-.82,1.31-1.4.91a2.82,2.82,0,0,0-1.71-.29,2.6,2.6,0,0,1-1.53-.35.7.7,0,0,1-.33-.42,11.53,11.53,0,0,0-.75-2.11l-.6-1.14a8.57,8.57,0,0,0-.08,2.65c.15,1.56.31,3.12.54,4.66.42,2.79.38,5.6.52,8.4a41.31,41.31,0,0,1-.5,7.29,59.52,59.52,0,0,1-1.71,8.46,60.15,60.15,0,0,1-3.43,9.79c-.89,1.85-2,3.59-2.92,5.4-.16.32-.53.41-.75.66l-.9,1s-.11.11-.1.14c.4,1.08-.51,1.67-.95,2.4a33.68,33.68,0,0,1-4.13,5.26c-1.2,1.31-2.45,2.57-3.73,3.8a35.44,35.44,0,0,1-4.49,3.79,3.2,3.2,0,0,1-3.65-.22,2,2,0,0,1-.34-2.13c.54-2.05,1.17-4.08,1.77-6.12a98.45,98.45,0,0,0,2.46-10c.51-2.72,1.32-5.36,2-8,.77-3.21,1.47-6.45,2-9.71.4-2.35.7-4.72,1.25-7a2.49,2.49,0,0,0-.17-1.92,13.07,13.07,0,0,0-.92,3.64,102,102,0,0,1-2.43,12.37q-1.95,7.55-3.89,15.1c-.69,2.73-1,5.55-1.75,8.26a69.29,69.29,0,0,1-2.66,8.62,22.49,22.49,0,0,1-2.89,4.66,20.47,20.47,0,0,1-1.3,1.62c-.64.7-1.55.55-2.29-.3a3,3,0,0,1-.43-2.67c.55-3,1.15-5.93,1.76-8.88.46-2.22,1-4.42,1.47-6.64,1-4.46,2.25-8.85,3.05-13.36.35-2,.56-4,.88-6,.22-1.38.43-2.77.61-4.16.14-1.11.38-2.21.45-3.33.1-1.64.2-3.28.45-4.91a25.78,25.78,0,0,0,.26-2.91,36.6,36.6,0,0,0,0-5.13c-.12-1.42-.33-2.84-.44-4.26-.11-1.23-.13-2.47-.19-3.7a1.85,1.85,0,0,0,0-.77A1.85,1.85,0,0,0,290.17,149.45Z"
       id="path181" />
    <path
       class="cls-6"
       d="M371.46,369.3c0-1,0-1.93,0-2.89h.11v2.88Z"
       id="path183" />
    <path
       class="cls-5"
       d="M344.33,348.06c.26-.06.3-.18.31-.33.08-1.41.15-2.82.24-4.23.2-3.1.36-6.21.38-9.32,0-.83.09-1.67.09-2.51,0-2.59.08-5.19.16-7.78.08-2.89,0-5.79.1-8.68.06-1.66.1-3.32.07-5-.18-9.21-.12-18.42-.06-27.63,0-3.2,0-6.4.12-9.59.08-2.57,0-5.15.11-7.72.08-2.12.09-4.23.11-6.35a1.5,1.5,0,0,1,.09-.46,15.82,15.82,0,0,1,1.92-3.4q3-4.46,6-8.93c.1-.14.22-.28.33-.42a.89.89,0,0,1,1-.42c.42.16.46.62.48,1,0,.8-.05,1.6-.06,2.39-.07,5.66-.12,11.31,0,17,.05,2.32,0,4.63.11,6.94.12,2.08,0,4.16.12,6.23s0,4.11.12,6.17,0,4.35.1,6.52c.22,7.55.13,15.11.08,22.66,0,2.43-.16,4.86-.24,7.29-.07,2.15-.2,4.29-.35,6.44s-.41,4.31-.57,6.47-.38,4.06-.64,6.09c-.33,2.51-.77,5-1.13,7.5a69.07,69.07,0,0,1-1.35,7.28c0,.12-.08.32.1.35s.16-.16.19-.29q1-4.5,1.76-9.06c.35-2.11.59-4.23.88-6.35.36-2.53.59-5.08.81-7.63.12-1.46.19-2.94.29-4.41.21-3,.31-6,.43-9.06.08-1.9.11-3.79.18-5.69.09-2.31,0-4.63.11-6.94.06-1.44.1-2.88.05-4.31-.14-3.69,0-7.39-.12-11.08-.1-2.36,0-4.71-.11-7.07s0-5-.11-7.42c-.23-8.91-.12-17.82-.06-26.74,0-3.49,0-7,.1-10.48,0-1.05.11-2.11.11-3.17a.63.63,0,0,1,.65-.69.62.62,0,0,1,.71.57c.1.62.19,1.25.24,1.88.19,2.78.45,5.54.71,8.31.16,1.72.24,3.45.39,5.18.23,2.85.44,5.71.61,8.56.1,1.77.23,3.54.34,5.3.17,2.74.33,5.48.5,8.22q.17,3,.35,6l.36,6.5.36,6.44c.12,2.22.24,4.45.37,6.67l.33,5.78c.17,2.68.32,5.36.51,8q.19,2.94.46,5.88c.24,2.47.39,5,.69,7.41.15,1.3.18,2.62.27,3.93.14,1.93.22,3.86.22,5.79,0,3.21-.13,6.42-.37,9.62-.21,2.75-.46,5.5-.8,8.23-.29,2.3-.49,4.62-.75,6.92-.17,1.52-.36,3-.57,4.54-.09.66-.35.78-1,.51l-2.85-1.29-2.94-1.36a1.54,1.54,0,0,0-1.54.11,2.8,2.8,0,0,1-2.56.17C347.6,362,343.85,360.86,340,360c-3-.7-6-1.56-8.92-2.55s-5.49-2.12-8.21-3.25A59.55,59.55,0,0,0,317,352c-.31-.1-.43-.21-.44-.51-.06-1.18-.14-2.35-.21-3.52-.15-2.52-.27-5-.46-7.56-.1-1.37-.17-2.74-.26-4.11-.14-2.06-.26-4.13-.47-6.19-.12-1.24-.16-2.5-.25-3.75-.15-1.9-.32-3.79-.47-5.7-.09-1.14-.16-2.3-.25-3.44-.15-1.81-.32-3.61-.47-5.41-.09-1.07-.16-2.14-.25-3.21-.15-1.86-.32-3.71-.47-5.58-.09-1.12-.16-2.26-.25-3.39-.15-1.78-.36-3.55-.45-5.34-.09-1.57-.31-3.13-.31-4.7a1.55,1.55,0,0,1,.92-1.47,82.87,82.87,0,0,0,8.89-5.28c2-1.4,3.88-2.86,5.72-4.42s3.83-3.41,5.65-5.21c.93-.92,1.87-1.83,2.79-2.75.69-.69,1.24-1.56,1.91-2.32,1-1.13,2-2.33,2.93-3.5.57-.68,1.14-1.37,1.7-2.06a1,1,0,0,1,1.16-.36c.4.16.42.59.43,1,.07,2.78-.09,5.55-.09,8.33,0,1.9-.07,3.8,0,5.69.1,2.12,0,4.24.12,6.35.11,1.85,0,3.71.11,5.56s0,3.68.13,5.51c.12,1.68,0,3.35.11,5s0,3.59.13,5.38,0,3.48.11,5.21c.14,1.93,0,3.87.11,5.8.21,5.64.08,11.27.08,16.9,0,2.67-.13,5.35-.24,8-.08,2-.22,4-.33,6C344.32,347.31,344.33,347.67,344.33,348.06Zm-13.95-59.85h0c0-1.78,0-3.56,0-5.34,0-.68-.37-1.23-.78-1.15-.6.13-.65.62-.63,1.12.09,1.52,0,3,0,4.55,0,4.23.13,8.45.38,12.68.15,2.66.24,5.33.39,8,.17,3.08.4,6.16.57,9.24.11,2.15.21,4.3.35,6.45.16,2.52.29,5.05.36,7.58.06,2,.18,3.94.24,5.92.06,2.21.17,4.42.24,6.63s.14,4.59.26,6.88c0,.15-.11.43.17.41s.16-.28.15-.44c0-1.06-.09-2.12-.11-3.17,0-1.88-.05-3.76-.1-5.63-.08-3.07-.15-6.15-.25-9.22-.07-2.39-.16-4.78-.24-7.17-.1-3.11-.19-6.22-.35-9.33q-.17-3.08-.25-6.15c-.07-2.51-.19-5-.24-7.54-.08-4.43-.09-8.87-.13-13.3Z"
       id="path185" />
    <path
       class="cls-5"
       d="M250,288.46c0-.7,0-1.4,0-2.1,0-2.06,0-4.11.14-6.16a31.16,31.16,0,0,1,.19-3.34c.15-.85.78-1.17,1.51-.67s1.19.92,1.77,1.4c1.77,1.48,3.65,2.83,5.52,4.17,2.73,1.95,5.6,3.68,8.49,5.37a1.73,1.73,0,0,1,.93,1.66c-.07,3.41-.06,6.83-.18,10.24-.06,1.62,0,3.23-.11,4.84-.11,2.63-.16,5.26-.24,7.89-.07,2.19-.21,4.38-.36,6.56-.16,2.44-.38,4.87-.56,7.31-.14,1.7-.25,3.41-.39,5.11-.13,1.46-.3,2.92-.45,4.38s-.25,2.64-.39,4c-.18,1.63-.38,3.26-.57,4.89-.13,1.19-.28,2.37-.38,3.55a.86.86,0,0,1-.52.85,4.67,4.67,0,0,1-1.92.66,4.93,4.93,0,0,0-2,.69c-2,1-4.08,2-6.12,2.94-.77.37-.93.27-1.06-.55a20.06,20.06,0,0,1-.07-2.57c-.1-2.93-.17-5.86-.28-8.79-.09-2.24-.21-4.49-.35-6.73-.18-2.82-.39-5.63-.6-8.45-.15-2.1-.32-4.2-.47-6.3q-.25-3.63-.49-7.26c-.12-1.82-.23-3.65-.35-5.47q-.31-4.5-.5-9C250.1,294.52,250,291.49,250,288.46Z"
       id="path187" />
    <path
       class="cls-7"
       d="M290.17,149.45a1.85,1.85,0,0,1,.05-.77,1.85,1.85,0,0,1,0,.77h-.1Z"
       id="path189" />
    <path
       class="cls-8"
       d="M313,133.24a5.86,5.86,0,0,1-.85-1.55h.12c0,.13.09.1.13,0s.11.15.11.25-.12,0,0,.08l0-.08a2.52,2.52,0,0,1,.48,1.32Z"
       id="path191" />
    <path
       class="cls-8"
       d="M312.94,133.25l.09.12,0,0,0-.16Z"
       id="path193" />
  </g>
  <g
     id="_Group_Image-3"
     data-name="&lt;Group&gt; Image">
    <path
       d="M372.18,377.82a2.24,2.24,0,0,1-1.07-2.17c.36-9.06-.36-18.1-.82-27.14-.41-8.14-.93-16.28-1.36-24.42q-.84-16.11-1.63-32.22c-.38-7.29-.72-14.57-1.14-21.86-.5-8.77-1.07-17.55-1.63-26.33-.15-2.35-.28-4.71-.55-7.05a3.88,3.88,0,0,0-.94-1.71c-.37-.46-.38-.66.11-1a1.52,1.52,0,0,0,.59-1.11c-.5-6.29-1-12.58-1.6-18.87s-1.22-12.37-1.84-18.55c-.5-5-1-10.06-1.48-15.09-.34-3.86-.55-7.74-.79-11.61-.69-11.54-1.8-23-4.78-34.24a22.32,22.32,0,0,0-9.78-13.6c-9.55-6-19.3-11.69-30-15.59a41.56,41.56,0,0,0-11.1-2.61,20.86,20.86,0,0,0-11.06,2,4.88,4.88,0,0,0-.91.8,4.87,4.87,0,0,0,.79.84,54.11,54.11,0,0,1,16.24,15.65,49.37,49.37,0,0,1,5.91,11.6,4.72,4.72,0,0,1,.14.75l-.19.1a6.94,6.94,0,0,1-.59-.75c-.46-.79-.91-1.59-1.34-2.41-3.4-6.53-8.15-12-13.35-17.13a37.35,37.35,0,0,0-12.48-8.35,39,39,0,0,0-16.13-2.36c-11.61.58-21.9,4.93-31.46,11.27a87.65,87.65,0,0,0-14,11.77c-4.35,4.44-3.66,3.22-6.27,9.65a94.65,94.65,0,0,0-5.36,20.4c-1.86,11.26-1.81,22.59-1.39,34,.22,5.75.1,11.51.14,17.27,0,2.56-.05,5.12.12,7.67.16,2.28.64,4.54.88,6.83.29,2.76.43,5.53.74,8.29.28,2.42.84,4.81,1,7.23.34,4,.51,8.06.73,12.09.39,7.32.79,14.65,1.14,22,.29,5.93.51,11.87.78,17.8.38,8.42.75,16.85,1.17,25.27.33,6.63.68,13.26,1.13,19.88q.78,11.35,1.76,22.71c.36,4.32.86,8.63,1.29,12.94a1.71,1.71,0,0,1-1.3,1.94,1.48,1.48,0,0,1-1.56-1.47c-.38-3.11-.76-6.23-1-9.35-.54-5.91-1.06-11.82-1.51-17.74-.36-4.66-.63-9.33-.89-14q-.68-11.73-1.28-23.47c-.22-4.51-.33-9-.54-13.54q-.54-12.29-1.15-24.56c-.32-6.45-.67-12.89-1-19.34-.16-3-.32-6-.49-9-.06-1.05-.35-1.21-1.24-.69A11.82,11.82,0,0,1,204,241a2.14,2.14,0,0,1-2.35-1.78,44.54,44.54,0,0,1-1.36-8.74,228.66,228.66,0,0,1-1-25.1,35.34,35.34,0,0,1,.39-4.71,8,8,0,0,1,3.83-5.49c.88-.58,1.82-1.07,2.75-1.58a1.63,1.63,0,0,0,.94-1.58c0-9.35.64-18.66,1.42-28,.45-5.36,1-10.71,1.6-16a38.54,38.54,0,0,1,4.54-14.8,35.36,35.36,0,0,1,8.16-10c2.94-2.42,5.66-5.13,8.65-7.48a73.5,73.5,0,0,1,26.09-13.54,47.87,47.87,0,0,1,29.12.69,2,2,0,0,0,1.77-.18,22.56,22.56,0,0,1,13.86-3c6.17.42,11.87,2.54,17.49,4.91,8.08,3.41,15.63,7.82,23.16,12.27a33.36,33.36,0,0,1,4.79,3.58c4.76,4.12,7.37,9.44,8.8,15.51a173.24,173.24,0,0,1,3.94,27.37q.84,11.87,1.67,23.74c.09,1.32.27,1.44,1.58,1.72a17.79,17.79,0,0,1,3.83,1.13c4.07,1.93,6.35,5.12,6.3,9.74-.07,5.68-.09,11.36-.29,17-.16,4.16-.52,8.3-.9,12.44a57.38,57.38,0,0,1-1,6,2.32,2.32,0,0,1-2.68,2c-.34,0-.68,0-1-.06-.82-.05-1.08.22-1,1.06.55,8.43,1.16,16.87,1.64,25.3.71,12.52,1.35,25,2,37.55.52,9.9,1,19.8,1.5,29.7.49,8.86,1.09,17.71,1.6,26.57.15,2.52.2,5,.3,7.55,0,.3.07.59.11.89v9.35a6.5,6.5,0,0,0-.12.87,2,2,0,0,1-1.2,2ZM201.91,214.75c.28,9.15.43,16.18,1.42,23.17.19,1.4.64,1.75,2,1.55a13.93,13.93,0,0,0,4.47-1.44c1.16-.59,1.21-.56,1.14-1.87-.16-3-.26-6.07-.45-9.1s-.32-6.19-.71-9.25c-.53-4.2-1.38-8.35-1.92-12.54-.38-3-.49-5.93-.71-8.89-.07-.84-.47-1.1-1.24-.74a3.34,3.34,0,0,0-1.78,2.21c-.24.75-.61,1.46-.9,2.2a8,8,0,0,0-.85,2.32C202.16,207.2,202,212,201.91,214.75ZM371.39,214h0c0-.64.1-1.28.08-1.91q-.17-6.21-.36-12.4a6.17,6.17,0,0,0-1.2-3.81,9.43,9.43,0,0,0-5.66-3.21c-1.06-.22-1.38.05-1.26,1.13.53,4.78,1.11,9.56,1.58,14.35.56,5.66,1,11.33,1.52,17,.26,3,.49,6.09.74,9.14.07.9.45,1.27,1.24,1.3,1.18.05,1.71-.27,1.84-1.16.22-1.56.49-3.12.6-4.69C370.82,224.47,371.09,219.22,371.39,214Z"
       id="path196" />
    <path
       d="M357.14,235.56a4.85,4.85,0,0,0-.17.91c-.06,13.54-.16,27.07-.15,40.6,0,11.11.34,22.23.19,33.34-.11,8.27-.62,16.54-1.2,24.79a131.61,131.61,0,0,1-3.18,20.28,3.2,3.2,0,0,1-.57.89l-.28,0a3.57,3.57,0,0,1-.1-1c.8-4.94,1.75-9.87,2.41-14.83.59-4.45,1-8.94,1.28-13.42,1.07-16,.57-31.93.32-47.9-.17-10.75-.15-21.51-.23-32.26a13.5,13.5,0,0,0-.2-1.51,9.5,9.5,0,0,0-.86.87c-2.51,3.73-5,7.45-7.49,11.21a3.71,3.71,0,0,0-.59,1.84c-.14,15.91-.21,31.82-.37,47.73-.11,11.1-.32,22.19-.54,33.28,0,2.52-.28,5-.46,7.54a2.94,2.94,0,0,1-.45.88l-.29,0a3.71,3.71,0,0,1-.25-1.06c.91-14.1.65-28.21.34-42.32-.32-13.91-.86-27.82-.55-41.74a.88.88,0,0,0,0-.23c-.1-.28-.21-.54-.31-.81a2.73,2.73,0,0,0-.73.42c-2.1,2.44-4.12,4.95-6.27,7.33a76.8,76.8,0,0,1-22.59,17.74,2.44,2.44,0,0,0-1.52,2.79q1.14,12.78,2.13,25.57,1.13,14.7,2.09,29.42c.24,3.57.36,7.15.52,10.72a1.51,1.51,0,0,1-.15.86,1.4,1.4,0,0,1-.82.57,1.07,1.07,0,0,1-.8-.48,3.06,3.06,0,0,1-.28-1.2c-.22-4.2-.39-8.39-.65-12.58-.34-5.5-.74-11-1.14-16.51-.39-5.26-.82-10.52-1.25-15.77q-.68-8.46-1.39-16.91c-.09-1.12-.17-2.23-.27-3.35s-.4-1.26-1.39-.87a52.4,52.4,0,0,1-19.09,3.53,42.92,42.92,0,0,1-17.84-4.1l-.38-.17c-.84-.36-1.21-.14-1.23.77-.05,1.72,0,3.44-.11,5.16-.36,9.07-.55,18.15-1.18,27.19-.61,8.67-1.67,17.3-2.54,25.94-.14,1.4-.35,2.78-.51,4.17-.11.92-.59,1.47-1.25,1.39s-1-.68-.9-1.63c.49-4,1-8,1.47-12,.52-4.85,1-9.7,1.39-14.56,1.09-12.22,1.21-24.47,1.5-36.72a2,2,0,0,0-1.15-2A104.78,104.78,0,0,1,252.18,277a6.28,6.28,0,0,0-1.12-.59,4.33,4.33,0,0,0-.4,1.25c-.07,6.44-.28,12.87-.09,19.3.21,7,.78,14,1.24,21.07.37,5.74.87,11.48,1.21,17.22.27,4.55.38,9.11.55,13.66.07,1.86.12,3.72.13,5.58a5.15,5.15,0,0,1-.32,1.3h-.29a4.29,4.29,0,0,1-.34-1.07c-.3-6.14-.48-12.3-.89-18.44s-1.06-12.54-1.59-18.82c-.42-5.05-.94-10.11-1.19-15.17-.33-6.61-.48-13.22-.62-19.84-.05-2.45.17-4.91.28-7.36a2.4,2.4,0,0,0-.89-1.88c-3.46-3.43-6.94-6.85-10.34-10.34-1.51-1.56-2.85-3.3-4.27-4.94-.24-.28-.55-.49-.94-.85a4.65,4.65,0,0,0-.31,1.09c-.25,12.74,0,25.47.57,38.19.83,17.77,1.66,35.54,1.6,53.34a9.86,9.86,0,0,1,0,1.44c0,.25-.32.47-.5.7-.15-.23-.44-.45-.44-.69-.14-5.17-.16-10.35-.37-15.52-.36-9.11-.72-18.22-1.3-27.31-.9-14.13-1.82-28.24-1.76-42.41,0-3.68.07-7.35,0-11a4.28,4.28,0,0,0-.66-2.17c-1.49-2.32-3-4.61-4.65-6.84a10.38,10.38,0,0,1-1.95-5.57c-.2-2.9-.49-5.81-.74-8.71a.88.88,0,0,0,0-.24c-.14-.23-.3-.45-.45-.67a2.44,2.44,0,0,0-.22.66c-.52,7.87-.72,15.74-.47,23.62.24,7.39.59,14.77.9,22.16q.36,8.35.77,16.72.57,12,1.16,23.95.48,9.64,1,19.28c0,.74.11,1.48.1,2.22a2.06,2.06,0,0,1-.31.74c-.21-.23-.53-.42-.61-.69a5.66,5.66,0,0,1-.12-1.31q-.75-13.35-1.48-26.7c-.6-11.18-1.23-22.36-1.74-33.54-.47-10.38-.92-20.76-1.14-31.15a242.2,242.2,0,0,1,1.06-24.38c.21-2.68.42-5.37.61-8.07a7.12,7.12,0,0,0-.12-1.06,10.25,10.25,0,0,1-1,.5c-.4.13-1,.42-1.21.26a1.7,1.7,0,0,1-.74-1.22,7.52,7.52,0,0,1,.56-2.37,38.51,38.51,0,0,1,3.68-7.38,9.4,9.4,0,0,0,.92-3.41c.22-1.18.34-2.38.47-3.57.07-.74-.16-.92-.86-.74-.87.22-1.46-.3-1.13-1.13a29.66,29.66,0,0,1,2.22-4.82,11.35,11.35,0,0,0,1.48-3.8,106.32,106.32,0,0,1,6.29-18.76c3.23-7.77,6.33-15.61,10.19-23.11a85.23,85.23,0,0,1,13.21-19.41,50.18,50.18,0,0,1,12-9.57,13.09,13.09,0,0,1,3-1,1,1,0,0,1,.84.37c.1.12-.06.59-.23.76a7.07,7.07,0,0,1-1.49,1.2c-7.75,4.22-13.79,10.29-18.84,17.43a124.54,124.54,0,0,0-11.34,20.66c-3.58,7.85-6.86,15.82-9.78,23.93-.49,1.37-.86,2.79-1.25,4.19a6.27,6.27,0,0,0-.06,1.2,5.08,5.08,0,0,0,.9-.71c1.27-1.79,2.65-3.52,3.74-5.42a19.14,19.14,0,0,1,6.31-6.68c1.93-1.24,3.91-2.43,5.75-3.79a8.68,8.68,0,0,0,2.3-2.53c4.27-7.34,8.36-14.77,12.69-22.07a77.71,77.71,0,0,1,12-15.5,30,30,0,0,1,13.17-8c.71-.2,1.14.09,1.48,1,.24.65-.14.93-.64,1-5.38,1.35-9.55,4.6-13.33,8.46a93.72,93.72,0,0,0-13.26,17.86c-2.64,4.38-5.14,8.84-7.69,13.27a35.33,35.33,0,0,0-3,5.38,101.94,101.94,0,0,1-7.16,15.6,98.46,98.46,0,0,1-7.87,11.52c-2.74,3.6-5.8,7-8.71,10.44a7.47,7.47,0,0,0-.7,1c-.95,1.55-1.9,3.09-2.8,4.67a3.51,3.51,0,0,0-.21,1.2,3.64,3.64,0,0,0,1.34-.1,96.71,96.71,0,0,0,14.75-10c1.72-1.37,3.53-2.62,5.32-3.9,3.06-2.2,6.15-4.36,9.2-6.6a32,32,0,0,0,9.34-11.4c2.86-5.53,5.59-11.12,8.38-16.69,3.35-6.71,6.89-13.31,11.88-19,1.13-1.29,2.41-2.44,3.64-3.64a5.92,5.92,0,0,1,.93-.6c.79,1.13.82,2,0,2.69-4.69,4.23-8,9.45-11.05,14.91-.67,1.22-1.23,2.5-1.79,3.77a1,1,0,0,0,0,.87,1.08,1.08,0,0,0,.88.1,17.28,17.28,0,0,0,6.3-3c2-1.52,4-3.09,6-4.58a14.45,14.45,0,0,1,2.5-1.51,2.24,2.24,0,0,0,1.5-2.22,4.29,4.29,0,0,1,.25-1.09,3.6,3.6,0,0,1,.43,1.12c.16,4.45,1.09,8.87.68,13.34-.32,3.42-.63,6.84-1.09,10.25-.67,4.84-1.28,9.71-2.25,14.5-1.47,7.35-3.23,14.65-4.86,22-.28,1.28-.51,2.58-.76,3.87a2.22,2.22,0,0,0,.69,2.29c.61.53,1,.54,1.52-.08a24.57,24.57,0,0,0,5.16-9.29c3-11.37,5.54-22.84,8.45-34.22.68-2.7.93-5.51,1.43-8.26a16.16,16.16,0,0,1,.68-2.35c.06-.19.3-.32.46-.47.11.21.33.43.32.63-.13,1.49-.27,3-.46,4.47-.88,6.94-2.7,13.69-4.25,20.51-1.34,5.92-2.83,11.79-4.57,17.6-.25.85-.54,1.74.37,2.41a2.82,2.82,0,0,0,3.06-.13c.83-.61,1.64-1.27,2.44-1.94A58.47,58.47,0,0,0,313.66,182a60.16,60.16,0,0,0,4.83-22.3,75.65,75.65,0,0,0-.91-12.48,31.49,31.49,0,0,1-.15-4,3.7,3.7,0,0,1,.32-1,11.13,11.13,0,0,1,.7.94,15.31,15.31,0,0,1,1.74,6.37c.16,3.23.24,6.47.19,9.71a40.54,40.54,0,0,1-.62,5.58,80.15,80.15,0,0,1-1.8,9.94,73.11,73.11,0,0,1-6,13.87,25.36,25.36,0,0,1-4.62,6.59,12.28,12.28,0,0,0-1.42,1.71c-2.24,3.11-4.8,6-7.34,8.85a9.47,9.47,0,0,1-6.12,3.25,2.5,2.5,0,0,0-1.92,1.27c-1,1.66-2,3.35-3.11,4.9a12.76,12.76,0,0,1-2.69,2.6c-1.27.93-2.37.51-2.84-1a27.87,27.87,0,0,1-.6-3.05c-.28-1.44.3-2.76.59-4.11q1.23-5.77,2.44-11.54c1.29-6.22,2.61-12.42,3.82-18.65.43-2.25.48-4.57.83-6.83a115.51,115.51,0,0,0,.94-17.82,3.32,3.32,0,0,0-.31-1,3.64,3.64,0,0,0-1,.34c-1.58,1.16-3.13,2.35-4.7,3.53a28.09,28.09,0,0,1-10.7,5,2.82,2.82,0,0,0-2.21,2.1,71.55,71.55,0,0,1-8.44,16.72c-4.2,6.5-10,11.23-16.25,15.57-6.64,4.63-13.42,9-20.49,13a2.08,2.08,0,0,0-1.17,2c0,4.88-.24,9.76-.06,14.63s.74,10,1.18,14.93a3.43,3.43,0,0,0,.56,1.5,127.3,127.3,0,0,0,37.28,38.45,54.7,54.7,0,0,0,15.09,7.44c10,2.9,19.88,2,29.52-1.74A64.19,64.19,0,0,0,328,274.49c7.77-7.09,14.14-15.36,20-24,1.32-2,2.51-4,3.88-5.91a10.54,10.54,0,0,0,1.65-5.11,166.91,166.91,0,0,0,.61-28.8,149.73,149.73,0,0,0-6.88-36.94,42,42,0,0,0-9-16.13,34.41,34.41,0,0,0-12.69-8.71c-1.69-.67-1.59-1.07-1.78-2.67-.07-.6.26-.74.77-.63a5.35,5.35,0,0,1,.67.24c10.9,3.92,18,11.66,22.57,22.09a80.32,80.32,0,0,1,4.67,15.63,4.2,4.2,0,0,0,.26.92c.06.15.26.24.4.36a1.55,1.55,0,0,0,.14-.53c-.22-1.78-.43-3.57-.7-5.35a115,115,0,0,0-5.17-21.81,66.44,66.44,0,0,0-22-30.48,26.41,26.41,0,0,0-11.86-5.31c-.9-.16-1.82-.16-2.74-.24-.29,0-.67,0-.85-.17s-.66-.77-.57-1a1.45,1.45,0,0,1,1-.8,17.21,17.21,0,0,1,7.8,1.24A39.84,39.84,0,0,1,332.36,130a72.8,72.8,0,0,1,19.56,36.64,175.86,175.86,0,0,1,3.43,21.76c.63,7.14,1.13,14.3,1.75,21.44.38,4.26.91,8.5,1.34,12.75.52,5.11,1.06,10.22,1.5,15.34.52,6.09,1,12.19,1.39,18.29q.51,7.35.89,14.72c.45,8.4.86,16.81,1.29,25.21.29,5.83.53,11.66.89,17.49.25,4.26.64,8.52,1,12.78a88.81,88.81,0,0,1-.1,15.81c-.49,5.29-1,10.59-1.52,15.87-.28,2.76-.69,5.51-1.09,8.26,0,.28-.4.51-.62.76-.11-.28-.33-.57-.31-.83.44-4.09.92-8.18,1.38-12.27.91-8.17,1.59-16.36,1-24.59-.39-5.4-.93-10.79-1.33-16.19-.32-4.24-.55-8.49-.8-12.73-.44-7.61-.84-15.21-1.29-22.81-.35-6.15-.7-12.29-1.13-18.43-.4-5.86-.91-11.72-1.38-17.57-.15-1.84-.32-3.67-.5-5.49a3,3,0,0,0-.24-.69ZM241.31,173.33l-.2-.18a8.66,8.66,0,0,0-1.09.79c-5.06,4.88-8.88,10.77-13.14,16.31a4.16,4.16,0,0,0-.72,2,22.43,22.43,0,0,0,0,3.28,2.28,2.28,0,0,0,.31.79,2.85,2.85,0,0,0,.67-.43,43.94,43.94,0,0,0,6.45-9.19c1.57-2.8,3.21-5.56,4.84-8.32.8-1.34,1.67-2.64,2.47-4A7.3,7.3,0,0,0,241.31,173.33Z"
       id="path198" />
    <path
       d="M332,335.27c.1,4.25.22,9.79.34,15.32,0,.18.06.39,0,.53a2.57,2.57,0,0,1-.5.55c-.15-.17-.41-.32-.45-.51a6.85,6.85,0,0,1-.08-1.2c-.33-8.44-.62-16.89-1-25.33-.35-7.44-.91-14.88-1.22-22.32-.27-6.57-.32-13.15-.45-19.72,0-.82.34-1.21,1-1.22s1.05.49,1.05,1.27c.05,6,0,12.07.17,18.1.21,8.27.56,16.53.86,24.8C331.81,328.36,331.9,331.17,332,335.27Z"
       id="path200" />
    <path
       d="M305,240.1s0,0,0,0c-.09,1.79-3.07,5.06-4.84,5.27-.18,0-.38-.12-.57-.19a3.09,3.09,0,0,1,.31-.6c.84-1.06,1.76-2.07,2.52-3.18a2.41,2.41,0,0,0-.27-3.29c-1.67-2-3.34-4-5-6a15.56,15.56,0,0,1-3.44-8.9c-.27-2.9-.59-5.8-.89-8.71,0-.4-.14-.87.44-.92s.53.42.57.8c.41,3.21.73,6.43,1.24,9.63a13.91,13.91,0,0,0,4,7.37q2.16,2.29,4.26,4.63A6.48,6.48,0,0,1,305,240.1Z"
       id="path202" />
    <path
       d="M279.86,239.82a3.6,3.6,0,0,1,3.45-3.41.74.74,0,0,1,.53.28c.06.09,0,.38-.17.5-.35.36-.74.68-1.11,1a2.33,2.33,0,0,0-.65,3.16c.5.94,1.19,1.79,1.77,2.7a1.87,1.87,0,0,1,.14.64c-.26,0-.58.16-.76.06A5.73,5.73,0,0,1,279.86,239.82Z"
       id="path204" />
    <path
       d="M287.29,244.93a3.08,3.08,0,0,1,.95-.06c1.09.23,2.18.48,3.24.81a5.91,5.91,0,0,0,4.74-.47,7.37,7.37,0,0,1,1-.44c.12,0,.28,0,.42.07,0,.14,0,.34-.12.42a5.55,5.55,0,0,1-1,.76,7.09,7.09,0,0,1-5.61.55c-1-.3-2-.58-3-.91a3.61,3.61,0,0,1-.77-.47Z"
       id="path206" />
  </g>
</svg>
