<?xml version="1.0" encoding="UTF-8" standalone="no"?>
<svg
   xmlns:dc="http://purl.org/dc/elements/1.1/"
   xmlns:cc="http://creativecommons.org/ns#"
   xmlns:rdf="http://www.w3.org/1999/02/22-rdf-syntax-ns#"
   xmlns:svg="http://www.w3.org/2000/svg"
   xmlns="http://www.w3.org/2000/svg"
   id="newmum_eyes_right"
   viewBox="0 0 570 1560"
   version="1.1">
  <metadata
     id="metadata104">
    <rdf:RDF>
      <cc:Work
         rdf:about="">
        <dc:format>image/svg+xml</dc:format>
        <dc:type
           rdf:resource="http://purl.org/dc/dcmitype/StillImage" />
        <dc:title></dc:title>
      </cc:Work>
    </rdf:RDF>
  </metadata>
  <defs
     id="defs102" />
  <g
     id="_Group_Image"
     data-name="&lt;Group&gt; Image">
    <path
       d="M326.6,216.66c-.53-.08-1.06-.19-1.59-.23a2,2,0,0,1-1.62-1.06,20.7,20.7,0,0,0-1.31-2,10.84,10.84,0,0,1-2.12-9.29c0-.07,0-.15,0-.33-5.75.75-11.61.82-16.93,4.25.28-1,.48-1.77.76-2.55s.66-1.57,1-2.42l-2.19-.59c-.55-.15-.68-.48-.32-.92a2,2,0,0,1,.62-.46,30.16,30.16,0,0,1,13.49-3.68c2.93-.08,5.85-.4,8.78-.56a14.72,14.72,0,0,1,2.56.2,2,2,0,0,0,2.18-1,30.67,30.67,0,0,1,1.69-2.75,3.91,3.91,0,0,1,1.44-1.09c.51-.24,1,.44.88,1.13-.26,1.19-.53,2.37-.86,3.54a1,1,0,0,0,.66,1.41c1.31.64,2.59,1.34,3.86,2,.38.22.57.18.81-.18.67-1,1.37-2,2.1-3,.15-.2.46-.29.7-.44.14.32.41.64.38.95a9,9,0,0,1-.41,1.73,6.78,6.78,0,0,1-.3.9,3,3,0,0,0,1.07,3.8,14.82,14.82,0,0,1,2.12,2.41,1.3,1.3,0,0,1-.1,1.76,31.7,31.7,0,0,1-6.18,5.44,1.15,1.15,0,0,1-.32.07,15.76,15.76,0,0,1,.43-2,20.79,20.79,0,0,1,1.06-2.53,2,2,0,0,0-.12-2.24,6.09,6.09,0,0,0-2.36-2.31c-.81-.36-1-.16-1.06.72a24.91,24.91,0,0,1-.35,4,9.94,9.94,0,0,1-3.7,5.84c-.17.13-.41.29-.44.46-.12.91-.74,1-1.45.9a1.92,1.92,0,0,0-.4.09Zm6-7.33c-2.58,3.12-5.77,2.6-7.21-1.16a6.37,6.37,0,0,1-.36-3.86c.08-.35.17-.93-.5-.79a15.7,15.7,0,0,0-2.6.82,1.15,1.15,0,0,0-.7,1.65c.12.27.14.58.24.86.63,1.8,1.17,3.63,1.94,5.37a4,4,0,0,0,2.75,2.39c2.71.58,6.59-2,7.28-4.67Zm-1.34-5.94-.13,2.31c0,.53-.09,1.07-.07,1.6,0,1,.46,1.53,1.32,1.59a1.44,1.44,0,0,0,1.76-1.41,16,16,0,0,0,0-2.85,1.07,1.07,0,0,0-.57-.8A22.09,22.09,0,0,0,331.24,203.39Z"
       id="path90" />
    <path
       d="M346.62,195.14c-.41.82-1.06.65-1.72.41-4.91-1.79-9.79-3.67-14.73-5.35a81.78,81.78,0,0,0-9.71-2.72,8.71,8.71,0,0,0-7.06,1.7,39.31,39.31,0,0,1-4.52,2.69c-.22.12-.64-.1-1.16-.2,1.22-1.49,2.28-2.69,3.91-3.25.26-.09.42-.47.65-.69a10.56,10.56,0,0,1,7.37-3.37,19.76,19.76,0,0,1,5.9,1.17,125.47,125.47,0,0,1,18.86,7.67,23.62,23.62,0,0,1,2.21,1.34Z"
       id="path92" />
    <path
       d="M248,193.48a7.29,7.29,0,0,1,.78,1c.37.66.65,1.37,1,2a1.11,1.11,0,0,0,1.44.64c5.19-1.66,10.34-.79,15.51.18,2.13.4,4.31.58,6.45.92a14.47,14.47,0,0,1,6.51,3.25c-.53.23-.91.43-1.31.56s-.63.08-.94.14c-.59.12-.87.37-.56,1,.49,1.08.92,2.19,1.36,3.3a1.15,1.15,0,0,1,0,.71,24.69,24.69,0,0,0-6.89-4.43c-.2,1.64-.31,3.29-.61,4.9a11.91,11.91,0,0,1-2.88,5.7,9.41,9.41,0,0,1-.76.63,3.39,3.39,0,0,0-.33.42,2.19,2.19,0,0,0,.47.3,8.69,8.69,0,0,1,1.43.44,28,28,0,0,1-13.1-.34v-.25h3.76l.15-.17c-4.07-2.92-4.68-7.32-5.22-11.81l-1.46.14-6.56.57a4.2,4.2,0,0,0-3.38,2.28,4.25,4.25,0,0,1-.27.46,2.68,2.68,0,0,0-.2,2.95,36.15,36.15,0,0,1,1.33,3.7,6.77,6.77,0,0,1,.13.82c-2.72-2-5.33-3.89-7.08-6.68a1.58,1.58,0,0,1,.26-2.22,23.05,23.05,0,0,1,2.55-2.07,2.08,2.08,0,0,0,1-2.6,21.32,21.32,0,0,1-.53-2.2,1.09,1.09,0,0,1,.36-.76c.08-.07.54.1.66.28.35.54.64,1.14.94,1.72.54,1.06,1.1,1.22,2.12.63a10.7,10.7,0,0,1,1.59-.79,2.82,2.82,0,0,0,1.92-2.51c.06-.55,0-1.12,0-1.67,0-.37.08-.73.12-1.1Zm19.49,9c0,.78,0,1.49,0,2.21a6.2,6.2,0,0,1-1.67,4.41,4.44,4.44,0,0,1-2,1.22,3.33,3.33,0,0,1-3.19-1.09,3.24,3.24,0,0,0-4-.55c.32.53.59,1.08.95,1.57a5.87,5.87,0,0,0,5.68,2.62,5.36,5.36,0,0,0,4.33-3.6,17.53,17.53,0,0,0,1.16-6c0-.58,0-.82-.64-.79Zm-6.1,2.45a9.53,9.53,0,0,0-.63-1.6,3.39,3.39,0,0,0-4.36-.81.85.85,0,0,0-.38.57,28.78,28.78,0,0,0,.4,3.59,1.11,1.11,0,0,0,1.47.88,10.54,10.54,0,0,0,2.57-1.19C260.9,206.06,261.09,205.4,261.4,204.91Z"
       id="path94" />
    <path
       d="M270.17,189.2a3.3,3.3,0,0,1-.69-.31c-1.48-1.1-3.29-1.43-5-2a9.78,9.78,0,0,0-5.44.12c-7.19,1.8-14,4.69-21,7.18-.81.29-1.62.57-2.45.79-.27.07-.78,0-.86-.18a1.47,1.47,0,0,1,0-1.09c.09-.25.44-.45.72-.59a128.22,128.22,0,0,1,22.21-8.93,11,11,0,0,1,11.38,3,12.22,12.22,0,0,1,1.31,1.84Z"
       id="path96" />
  </g>
</svg>
