<?xml version="1.0" encoding="UTF-8" standalone="no"?>
<svg
   xmlns:dc="http://purl.org/dc/elements/1.1/"
   xmlns:cc="http://creativecommons.org/ns#"
   xmlns:rdf="http://www.w3.org/1999/02/22-rdf-syntax-ns#"
   xmlns:svg="http://www.w3.org/2000/svg"
   xmlns="http://www.w3.org/2000/svg"
   id="newmum_mouth_neutral"
   viewBox="0 0 570 1560"
   version="1.1">
  <metadata
     id="metadata232">
    <rdf:RDF>
      <cc:Work
         rdf:about="">
        <dc:format>image/svg+xml</dc:format>
        <dc:type
           rdf:resource="http://purl.org/dc/dcmitype/StillImage" />
        <dc:title></dc:title>
      </cc:Work>
    </rdf:RDF>
  </metadata>
  <defs
     id="defs230" />
  <g
     id="_Group_Image"
     data-name="&lt;Group&gt; Image">
    <path
       d="M317.94,266.78c-3.06.52-6.13,1-9.19,1.54-.38.06-.56.15-.54.58a3.18,3.18,0,0,1-2.41,3.47c-2.52.71-5.07,1.34-7.65,1.81a34.4,34.4,0,0,1-13,0,12.54,12.54,0,0,1-5.85-2.53l.1-.06c3.85,2.55,8.2,2.9,12.63,2.77a58.41,58.41,0,0,0,11.6-1.91,12.26,12.26,0,0,0,2.06-.78,2.44,2.44,0,0,0,1.58-3.08l-3,.29a96.84,96.84,0,0,1-17.28.24c-3.92-.29-7.83-.69-11.75-.93-2.24-.14-4.49-.07-6.74-.08H267v-.2c1.94,0,3.87,0,5.8,0a.86.86,0,0,0,.65-.26c1.15-2,3.08-2.84,5.21-3.31a9.78,9.78,0,0,1,2-.25c5.75-.13,11.49-.31,17.23-.31A26.75,26.75,0,0,1,307,265a6.72,6.72,0,0,1,.67.28c-6.61-1.91-13.35-1.33-20.07-1-2.45.1-4.91.23-7.35.43a8.47,8.47,0,0,0-5.86,2.6c-.11.11-.21.23-.32.35a.42.42,0,0,0-.05.12c14.63,1.39,29.2,1.23,43.63-2.23l.29,1.16Z"
       id="path224" />
  </g>
</svg>
