<?xml version="1.0" encoding="UTF-8" standalone="no"?>
<svg
   xmlns:dc="http://purl.org/dc/elements/1.1/"
   xmlns:cc="http://creativecommons.org/ns#"
   xmlns:rdf="http://www.w3.org/1999/02/22-rdf-syntax-ns#"
   xmlns:svg="http://www.w3.org/2000/svg"
   xmlns="http://www.w3.org/2000/svg"
   id="newmum_eyes_neutral"
   viewBox="0 0 570 1560"
   version="1.1">
  <metadata
     id="metadata72">
    <rdf:RDF>
      <cc:Work
         rdf:about="">
        <dc:format>image/svg+xml</dc:format>
        <dc:type
           rdf:resource="http://purl.org/dc/dcmitype/StillImage" />
        <dc:title></dc:title>
      </cc:Work>
    </rdf:RDF>
  </metadata>
  <defs
     id="defs70" />
  <g
     id="_Group_Image"
     data-name="&lt;Group&gt; Image">
    <path
       d="M321.45,215.1c-.51-.08-1-.19-1.53-.24a1.85,1.85,0,0,1-1.52-1c-.43-.72-.89-1.42-1.38-2.09a10.88,10.88,0,0,1-2-9.51c-4.64.47-8.31,2.76-11.67,5.67l-.23-.09c.23-.79.43-1.59.71-2.37s.66-1.56,1-2.43c-.78-.21-1.48-.44-2.19-.57s-.58-.53-.32-.93a1.76,1.76,0,0,1,.61-.46,30.16,30.16,0,0,1,13.5-3.68c2.93-.09,5.85-.4,8.78-.56a14.72,14.72,0,0,1,2.56.2,2,2,0,0,0,2.18-1,30.67,30.67,0,0,1,1.69-2.75,4,4,0,0,1,1.43-1.09c.53-.25,1,.45.88,1.18-.26,1.17-.52,2.33-.84,3.48a1,1,0,0,0,.65,1.42c1.27.61,2.52,1.29,3.75,2,.5.29.73.18,1-.27.61-1,1.27-1.88,1.94-2.79a2.71,2.71,0,0,1,.75-.49,3.06,3.06,0,0,1,.37,1.06,7.16,7.16,0,0,1-.4,1.61c-.1.37-.22.72-.35,1.08a2.94,2.94,0,0,0,1,3.55,16.46,16.46,0,0,1,2.21,2.49,1.29,1.29,0,0,1-.1,1.76,32.37,32.37,0,0,1-6.18,5.44s-.11,0-.32.07a15.56,15.56,0,0,1,.43-2,23.16,23.16,0,0,1,1.09-2.58,1.92,1.92,0,0,0-.12-2.13c-.41-.56-.78-1.16-1.21-1.71a4,4,0,0,0-2.4-1.46c-1.31-.26-2.61-.56-3.91-.85-.72-.16-.9.07-.95.8a28.43,28.43,0,0,1-.54,4.71,9.52,9.52,0,0,1-3.48,5.1c-.14.11-.37.22-.39.35-.1,1.11-1,1-1.71,1.11Zm4.49-7c.07-.08,0,0-.07.1-1.43,2-3.88,2.39-5.5.81a6.56,6.56,0,0,1-1.89-5.9c.06-.4.32-.9-.3-1-.79-.16-1.6.26-1.65.8a11.83,11.83,0,0,0,2.6,8.81,3.61,3.61,0,0,0,3.52,1.4c2.38-.31,5.21-2.56,5.74-4.66Zm3.32-3.68a6.5,6.5,0,0,0-.15-1.39,1.24,1.24,0,0,0-.68-.79,8.48,8.48,0,0,0-2.35-.26,1.43,1.43,0,0,0-1,.64,3.31,3.31,0,0,0,1.44,4.52,1.68,1.68,0,0,0,2.62-1.45C329.21,205.28,329.22,204.86,329.26,204.42Z"
       id="path58" />
    <path
       d="M346.62,195.14c-.41.82-1.06.65-1.72.41-4.91-1.8-9.79-3.67-14.73-5.35a79.93,79.93,0,0,0-9.71-2.72,8.71,8.71,0,0,0-7.06,1.7,39.31,39.31,0,0,1-4.52,2.69c-.22.12-.64-.1-1.16-.21,1.22-1.48,2.28-2.68,3.91-3.24.26-.1.42-.47.65-.69a10.56,10.56,0,0,1,7.37-3.37,19.76,19.76,0,0,1,5.9,1.17,125.47,125.47,0,0,1,18.86,7.67,23.62,23.62,0,0,1,2.21,1.34Z"
       id="path60" />
    <path
       d="M243.83,213.56c-2.71-2-5.3-3.87-7.06-6.65a1.61,1.61,0,0,1,.25-2.27,24.16,24.16,0,0,1,2.55-2.06,2.06,2.06,0,0,0,1-2.55c-.2-.75-.41-1.5-.54-2.26a.88.88,0,0,1,.32-.72c.11-.09.55.06.66.22a13.68,13.68,0,0,1,.95,1.72c.57,1.12,1.12,1.27,2.21.62a8.94,8.94,0,0,1,1.49-.73,2.81,2.81,0,0,0,2-2.6c.06-.88,0-1.77,0-2.65l.36-.15a6.42,6.42,0,0,1,.8.94c.33.6.56,1.27.88,1.89.49.91.8,1.06,1.8.77a20,20,0,0,1,7.75-.82c2.74.28,5.45.8,8.17,1.2,2.13.31,4.28.52,6.39.93a14,14,0,0,1,5.94,3.14,11.27,11.27,0,0,1-1.59.55c-1.56.25-1.6.27-1,1.72.37.92.78,1.83,1.14,2.76a2.36,2.36,0,0,1,.06.67c-1.81-1.2-3.48-2.39-5.23-3.44a13.7,13.7,0,0,0-5.75-1.91c-.1,1.27-.14,2.52-.3,3.75a12.84,12.84,0,0,1-3.21,7.07,6.65,6.65,0,0,1-.65.51,3.44,3.44,0,0,0-.35.41,2.59,2.59,0,0,0,.55.33,7.24,7.24,0,0,1,1.34.44c-4.4.75-8.76,1-13.07-.35v-.24h3.74l.16-.18c-4.05-2.73-4.33-7-4.89-11.38-2,.5-3.95.86-5.8,1.51-1.64.58-2.27,2.2-2.88,3.7-.1.25.07.62.17.91.52,1.47,1.05,2.92,1.57,4.38A6.45,6.45,0,0,1,243.83,213.56Zm19-12.21c0,.62,0,1.22,0,1.81a6.77,6.77,0,0,1-1.46,4.56c-1.35,1.79-3.42,2.13-5,.57-1.17-1.13-2.3-.94-3.69-.51a18.69,18.69,0,0,0,1,1.7,5.86,5.86,0,0,0,5.36,2.58,5.35,5.35,0,0,0,4.61-3.67,14.24,14.24,0,0,0,1.06-5.95,1,1,0,0,0-1.05-1.09Zm-6.25,2.14a2,2,0,0,0-2.54-2.2l-.53.08c-1.4.22-1.53.38-1.43,1.77,0,.42,0,.84,0,1.25a6.56,6.56,0,0,0,.28,1.4,1.35,1.35,0,0,0,1.88.85A3.23,3.23,0,0,0,256.62,203.49Z"
       id="path62" />
    <path
       d="M270.18,189.19a2.28,2.28,0,0,1-.64-.27c-1.46-1.11-3.25-1.42-4.92-2a9.81,9.81,0,0,0-5.55.1c-7.2,1.8-14,4.69-21,7.17-.81.29-1.61.58-2.44.79-.27.07-.81,0-.87-.17a1.78,1.78,0,0,1,0-1.14c.08-.23.42-.41.68-.54a128.86,128.86,0,0,1,22.21-8.93,11,11,0,0,1,11.38,3,11.6,11.6,0,0,1,1.32,1.84Z"
       id="path64" />
  </g>
</svg>
